<svg xmlns="http://www.w3.org/2000/svg" xmlns:xlink="http://www.w3.org/1999/xlink" contentStyleType="text/css" data-diagram-type="CLASS" height="874px" preserveAspectRatio="none" style="width:1056px;height:874px;background:#FFFFFF;" version="1.1" viewBox="0 0 1056 874" width="1056px" zoomAndPan="magnify"><defs/><g><!--class Setup--><g class="entity" data-entity="Setup" data-source-line="2" data-uid="ent0002" id="entity_Setup"><rect fill="#F1F1F1" height="181.4754" rx="2.5" ry="2.5" style="stroke:#181818;stroke-width:0.5;" width="167.9875" x="524.86" y="94.71"/><ellipse cx="585.6548" cy="110.71" fill="#E3664A" rx="11" ry="11" style="stroke:#181818;stroke-width:1;"/><path d="M592.7329,109.8819 Q592.7329,110.6944 592.5454,111.4756 Q592.3579,112.2569 591.9517,112.9131 Q591.561,113.5538 590.9517,113.96 Q590.3579,114.3506 589.5298,114.3506 Q588.6392,114.3506 588.1079,113.835 Q587.5923,113.3194 587.6548,112.7256 L587.7485,112.7569 Q587.561,113.4131 586.8892,113.8819 Q586.2329,114.3506 585.2642,114.3506 Q583.8423,114.3506 583.061,113.3975 Q582.2954,112.4444 582.2954,110.9288 Q582.2954,109.7413 582.7642,108.8194 Q583.2329,107.8975 584.1079,107.3663 Q584.9829,106.835 586.1548,106.835 Q586.936,106.835 587.6704,106.9756 Q588.4204,107.1163 589.0454,107.3194 L588.8579,110.9756 Q588.8423,111.2725 588.8423,111.3975 Q588.8423,111.5225 588.8423,111.5694 Q588.8423,112.3506 589.0767,112.5694 Q589.311,112.7725 589.6235,112.7725 Q590.0298,112.7725 590.3423,112.4131 Q590.6548,112.0381 590.8267,111.3663 Q591.0142,110.6944 591.0142,109.8506 Q591.0142,108.3506 590.4048,107.3194 Q589.811,106.2881 588.7642,105.7413 Q587.7173,105.1944 586.3579,105.1944 Q584.9673,105.1944 583.8892,105.6319 Q582.8267,106.0694 582.1079,106.8663 Q581.3892,107.6475 581.0142,108.7413 Q580.6392,109.8194 580.6392,111.1319 Q580.6392,112.7413 581.2017,113.835 Q581.7798,114.9288 582.8423,115.5069 Q583.9204,116.0694 585.5298,116.0694 Q586.5298,116.0694 587.4517,115.8506 Q588.3735,115.6319 589.4517,115.21 L589.4517,116.9288 Q588.5298,117.3194 587.5923,117.5225 Q586.6704,117.7256 585.5298,117.7256 Q583.4673,117.7256 581.9673,116.9444 Q580.4829,116.1631 579.686,114.6944 Q578.8892,113.2256 578.8892,111.1788 Q578.8892,109.5538 579.3892,108.1631 Q579.9048,106.7569 580.8735,105.7256 Q581.8579,104.6944 583.2485,104.1163 Q584.6392,103.5381 586.3579,103.5381 Q587.7329,103.5381 588.8892,103.9756 Q590.061,104.3975 590.9204,105.2413 Q591.7798,106.0694 592.2485,107.2413 Q592.7329,108.4131 592.7329,109.8819 Z M584.1548,110.96 Q584.1548,111.96 584.5142,112.3663 Q584.8735,112.7725 585.4829,112.7725 Q586.2798,112.7725 586.6392,112.1631 Q586.9985,111.5381 587.061,110.46 L587.1548,108.5381 Q587.1548,108.5381 586.8267,108.4913 Q586.5142,108.4444 586.1704,108.4444 Q585.436,108.4444 584.9829,108.8038 Q584.5454,109.1475 584.3423,109.7413 Q584.1548,110.3194 584.1548,110.96 Z " fill="#000000"/><text fill="#000000" font-family="sans-serif" font-size="14" lengthAdjust="spacing" textLength="37.8979" x="606.1548" y="116.142">Setup</text><line style="stroke:#181818;stroke-width:0.5;" x1="525.86" x2="691.8475" y1="126.71" y2="126.71"/><ellipse cx="535.86" cy="141.744" fill="none" rx="3" ry="3" style="stroke:#038048;stroke-width:1;"/><text fill="#000000" font-family="sans-serif" font-size="14" lengthAdjust="spacing" textLength="124.3056" x="544.86" y="145.6759">strategies : list[Sid]</text><ellipse cx="535.86" cy="160.8119" fill="none" rx="3" ry="3" style="stroke:#038048;stroke-width:1;"/><text fill="#000000" font-family="sans-serif" font-size="14" lengthAdjust="spacing" textLength="141.9875" x="544.86" y="164.7439">benchmarks : list[Bid]</text><ellipse cx="535.86" cy="179.8798" fill="none" rx="3" ry="3" style="stroke:#038048;stroke-width:1;"/><text fill="#000000" font-family="sans-serif" font-size="14" lengthAdjust="spacing" textLength="95.4377" x="544.86" y="183.8118">dataname : str</text><ellipse cx="535.86" cy="198.9477" fill="none" rx="3" ry="3" style="stroke:#038048;stroke-width:1;"/><text fill="#000000" font-family="sans-serif" font-size="14" lengthAdjust="spacing" textLength="106.7776" x="544.86" y="202.8797">solver : SolverPy</text><ellipse cx="535.86" cy="218.0156" fill="none" rx="3" ry="3" style="stroke:#038048;stroke-width:1;"/><text fill="#000000" font-family="sans-serif" font-size="14" lengthAdjust="spacing" textLength="47.5718" x="544.86" y="221.9476">db : DB</text><ellipse cx="535.86" cy="237.0835" fill="none" rx="3" ry="3" style="stroke:#038048;stroke-width:1;"/><text fill="#000000" font-family="sans-serif" font-size="14" lengthAdjust="spacing" textLength="105.0696" x="544.86" y="241.0155">builder : Builder</text><line style="stroke:#181818;stroke-width:1;" x1="525.86" x2="691.8475" y1="249.1175" y2="249.1175"/><ellipse cx="535.86" cy="264.1515" fill="#84BE84" rx="3" ry="3" style="stroke:#038048;stroke-width:1;"/><text fill="#000000" font-family="sans-serif" font-size="14" lengthAdjust="spacing" textLength="52.5418" x="544.86" y="268.0834">launch()</text></g><!--class SolverPy--><g class="entity" data-entity="SolverPy" data-source-line="13" data-uid="ent0003" id="entity_SolverPy"><rect fill="#F1F1F1" height="105.2038" rx="2.5" ry="2.5" style="stroke:#181818;stroke-width:0.5;" width="223.7072" x="9" y="356.25"/><ellipse cx="90.5357" cy="372.25" fill="#A9DCDF" rx="11" ry="11" style="stroke:#181818;stroke-width:1;"/><path d="M93.8795,377.5 L92.4107,373.75 L87.9732,373.75 L86.5357,377.5 L84.4107,377.5 L89.3638,364.7813 L91.1138,364.7813 L96.0357,377.5 L93.8795,377.5 Z M90.5357,368.5469 Q90.4888,368.3906 90.3638,368.0313 Q90.2388,367.6719 90.1295,367.2969 Q90.0201,366.9063 90.2232,366.8438 Q90.3795,367.0313 90.2857,367.3906 Q90.192,367.7344 90.0982,368.0313 Q90.0045,368.3125 89.9263,368.5469 L88.692,371.8594 L91.7701,371.8594 L90.5357,368.5469 Z " fill="#000000"/><text fill="#000000" font-family="sans-serif" font-size="14" font-style="italic" lengthAdjust="spacing" textLength="52.1358" x="111.0357" y="377.682">SolverPy</text><line style="stroke:#181818;stroke-width:0.5;" x1="10" x2="231.7072" y1="388.25" y2="388.25"/><polygon fill="none" points="20,398.284,24,402.284,20,406.284,16,402.284" style="stroke:#B38D22;stroke-width:1;"/><text fill="#000000" font-family="sans-serif" font-size="14" lengthAdjust="spacing" textLength="107.7996" x="29" y="407.2159">plugins : Plugins</text><line style="stroke:#181818;stroke-width:1;" x1="10" x2="231.7072" y1="415.3179" y2="415.3179"/><ellipse cx="20" cy="430.3519" fill="#84BE84" rx="3" ry="3" style="stroke:#038048;stroke-width:1;"/><text fill="#000000" font-family="sans-serif" font-size="14" font-style="italic" lengthAdjust="spacing" textLength="197.7072" x="29" y="434.2839">solve(problem, strategy) : Result</text><ellipse cx="20" cy="449.4198" fill="#84BE84" rx="3" ry="3" style="stroke:#038048;stroke-width:1;"/><text fill="#000000" font-family="sans-serif" font-size="14" lengthAdjust="spacing" textLength="128.7015" x="29" y="453.3518">solved(result) : bool</text></g><!--class Plugin--><g class="entity" data-entity="Plugin" data-source-line="20" data-uid="ent0004" id="entity_Plugin"><rect fill="#F1F1F1" height="183.8195" rx="2.5" ry="2.5" style="stroke:#181818;stroke-width:0.5;" width="118.2876" x="61.71" y="559.52"/><ellipse cx="96.8949" cy="582.226" fill="#A9DCDF" rx="11" ry="11" style="stroke:#181818;stroke-width:1;"/><path d="M100.2386,587.476 L98.7699,583.726 L94.3324,583.726 L92.8949,587.476 L90.7699,587.476 L95.723,574.7573 L97.473,574.7573 L102.3949,587.476 L100.2386,587.476 Z M96.8949,578.5229 Q96.848,578.3666 96.723,578.0073 Q96.598,577.6479 96.4886,577.2729 Q96.3793,576.8823 96.5824,576.8198 Q96.7386,577.0073 96.6449,577.3666 Q96.5511,577.7104 96.4574,578.0073 Q96.3636,578.2885 96.2855,578.5229 L95.0511,581.8354 L98.1293,581.8354 L96.8949,578.5229 Z " fill="#000000"/><text fill="#000000" font-family="sans-serif" font-size="12" font-style="italic" lengthAdjust="spacing" textLength="45.4323" x="113.3804" y="577.3481">&#171;plugin&#187;</text><text fill="#000000" font-family="sans-serif" font-size="14" font-style="italic" lengthAdjust="spacing" textLength="39.4799" x="116.3567" y="595.83">Plugin</text><line style="stroke:#181818;stroke-width:0.5;" x1="62.71" x2="178.9976" y1="604.932" y2="604.932"/><polygon fill="none" points="72.71,614.966,76.71,618.966,72.71,622.966,68.71,618.966" style="stroke:#B38D22;stroke-width:1;"/><text fill="#000000" font-family="sans-serif" font-size="14" lengthAdjust="spacing" textLength="40.7959" x="81.71" y="623.898">id : str</text><line style="stroke:#181818;stroke-width:1;" x1="62.71" x2="178.9976" y1="631.9999" y2="631.9999"/><ellipse cx="72.71" cy="647.0339" fill="#84BE84" rx="3" ry="3" style="stroke:#038048;stroke-width:1;"/><text fill="#000000" font-family="sans-serif" font-size="14" font-style="italic" lengthAdjust="spacing" textLength="92.2876" x="81.71" y="650.9659">register(solver)</text><line style="stroke:#181818;stroke-width:1;" x1="62.71" x2="178.9976" y1="659.0679" y2="659.0679"/><ellipse cx="72.71" cy="674.1018" fill="#84BE84" rx="3" ry="3" style="stroke:#038048;stroke-width:1;"/><text fill="#000000" font-family="sans-serif" font-size="14" font-style="italic" lengthAdjust="spacing" textLength="62.5938" x="81.71" y="678.0338">decorate()</text><ellipse cx="72.71" cy="693.1697" fill="#84BE84" rx="3" ry="3" style="stroke:#038048;stroke-width:1;"/><text fill="#000000" font-family="sans-serif" font-size="14" font-style="italic" lengthAdjust="spacing" textLength="52.0238" x="81.71" y="697.1017">update()</text><ellipse cx="72.71" cy="712.2377" fill="#84BE84" rx="3" ry="3" style="stroke:#038048;stroke-width:1;"/><text fill="#000000" font-family="sans-serif" font-size="14" font-style="italic" lengthAdjust="spacing" textLength="63.6437" x="81.71" y="716.1696">translate()</text><ellipse cx="72.71" cy="731.3056" fill="#84BE84" rx="3" ry="3" style="stroke:#038048;stroke-width:1;"/><text fill="#000000" font-family="sans-serif" font-size="14" font-style="italic" lengthAdjust="spacing" textLength="57.1478" x="81.71" y="735.2376">finished()</text></g><!--class SolverTask--><g class="entity" data-entity="SolverTask" data-source-line="31" data-uid="ent0005" id="entity_SolverTask"><rect fill="#F1F1F1" height="143.3396" rx="2.5" ry="2.5" style="stroke:#181818;stroke-width:0.5;" width="133.0856" x="267.31" y="337.18"/><ellipse cx="296.1285" cy="353.18" fill="#ADD1B2" rx="11" ry="11" style="stroke:#181818;stroke-width:1;"/><path d="M296.2379,348.7113 Q295.316,348.7113 294.5817,349.0238 Q293.8629,349.3363 293.3629,349.93 Q292.8629,350.5081 292.5817,351.3831 Q292.316,352.2581 292.316,353.3519 Q292.316,354.7894 292.7535,355.8363 Q293.2067,356.8831 294.0504,357.43 Q294.9098,357.9769 296.2223,357.9769 Q297.0035,357.9769 297.691,357.8519 Q298.3942,357.7113 299.3942,357.3988 L299.3942,359.2738 Q298.5348,359.6019 297.7692,359.7269 Q297.0192,359.8519 296.0035,359.8519 Q294.0817,359.8519 292.7692,359.055 Q291.4723,358.2425 290.816,356.7738 Q290.1598,355.2894 290.1598,353.3206 Q290.1598,351.8988 290.5504,350.7269 Q290.9567,349.5394 291.7379,348.6644 Q292.5192,347.7894 293.6598,347.3206 Q294.8004,346.8363 296.2692,346.8363 Q297.2223,346.8363 298.1129,347.0394 Q299.0192,347.2269 299.9567,347.6956 L299.1285,349.4769 Q298.3473,349.1019 297.691,348.9144 Q297.0348,348.7113 296.2379,348.7113 Z " fill="#000000"/><text fill="#000000" font-family="sans-serif" font-size="14" lengthAdjust="spacing" textLength="70.3777" x="313.1993" y="358.612">SolverTask</text><line style="stroke:#181818;stroke-width:0.5;" x1="268.31" x2="399.3956" y1="369.18" y2="369.18"/><ellipse cx="278.31" cy="384.214" fill="none" rx="3" ry="3" style="stroke:#038048;stroke-width:1;"/><text fill="#000000" font-family="sans-serif" font-size="14" lengthAdjust="spacing" textLength="106.7776" x="287.31" y="388.1459">solver : SolverPy</text><ellipse cx="278.31" cy="403.2819" fill="none" rx="3" ry="3" style="stroke:#038048;stroke-width:1;"/><text fill="#000000" font-family="sans-serif" font-size="14" lengthAdjust="spacing" textLength="107.0856" x="287.31" y="407.2139">benchmark : Bid</text><ellipse cx="278.31" cy="422.3498" fill="none" rx="3" ry="3" style="stroke:#038048;stroke-width:1;"/><text fill="#000000" font-family="sans-serif" font-size="14" lengthAdjust="spacing" textLength="84.6437" x="287.31" y="426.2818">problem : str</text><ellipse cx="278.31" cy="441.4177" fill="none" rx="3" ry="3" style="stroke:#038048;stroke-width:1;"/><text fill="#000000" font-family="sans-serif" font-size="14" lengthAdjust="spacing" textLength="85.0357" x="287.31" y="445.3497">strategy : Sid</text><line style="stroke:#181818;stroke-width:1;" x1="268.31" x2="399.3956" y1="453.4517" y2="453.4517"/><ellipse cx="278.31" cy="468.4856" fill="#84BE84" rx="3" ry="3" style="stroke:#038048;stroke-width:1;"/><text fill="#000000" font-family="sans-serif" font-size="14" lengthAdjust="spacing" textLength="83.1457" x="287.31" y="472.4176">run() : Result</text></g><!--class DB--><g class="entity" data-entity="DB" data-source-line="40" data-uid="ent0006" id="entity_DB"><rect fill="#F1F1F1" height="143.3396" rx="2.5" ry="2.5" style="stroke:#181818;stroke-width:0.5;" width="222.7832" x="497.46" y="337.18"/><ellipse cx="594.9417" cy="353.18" fill="#ADD1B2" rx="11" ry="11" style="stroke:#181818;stroke-width:1;"/><path d="M595.051,348.7113 Q594.1292,348.7113 593.3948,349.0238 Q592.676,349.3363 592.176,349.93 Q591.676,350.5081 591.3948,351.3831 Q591.1292,352.2581 591.1292,353.3519 Q591.1292,354.7894 591.5667,355.8363 Q592.0198,356.8831 592.8635,357.43 Q593.7229,357.9769 595.0354,357.9769 Q595.8167,357.9769 596.5042,357.8519 Q597.2073,357.7113 598.2073,357.3988 L598.2073,359.2738 Q597.3479,359.6019 596.5823,359.7269 Q595.8323,359.8519 594.8167,359.8519 Q592.8948,359.8519 591.5823,359.055 Q590.2854,358.2425 589.6292,356.7738 Q588.9729,355.2894 588.9729,353.3206 Q588.9729,351.8988 589.3635,350.7269 Q589.7698,349.5394 590.551,348.6644 Q591.3323,347.7894 592.4729,347.3206 Q593.6135,346.8363 595.0823,346.8363 Q596.0354,346.8363 596.926,347.0394 Q597.8323,347.2269 598.7698,347.6956 L597.9417,349.4769 Q597.1604,349.1019 596.5042,348.9144 Q595.8479,348.7113 595.051,348.7113 Z " fill="#000000"/><text fill="#000000" font-family="sans-serif" font-size="14" lengthAdjust="spacing" textLength="19.3199" x="615.4417" y="358.612">DB</text><line style="stroke:#181818;stroke-width:0.5;" x1="498.46" x2="719.2432" y1="369.18" y2="369.18"/><polygon fill="none" points="508.46,379.214,512.46,383.214,508.46,387.214,504.46,383.214" style="stroke:#B38D22;stroke-width:1;"/><text fill="#000000" font-family="sans-serif" font-size="14" lengthAdjust="spacing" textLength="136.0515" x="517.46" y="388.1459">providers : Providers</text><line style="stroke:#181818;stroke-width:1;" x1="498.46" x2="719.2432" y1="396.2479" y2="396.2479"/><ellipse cx="508.46" cy="411.2819" fill="#84BE84" rx="3" ry="3" style="stroke:#038048;stroke-width:1;"/><text fill="#000000" font-family="sans-serif" font-size="14" lengthAdjust="spacing" textLength="58.4358" x="517.46" y="415.2139">commit()</text><ellipse cx="508.46" cy="430.3498" fill="#84BE84" rx="3" ry="3" style="stroke:#038048;stroke-width:1;"/><text fill="#000000" font-family="sans-serif" font-size="14" lengthAdjust="spacing" textLength="196.7832" x="517.46" y="434.2818">connect(benchmark, strategy)</text><ellipse cx="508.46" cy="449.4177" fill="#84BE84" rx="3" ry="3" style="stroke:#038048;stroke-width:1;"/><text fill="#000000" font-family="sans-serif" font-size="14" lengthAdjust="spacing" textLength="138.6415" x="517.46" y="453.3497">query(tasks) : Results</text><ellipse cx="508.46" cy="468.4856" fill="#84BE84" rx="3" ry="3" style="stroke:#038048;stroke-width:1;"/><text fill="#000000" font-family="sans-serif" font-size="14" lengthAdjust="spacing" textLength="127.9035" x="517.46" y="472.4176">store(tasks, results)</text></g><!--class Builder--><g class="entity" data-entity="Builder" data-source-line="49" data-uid="ent0007" id="entity_Builder"><rect fill="#F1F1F1" height="124.2717" rx="2.5" ry="2.5" style="stroke:#181818;stroke-width:0.5;" width="220.6832" x="789.51" y="346.72"/><ellipse cx="873.4047" cy="362.72" fill="#A9DCDF" rx="11" ry="11" style="stroke:#181818;stroke-width:1;"/><path d="M876.7485,367.97 L875.2797,364.22 L870.8422,364.22 L869.4047,367.97 L867.2797,367.97 L872.2328,355.2513 L873.9828,355.2513 L878.9047,367.97 L876.7485,367.97 Z M873.4047,359.0169 Q873.3578,358.8606 873.2328,358.5013 Q873.1078,358.1419 872.9985,357.7669 Q872.8891,357.3763 873.0922,357.3138 Q873.2485,357.5013 873.1547,357.8606 Q873.061,358.2044 872.9672,358.5013 Q872.8735,358.7825 872.7953,359.0169 L871.561,362.3294 L874.6391,362.3294 L873.4047,359.0169 Z " fill="#000000"/><text fill="#000000" font-family="sans-serif" font-size="14" font-style="italic" lengthAdjust="spacing" textLength="44.3938" x="893.9047" y="368.152">Builder</text><line style="stroke:#181818;stroke-width:0.5;" x1="790.51" x2="1009.1932" y1="378.72" y2="378.72"/><polygon fill="none" points="800.51,388.754,804.51,392.754,800.51,396.754,796.51,392.754" style="stroke:#B38D22;stroke-width:1;"/><text fill="#000000" font-family="sans-serif" font-size="14" lengthAdjust="spacing" textLength="95.4377" x="809.51" y="397.6859">dataname : str</text><ellipse cx="800.51" cy="412.8219" fill="none" rx="3" ry="3" style="stroke:#038048;stroke-width:1;"/><text fill="#000000" font-family="sans-serif" font-size="14" font-style="italic" lengthAdjust="spacing" textLength="116.2975" x="809.51" y="416.7539">strategies : list[Sid]</text><line style="stroke:#181818;stroke-width:1;" x1="790.51" x2="1009.1932" y1="424.8558" y2="424.8558"/><ellipse cx="800.51" cy="439.8898" fill="#84BE84" rx="3" ry="3" style="stroke:#038048;stroke-width:1;"/><text fill="#000000" font-family="sans-serif" font-size="14" font-style="italic" lengthAdjust="spacing" textLength="39.6618" x="809.51" y="443.8218">build()</text><ellipse cx="800.51" cy="458.9577" fill="#84BE84" rx="3" ry="3" style="stroke:#038048;stroke-width:1;"/><text fill="#000000" font-family="sans-serif" font-size="14" font-style="italic" lengthAdjust="spacing" textLength="194.6832" x="809.51" y="462.8897">apply(strategy, model) : list[Sid]</text></g><!--class Trains--><g class="entity" data-entity="Trains" data-source-line="57" data-uid="ent0008" id="entity_Trains"><rect fill="#F1F1F1" height="156.7516" rx="2.5" ry="2.5" style="stroke:#181818;stroke-width:0.5;" width="121.4377" x="874.14" y="573.06"/><ellipse cx="910.7424" cy="595.766" fill="#A9DCDF" rx="11" ry="11" style="stroke:#181818;stroke-width:1;"/><path d="M914.0862,601.016 L912.6174,597.266 L908.1799,597.266 L906.7424,601.016 L904.6174,601.016 L909.5705,588.2973 L911.3205,588.2973 L916.2424,601.016 L914.0862,601.016 Z M910.7424,592.0629 Q910.6955,591.9066 910.5705,591.5473 Q910.4455,591.1879 910.3362,590.8129 Q910.2268,590.4223 910.4299,590.3598 Q910.5862,590.5473 910.4924,590.9066 Q910.3987,591.2504 910.3049,591.5473 Q910.2112,591.8285 910.133,592.0629 L908.8987,595.3754 L911.9768,595.3754 L910.7424,592.0629 Z " fill="#000000"/><text fill="#000000" font-family="sans-serif" font-size="12" font-style="italic" lengthAdjust="spacing" textLength="45.4323" x="927.5429" y="590.8881">&#171;plugin&#187;</text><text fill="#000000" font-family="sans-serif" font-size="14" font-style="italic" lengthAdjust="spacing" textLength="38.3038" x="931.1072" y="609.37">Trains</text><line style="stroke:#181818;stroke-width:0.5;" x1="875.14" x2="994.5777" y1="618.472" y2="618.472"/><polygon fill="none" points="885.14,628.506,889.14,632.506,885.14,636.506,881.14,632.506" style="stroke:#B38D22;stroke-width:1;"/><text fill="#000000" font-family="sans-serif" font-size="14" lengthAdjust="spacing" textLength="95.4377" x="894.14" y="637.438">dataname : str</text><line style="stroke:#181818;stroke-width:1;" x1="875.14" x2="994.5777" y1="645.5399" y2="645.5399"/><polygon fill="#FFFF44" points="885.14,655.5739,889.14,659.5739,885.14,663.5739,881.14,659.5739" style="stroke:#B38D22;stroke-width:1;"/><text fill="#000000" font-family="sans-serif" font-size="14" font-style="italic" lengthAdjust="spacing" textLength="51.0298" x="894.14" y="664.5059">extract()</text><ellipse cx="885.14" cy="679.6418" fill="#84BE84" rx="3" ry="3" style="stroke:#038048;stroke-width:1;"/><text fill="#000000" font-family="sans-serif" font-size="14" lengthAdjust="spacing" textLength="60.9557" x="894.14" y="683.5738">finished()</text><ellipse cx="885.14" cy="698.7097" fill="#84BE84" rx="3" ry="3" style="stroke:#038048;stroke-width:1;"/><text fill="#000000" font-family="sans-serif" font-size="14" font-style="italic" lengthAdjust="spacing" textLength="67.3537" x="894.14" y="702.6417">compress()</text><ellipse cx="885.14" cy="717.7777" fill="#84BE84" rx="3" ry="3" style="stroke:#038048;stroke-width:1;"/><text fill="#000000" font-family="sans-serif" font-size="14" font-style="italic" lengthAdjust="spacing" textLength="48.0198" x="894.14" y="721.7096">merge()</text></g><!--class Provider--><g class="entity" data-entity="Provider" data-source-line="66" data-uid="ent0009" id="entity_Provider"><rect fill="#F1F1F1" height="143.3396" rx="2.5" ry="2.5" style="stroke:#181818;stroke-width:0.5;" width="143.2915" x="671.21" y="579.76"/><ellipse cx="712.7986" cy="595.76" fill="#A9DCDF" rx="11" ry="11" style="stroke:#181818;stroke-width:1;"/><path d="M716.1423,601.01 L714.6736,597.26 L710.2361,597.26 L708.7986,601.01 L706.6736,601.01 L711.6267,588.2913 L713.3767,588.2913 L718.2986,601.01 L716.1423,601.01 Z M712.7986,592.0569 Q712.7517,591.9006 712.6267,591.5413 Q712.5017,591.1819 712.3923,590.8069 Q712.283,590.4163 712.4861,590.3538 Q712.6423,590.5413 712.5486,590.9006 Q712.4548,591.2444 712.3611,591.5413 Q712.2673,591.8225 712.1892,592.0569 L710.9548,595.3694 L714.033,595.3694 L712.7986,592.0569 Z " fill="#000000"/><text fill="#000000" font-family="sans-serif" font-size="14" font-style="italic" lengthAdjust="spacing" textLength="52.2058" x="732.7072" y="601.192">Provider</text><line style="stroke:#181818;stroke-width:0.5;" x1="672.21" x2="813.5015" y1="611.76" y2="611.76"/><polygon fill="none" points="682.21,621.794,686.21,625.794,682.21,629.794,678.21,625.794" style="stroke:#B38D22;stroke-width:1;"/><text fill="#000000" font-family="sans-serif" font-size="14" lengthAdjust="spacing" textLength="107.0856" x="691.21" y="630.7259">benchmark : Bid</text><polygon fill="none" points="682.21,640.8619,686.21,644.8619,682.21,648.8619,678.21,644.8619" style="stroke:#B38D22;stroke-width:1;"/><text fill="#000000" font-family="sans-serif" font-size="14" lengthAdjust="spacing" textLength="85.0357" x="691.21" y="649.7939">strategy : Sid</text><line style="stroke:#181818;stroke-width:1;" x1="672.21" x2="813.5015" y1="657.8958" y2="657.8958"/><ellipse cx="682.21" cy="672.9298" fill="#84BE84" rx="3" ry="3" style="stroke:#038048;stroke-width:1;"/><text fill="#000000" font-family="sans-serif" font-size="14" font-style="italic" lengthAdjust="spacing" textLength="55.1038" x="691.21" y="676.8618">commit()</text><ellipse cx="682.21" cy="691.9977" fill="#84BE84" rx="3" ry="3" style="stroke:#038048;stroke-width:1;"/><text fill="#000000" font-family="sans-serif" font-size="14" font-style="italic" lengthAdjust="spacing" textLength="117.2915" x="691.21" y="695.9297">query(task) : Result</text><ellipse cx="682.21" cy="711.0656" fill="#84BE84" rx="3" ry="3" style="stroke:#038048;stroke-width:1;"/><text fill="#000000" font-family="sans-serif" font-size="14" font-style="italic" lengthAdjust="spacing" textLength="107.0296" x="691.21" y="714.9976">store(task, result)</text></g><g class="entity" data-entity="GMN20" data-source-line="89" data-uid="ent0021" id="entity_GMN20"><path d="M495.71,6 L495.71,33.706 A0,0 0 0 0 495.71,33.706 L604.86,33.706 L608.86,94.29 L612.86,33.706 L722.0062,33.706 A0,0 0 0 0 722.0062,33.706 L722.0062,16 L712.0062,6 L495.71,6 A0,0 0 0 0 495.71,6" fill="#FEFFDD" style="stroke:#181818;stroke-width:0.5;"/><path d="M712.0062,6 L712.0062,16 L722.0062,16 L712.0062,6" fill="#FEFFDD" style="stroke:#181818;stroke-width:0.5;"/><text fill="#000000" font-family="sans-serif" font-size="13" lengthAdjust="spacing" textLength="205.2962" x="501.71" y="24.897">Collection of experiment settings.</text></g><g class="entity" data-entity="GMN23" data-source-line="92" data-uid="ent0024" id="entity_GMN23"><path d="M228.68,628.73 L228.68,674.142 A0,0 0 0 0 228.68,674.142 L403.0282,674.142 A0,0 0 0 0 403.0282,674.142 L403.0282,638.73 L393.0282,628.73 L321.5,628.73 L328.55,480.73 L313.5,628.73 L228.68,628.73 A0,0 0 0 0 228.68,628.73" fill="#FEFFDD" style="stroke:#181818;stroke-width:0.5;"/><path d="M393.0282,628.73 L393.0282,638.73 L403.0282,638.73 L393.0282,628.73" fill="#FEFFDD" style="stroke:#181818;stroke-width:0.5;"/><text fill="#000000" font-family="sans-serif" font-size="13" lengthAdjust="spacing" textLength="141.7391" x="234.68" y="647.627">Represent a solver task</text><text fill="#000000" font-family="sans-serif" font-size="13" lengthAdjust="spacing" textLength="153.3482" x="234.68" y="665.333">with results stored in DB.</text></g><g class="entity" data-entity="GMN26" data-source-line="97" data-uid="ent0027" id="entity_GMN26"><path d="M36.29,162.74 L36.29,208.152 A0,0 0 0 0 36.29,208.152 L116.86,208.152 L120.86,355.98 L124.86,208.152 L205.4251,208.152 A0,0 0 0 0 205.4251,208.152 L205.4251,172.74 L195.4251,162.74 L36.29,162.74 A0,0 0 0 0 36.29,162.74" fill="#FEFFDD" style="stroke:#181818;stroke-width:0.5;"/><path d="M195.4251,162.74 L195.4251,172.74 L205.4251,172.74 L195.4251,162.74" fill="#FEFFDD" style="stroke:#181818;stroke-width:0.5;"/><text fill="#000000" font-family="sans-serif" font-size="13" lengthAdjust="spacing" textLength="144.7551" x="42.29" y="181.637">Generic solver interface</text><text fill="#000000" font-family="sans-serif" font-size="13" lengthAdjust="spacing" textLength="122.7591" x="42.29" y="199.343">compatible with DB.</text></g><g class="entity" data-entity="GMN29" data-source-line="102" data-uid="ent0030" id="entity_GMN29"><path d="M437.69,628.73 L437.69,674.142 A0,0 0 0 0 437.69,674.142 L636.0231,674.142 A0,0 0 0 0 636.0231,674.142 L636.0231,638.73 L626.0231,628.73 L547.43,628.73 L587.64,480.73 L539.43,628.73 L437.69,628.73 A0,0 0 0 0 437.69,628.73" fill="#FEFFDD" style="stroke:#181818;stroke-width:0.5;"/><path d="M626.0231,628.73 L626.0231,638.73 L636.0231,638.73 L626.0231,628.73" fill="#FEFFDD" style="stroke:#181818;stroke-width:0.5;"/><text fill="#000000" font-family="sans-serif" font-size="13" lengthAdjust="spacing" textLength="146.2631" x="443.69" y="647.627">Persistent DB of results.</text><text fill="#000000" font-family="sans-serif" font-size="13" lengthAdjust="spacing" textLength="177.3331" x="443.69" y="665.333">Stores results of solver tasks.</text></g><g class="entity" data-entity="GMN32" data-source-line="107" data-uid="ent0033" id="entity_GMN32"><path d="M844.28,804.34 L844.28,867.458 A0,0 0 0 0 844.28,867.458 L1049.4252,867.458 A0,0 0 0 0 1049.4252,867.458 L1049.4252,814.34 L1039.4252,804.34 L948.82,804.34 L939.96,730.08 L940.82,804.34 L844.28,804.34 A0,0 0 0 0 844.28,804.34" fill="#FEFFDD" style="stroke:#181818;stroke-width:0.5;"/><path d="M1039.4252,804.34 L1039.4252,814.34 L1049.4252,814.34 L1039.4252,804.34" fill="#FEFFDD" style="stroke:#181818;stroke-width:0.5;"/><text fill="#000000" font-family="sans-serif" font-size="13" lengthAdjust="spacing" textLength="174.0442" x="850.28" y="823.237">Extraction and management</text><text fill="#000000" font-family="sans-serif" font-size="13" lengthAdjust="spacing" textLength="184.1452" x="850.28" y="840.943">of training data. Implemented</text><text fill="#000000" font-family="sans-serif" font-size="13" lengthAdjust="spacing" textLength="109.9541" x="850.28" y="858.649">as a solver plugin.</text></g><g class="entity" data-entity="GMN35" data-source-line="113" data-uid="ent0036" id="entity_GMN35"><path d="M830.17,162.74 L830.17,208.152 A0,0 0 0 0 830.17,208.152 L895.86,208.152 L899.86,346.27 L903.86,208.152 L969.5481,208.152 A0,0 0 0 0 969.5481,208.152 L969.5481,172.74 L959.5481,162.74 L830.17,162.74 A0,0 0 0 0 830.17,162.74" fill="#FEFFDD" style="stroke:#181818;stroke-width:0.5;"/><path d="M959.5481,162.74 L959.5481,172.74 L969.5481,172.74 L959.5481,162.74" fill="#FEFFDD" style="stroke:#181818;stroke-width:0.5;"/><text fill="#000000" font-family="sans-serif" font-size="13" lengthAdjust="spacing" textLength="111.8521" x="836.17" y="181.637">Model builder and</text><text fill="#000000" font-family="sans-serif" font-size="13" lengthAdjust="spacing" textLength="118.3781" x="836.17" y="199.343">strategy generator.</text></g><g class="entity" data-entity="GMN38" data-source-line="118" data-uid="ent0039" id="entity_GMN38"><path d="M8.28,804.34 L8.28,867.458 A0,0 0 0 0 8.28,867.458 L233.4322,867.458 A0,0 0 0 0 233.4322,867.458 L233.4322,814.34 L223.4322,804.34 L124.86,804.34 L120.86,743.67 L116.86,804.34 L8.28,804.34 A0,0 0 0 0 8.28,804.34" fill="#FEFFDD" style="stroke:#181818;stroke-width:0.5;"/><path d="M223.4322,804.34 L223.4322,814.34 L233.4322,814.34 L223.4322,804.34" fill="#FEFFDD" style="stroke:#181818;stroke-width:0.5;"/><text fill="#000000" font-family="sans-serif" font-size="13" lengthAdjust="spacing" textLength="199.6022" x="14.28" y="823.237">Plugins extends the functionality</text><text fill="#000000" font-family="sans-serif" font-size="13" lengthAdjust="spacing" textLength="76.7001" x="14.28" y="840.943">of solvers by</text><text fill="#000000" font-family="sans-serif" font-size="13" font-style="italic" lengthAdjust="spacing" textLength="124.0721" x="94.3601" y="840.943">command decoration</text><text fill="#000000" font-family="sans-serif" font-size="13" lengthAdjust="spacing" textLength="23.322" x="14.28" y="858.649">and</text><text fill="#000000" font-family="sans-serif" font-size="13" font-style="italic" lengthAdjust="spacing" textLength="161.7982" x="40.982" y="858.649">processing of solver outputs</text><text fill="#000000" font-family="sans-serif" font-size="13" lengthAdjust="spacing" textLength="3.484" x="202.7802" y="858.649">.</text></g><g class="entity" data-entity="GMN41" data-source-line="124" data-uid="ent0042" id="entity_GMN41"><path d="M650.42,813.19 L650.42,858.602 A0,0 0 0 0 650.42,858.602 L809.2851,858.602 A0,0 0 0 0 809.2851,858.602 L809.2851,823.19 L799.2851,813.19 L735.43,813.19 L737.79,723.5 L727.43,813.19 L650.42,813.19 A0,0 0 0 0 650.42,813.19" fill="#FEFFDD" style="stroke:#181818;stroke-width:0.5;"/><path d="M799.2851,813.19 L799.2851,823.19 L809.2851,823.19 L799.2851,813.19" fill="#FEFFDD" style="stroke:#181818;stroke-width:0.5;"/><text fill="#000000" font-family="sans-serif" font-size="13" lengthAdjust="spacing" textLength="125.7361" x="656.42" y="832.087">Providers connect to</text><text fill="#000000" font-family="sans-serif" font-size="13" lengthAdjust="spacing" textLength="137.8651" x="656.42" y="849.793">different data sources.</text></g><!--link Setup to SolverPy--><g class="link" data-entity-1="Setup" data-entity-2="SolverPy" data-source-line="78" data-uid="lnk10" id="link_Setup_SolverPy"><path codeLine="78" d="M524.71,218.91 C451.25,247.93 342.25,292.62 249.86,337.18 C237.78,343.01 235.8399,343.8037 223.5199,350.3137" fill="none" id="Setup-to-SolverPy" style="stroke:#181818;stroke-width:1;"/><polygon fill="none" points="212.91,355.92,220.0837,356.6534,223.5199,350.3137,216.3461,349.5802,212.91,355.92" style="stroke:#181818;stroke-width:1;"/><text fill="#000000" font-family="sans-serif" font-size="13" lengthAdjust="spacing" textLength="7.436" x="217.8391" y="344.6095">1</text></g><!--link Setup to DB--><g class="link" data-entity-1="Setup" data-entity-2="DB" data-source-line="79" data-uid="lnk11" id="link_Setup_DB"><path codeLine="79" d="M608.86,276.5 C608.86,296.61 608.86,305.67 608.86,324.88" fill="none" id="Setup-to-DB" style="stroke:#181818;stroke-width:1;"/><polygon fill="none" points="608.86,336.88,612.86,330.88,608.86,324.88,604.86,330.88,608.86,336.88" style="stroke:#181818;stroke-width:1;"/><text fill="#000000" font-family="sans-serif" font-size="13" lengthAdjust="spacing" textLength="7.436" x="601.5224" y="325.515">1</text></g><!--link Setup to Builder--><g class="link" data-entity-1="Setup" data-entity-2="Builder" data-source-line="80" data-uid="lnk12" id="link_Setup_Builder"><path codeLine="80" d="M693.03,250.49 C732.64,280.63 770.1293,309.1547 809.3293,338.9747" fill="none" id="Setup-to-Builder" style="stroke:#181818;stroke-width:1;"/><polygon fill="none" points="818.88,346.24,816.5264,339.4238,809.3293,338.9747,811.6829,345.7909,818.88,346.24" style="stroke:#181818;stroke-width:1;"/><text fill="#000000" font-family="sans-serif" font-size="13" lengthAdjust="spacing" textLength="7.436" x="802.1382" y="334.9551">1</text></g><!--link Builder to Trains--><g class="link" data-entity-1="Builder" data-entity-2="Trains" data-source-line="81" data-uid="lnk13" id="link_Builder_Trains"><path codeLine="81" d="M908.78,471.18 C913.27,502.09 917.0416,528.0151 921.8316,560.9251" fill="none" id="Builder-to-Trains" style="stroke:#181818;stroke-width:1;"/><polygon fill="none" points="923.56,572.8,926.6541,566.2864,921.8316,560.9251,918.7375,567.4387,923.56,572.8" style="stroke:#181818;stroke-width:1;"/><text fill="#000000" font-family="sans-serif" font-size="13" lengthAdjust="spacing" textLength="27.82" x="917.31" y="525.417">uses</text><text fill="#000000" font-family="sans-serif" font-size="13" lengthAdjust="spacing" textLength="7.436" x="915.1247" y="561.1543">1</text></g><!--link SolverPy to Plugin--><g class="link" data-entity-1="SolverPy" data-entity-2="Plugin" data-source-line="82" data-uid="lnk14" id="link_SolverPy_Plugin"><path codeLine="82" d="M120.86,461.76 C120.86,490.21 120.86,514.31 120.86,547.3" fill="none" id="SolverPy-to-Plugin" style="stroke:#181818;stroke-width:1;"/><polygon fill="none" points="120.86,559.3,124.86,553.3,120.86,547.3,116.86,553.3,120.86,559.3" style="stroke:#181818;stroke-width:1;"/><text fill="#000000" font-family="sans-serif" font-size="13" lengthAdjust="spacing" textLength="53.898" x="121.86" y="525.417">registers</text><text fill="#000000" font-family="sans-serif" font-size="13" lengthAdjust="spacing" textLength="7.163" x="113.5668" y="547.5795">*</text></g><!--link DB to Provider--><g class="link" data-entity-1="DB" data-entity-2="Provider" data-source-line="83" data-uid="lnk15" id="link_DB_Provider"><path codeLine="83" d="M648.34,480.73 C665.71,511.92 680.2186,537.9877 697.5886,569.1577" fill="none" id="DB-to-Provider" style="stroke:#181818;stroke-width:1;"/><polygon fill="none" points="703.43,579.64,704.0034,572.4517,697.5886,569.1577,697.0152,576.346,703.43,579.64" style="stroke:#181818;stroke-width:1;"/><text fill="#000000" font-family="sans-serif" font-size="13" lengthAdjust="spacing" textLength="54.6651" x="672.84" y="525.417">connects</text><text fill="#000000" font-family="sans-serif" font-size="13" lengthAdjust="spacing" textLength="7.163" x="691.7439" y="567.7939">*</text></g><!--reverse link SolverTask to DB--><g class="link" data-entity-1="SolverTask" data-entity-2="DB" data-source-line="85" data-uid="lnk17" id="link_SolverTask_DB"><path codeLine="85" d="M412.78,408.85 C441.71,408.85 464.37,408.85 497.02,408.85" fill="none" id="SolverTask-backto-DB" style="stroke:#181818;stroke-width:1;stroke-dasharray:7,7;"/><polygon fill="none" points="400.78,408.85,406.78,412.85,412.78,408.85,406.78,404.85,400.78,408.85" style="stroke:#181818;stroke-width:1;"/><text fill="#000000" font-family="sans-serif" font-size="13" lengthAdjust="spacing" textLength="37.713" x="431.95" y="401.747">stores</text><text fill="#000000" font-family="sans-serif" font-size="13" lengthAdjust="spacing" textLength="7.163" x="408.4919" y="404.856">*</text></g><!--reverse link SolverPy to SolverTask--><g class="link" data-entity-1="SolverPy" data-entity-2="SolverTask" data-source-line="86" data-uid="lnk19" id="link_SolverPy_SolverTask"><path codeLine="86" d="M245.18,408.85 C256.45,408.85 255.73,408.85 267,408.85" fill="none" id="SolverPy-backto-SolverTask" style="stroke:#181818;stroke-width:1;"/><polygon fill="none" points="233.18,408.85,239.18,412.85,245.18,408.85,239.18,404.85,233.18,408.85" style="stroke:#181818;stroke-width:1;"/><text fill="#000000" font-family="sans-serif" font-size="13" lengthAdjust="spacing" textLength="7.436" x="240.6141" y="405.225">1</text></g><!--SRC=[VLPDRnen4BtxLup88KiJg7f5Y0DDLVNGAafwgtemkmQiUEsjxKs2elptZZ_NX0LEgtdZyPit7uPAgIorN4buPBRlu8q0_cx0M4qjst5cO0626_ldaJT_8Q8R9kjzI_LJHjS5sb1B9MqPOXWc1LJYcMaqFVgF-qDotg3jRfq2zrmqtcqTlhnzDekme3rUN4t9Eo5qupZM5cf1ZSbXOmPNq8b-nwKZU1- -ZaEzfVFlWLhLQRKHhBrDgH-cUFI1cLxOCeMcqjxcq8rIOeHAk0-Moq1XjSgSU5De4gaKH6v0e-J6Cbq5kQPd7HjMAqUpcfvYVTUSGV136d46t7B9pHuJzFAMglwcvYdaSAQEHKUuql4c6AEaGywvhmukG70BsM7glQmAoJE5ktMKBrHLgsUEVU7hchuJ78NouMhLjjp6FAD5IbRRAbCjIZru_UkPFbGMCpO36pFWnYhD0duBeHNCM3_6_itShyR6uaC5BWrTaTtH6JynESqZY7QTE5GfnrjeLSF4j0mzmlktfcvgJfhtV0g5xCNrLy1U_MTPWgB5O8Gmrgn3ISqPk6LwnqQ7FtL2oNMa8mDmse9dapXjeoDmw9KFk-AqiAbfKi_uB0YvnbF2xr-pvvqXOGdFPWecNoR3JalsHht8YE5OVF1E6pDrNhB7YYwWDmnlI34z_6cIjjKYxnv3C7P6axABD3y6IJi7pNTxErlbQz4s5snhv-5WiJaMC76AU14CVan80SxScPDyyOvh-AKi4iO7Ye5L7QXjVACMy5K9WLJSiuLMzjenpLicBHXcBPSxCoVXt4PPgrf_D5z97fZhCkTEqpfpfG7omkq-pNIWsm1ASxUU4oORS179CP-q0xypYHJg58vBr75BQmR4zJGM6FSW-F0ZmGQI-0xUOm5S6P0TAegso6TE7eD-YHz21Nbp8Mfe0F8jpACJZQ9hYvEyOrurWaxMEQ5qViRdyAFjX0TPGwWPX0fRuPmUgHT-kasJ7tDt6ybJjtDIKSpb0kFGaoG-t6wJeAi1ksUmnNy0BWSgk3sGB8A1pG6MVENcrTqNtqTqN7xcA-9CYEBhKUD-SMaEygdUThqrpkyIfJW89BywQI0mUI0DtswPTc8w_J1qh_6c8jv_]--></g></svg>