<svg xmlns="http://www.w3.org/2000/svg" xmlns:xlink="http://www.w3.org/1999/xlink" contentStyleType="text/css" data-diagram-type="CLASS" height="450px" preserveAspectRatio="none" style="width:693px;height:450px;background:#FFFFFF;" version="1.1" viewBox="0 0 693 450" width="693px" zoomAndPan="magnify"><defs/><g><!--cluster solverpy--><g class="cluster" data-entity="solverpy" data-source-line="1" data-uid="ent0003" id="cluster_solverpy"><path d="M8.5,6.602 L68.3278,6.602 A3.75,3.75 0 0 1 70.8278,9.102 L77.8278,31.6699 L683.5,31.6699 A2.5,2.5 0 0 1 686,34.1699 L686,441.442 A2.5,2.5 0 0 1 683.5,443.942 L8.5,443.942 A2.5,2.5 0 0 1 6,441.442 L6,9.102 A2.5,2.5 0 0 1 8.5,6.602" fill="none" style="stroke:#000000;stroke-width:1.5;"/><line style="stroke:#000000;stroke-width:1.5;" x1="6" x2="77.8278" y1="31.6699" y2="31.6699"/><text fill="#000000" font-family="sans-serif" font-size="14" font-weight="bold" lengthAdjust="spacing" textLength="58.8278" x="10" y="23.5679">solverpy</text></g><!--cluster setups--><g class="cluster" data-entity="setups" data-source-line="1" data-uid="ent0004" id="cluster_setups"><path d="M32.5,98.602 L79.7488,98.602 A3.75,3.75 0 0 1 82.2488,101.102 L89.2488,123.6699 L333.5,123.6699 A2.5,2.5 0 0 1 336,126.1699 L336,417.442 A2.5,2.5 0 0 1 333.5,419.942 L32.5,419.942 A2.5,2.5 0 0 1 30,417.442 L30,101.102 A2.5,2.5 0 0 1 32.5,98.602" fill="none" style="stroke:#000000;stroke-width:1.5;"/><line style="stroke:#000000;stroke-width:1.5;" x1="30" x2="89.2488" y1="123.6699" y2="123.6699"/><text fill="#000000" font-family="sans-serif" font-size="14" font-weight="bold" lengthAdjust="spacing" textLength="46.2488" x="34" y="115.5679">setups</text></g><!--cluster benchmark--><g class="cluster" data-entity="benchmark" data-source-line="13" data-uid="ent0009" id="cluster_benchmark"><path d="M362.5,52.602 L442.1692,52.602 A3.75,3.75 0 0 1 444.6692,55.102 L451.6692,77.6699 L659.5,77.6699 A2.5,2.5 0 0 1 662,80.1699 L662,317.442 A2.5,2.5 0 0 1 659.5,319.942 L362.5,319.942 A2.5,2.5 0 0 1 360,317.442 L360,55.102 A2.5,2.5 0 0 1 362.5,52.602" fill="none" style="stroke:#000000;stroke-width:1.5;"/><line style="stroke:#000000;stroke-width:1.5;" x1="360" x2="451.6692" y1="77.6699" y2="77.6699"/><text fill="#000000" font-family="sans-serif" font-size="14" font-weight="bold" lengthAdjust="spacing" textLength="78.6692" x="364" y="69.5679">benchmark</text></g><!--cluster db--><g class="cluster" data-entity="db" data-source-line="13" data-uid="ent0010" id="cluster_db"><path d="M386.5,98.602 L405.5949,98.602 A3.75,3.75 0 0 1 408.0949,101.102 L415.0949,123.6699 L635.5,123.6699 A2.5,2.5 0 0 1 638,126.1699 L638,293.442 A2.5,2.5 0 0 1 635.5,295.942 L386.5,295.942 A2.5,2.5 0 0 1 384,293.442 L384,101.102 A2.5,2.5 0 0 1 386.5,98.602" fill="none" style="stroke:#000000;stroke-width:1.5;"/><line style="stroke:#000000;stroke-width:1.5;" x1="384" x2="415.0949" y1="123.6699" y2="123.6699"/><text fill="#000000" font-family="sans-serif" font-size="14" font-weight="bold" lengthAdjust="spacing" textLength="18.0949" x="388" y="115.5679">db</text></g><!--class Setup--><g class="entity" data-entity="Setup" data-source-line="1" data-uid="ent0002" id="entity_Setup"><rect fill="#F1F1F1" height="143.3396" rx="2.5" ry="2.5" style="stroke:#181818;stroke-width:0.5;" width="126.3656" x="163.82" y="136.602"/><ellipse cx="204.2305" cy="152.602" fill="#7E57C2" rx="11" ry="11" style="stroke:#181818;stroke-width:1;"/><path d="M210.8867,152.6489 Q210.8867,154.7582 210.0899,156.2114 Q209.293,157.6489 207.8086,158.3832 Q206.3399,159.102 204.2774,159.102 L200.6367,159.102 L200.6367,146.4301 L204.6367,146.4301 Q206.5274,146.4301 207.9336,147.1489 Q209.3399,147.852 210.1055,149.2426 Q210.8867,150.6332 210.8867,152.6489 Z M208.7461,152.6957 Q208.7461,151.1489 208.2461,150.1801 Q207.7461,149.2114 206.7774,148.7426 Q205.8086,148.2739 204.418,148.2739 L202.6836,148.2739 L202.6836,157.2582 L204.0742,157.2582 Q206.4336,157.2582 207.5899,156.1332 Q208.7461,154.9926 208.7461,152.6957 Z " fill="#000000"/><text fill="#000000" font-family="sans-serif" font-size="14" lengthAdjust="spacing" textLength="37.8979" x="223.8773" y="158.034">Setup</text><line style="stroke:#181818;stroke-width:0.5;" x1="164.82" x2="289.1856" y1="168.602" y2="168.602"/><ellipse cx="174.82" cy="183.6359" fill="none" rx="3" ry="3" style="stroke:#038048;stroke-width:1;"/><text fill="#000000" font-family="sans-serif" font-size="14" lengthAdjust="spacing" textLength="100.3656" x="183.82" y="187.5679">bidlist : list[Bid]</text><ellipse cx="174.82" cy="202.7039" fill="none" rx="3" ry="3" style="stroke:#038048;stroke-width:1;"/><text fill="#000000" font-family="sans-serif" font-size="14" lengthAdjust="spacing" textLength="97.0477" x="183.82" y="206.6358">sidlist : list[Sid]</text><ellipse cx="174.82" cy="221.7718" fill="none" rx="3" ry="3" style="stroke:#038048;stroke-width:1;"/><text fill="#000000" font-family="sans-serif" font-size="14" lengthAdjust="spacing" textLength="63.9238" x="183.82" y="225.7038">cores : int</text><ellipse cx="174.82" cy="240.8397" fill="none" rx="3" ry="3" style="stroke:#038048;stroke-width:1;"/><text fill="#000000" font-family="sans-serif" font-size="14" lengthAdjust="spacing" textLength="57.5538" x="183.82" y="244.7717">limit : str</text><line style="stroke:#181818;stroke-width:1;" x1="164.82" x2="289.1856" y1="252.8736" y2="252.8736"/><ellipse cx="174.82" cy="267.9076" fill="#84BE84" rx="3" ry="3" style="stroke:#038048;stroke-width:1;"/><text fill="#000000" font-family="sans-serif" font-size="14" lengthAdjust="spacing" textLength="52.5418" x="183.82" y="271.8396">launch()</text></g><!--entity evaluation--><g class="entity" data-entity="evaluation" data-source-line="9" data-uid="ent0005" id="entity_evaluation"><ellipse cx="88" cy="371.942" fill="#F1F1F1" rx="8" ry="8" style="stroke:#181818;stroke-width:0.5;"/><text fill="#000000" font-family="sans-serif" font-size="14" lengthAdjust="spacing" textLength="68.7677" x="53.6161" y="403.9079">evaluation</text></g><!--entity eprover--><g class="entity" data-entity="eprover" data-source-line="10" data-uid="ent0006" id="entity_eprover"><ellipse cx="198" cy="371.942" fill="#F1F1F1" rx="8" ry="8" style="stroke:#181818;stroke-width:0.5;"/><text fill="#000000" font-family="sans-serif" font-size="14" lengthAdjust="spacing" textLength="51.5478" x="172.2261" y="403.9079">eprover</text></g><!--entity cvc5--><g class="entity" data-entity="cvc5" data-source-line="11" data-uid="ent0007" id="entity_cvc5"><ellipse cx="293" cy="371.942" fill="#F1F1F1" rx="8" ry="8" style="stroke:#181818;stroke-width:0.5;"/><text fill="#000000" font-family="sans-serif" font-size="14" lengthAdjust="spacing" textLength="28.5599" x="278.7201" y="403.9079">cvc5</text></g><!--class DB--><g class="entity" data-entity="DB" data-source-line="13" data-uid="ent0008" id="entity_DB"><rect fill="#F1F1F1" height="143.3396" rx="2.5" ry="2.5" style="stroke:#181818;stroke-width:0.5;" width="222.7832" x="399.61" y="136.602"/><ellipse cx="497.0917" cy="152.602" fill="#ADD1B2" rx="11" ry="11" style="stroke:#181818;stroke-width:1;"/><path d="M497.201,148.1332 Q496.2792,148.1332 495.5448,148.4457 Q494.826,148.7582 494.326,149.352 Q493.826,149.9301 493.5448,150.8051 Q493.2792,151.6801 493.2792,152.7739 Q493.2792,154.2114 493.7167,155.2582 Q494.1698,156.3051 495.0135,156.852 Q495.8729,157.3989 497.1854,157.3989 Q497.9667,157.3989 498.6542,157.2739 Q499.3573,157.1332 500.3573,156.8207 L500.3573,158.6957 Q499.4979,159.0239 498.7323,159.1489 Q497.9823,159.2739 496.9667,159.2739 Q495.0448,159.2739 493.7323,158.477 Q492.4354,157.6645 491.7792,156.1957 Q491.1229,154.7114 491.1229,152.7426 Q491.1229,151.3207 491.5135,150.1489 Q491.9198,148.9614 492.701,148.0864 Q493.4823,147.2114 494.6229,146.7426 Q495.7635,146.2582 497.2323,146.2582 Q498.1854,146.2582 499.076,146.4614 Q499.9823,146.6489 500.9198,147.1176 L500.0917,148.8989 Q499.3104,148.5239 498.6542,148.3364 Q497.9979,148.1332 497.201,148.1332 Z " fill="#000000"/><text fill="#000000" font-family="sans-serif" font-size="14" lengthAdjust="spacing" textLength="19.3199" x="517.5917" y="158.034">DB</text><line style="stroke:#181818;stroke-width:0.5;" x1="400.61" x2="621.3932" y1="168.602" y2="168.602"/><polygon fill="none" points="410.61,178.6359,414.61,182.6359,410.61,186.6359,406.61,182.6359" style="stroke:#B38D22;stroke-width:1;"/><text fill="#000000" font-family="sans-serif" font-size="14" lengthAdjust="spacing" textLength="136.0515" x="419.61" y="187.5679">providers : Providers</text><line style="stroke:#181818;stroke-width:1;" x1="400.61" x2="621.3932" y1="195.6699" y2="195.6699"/><ellipse cx="410.61" cy="210.7039" fill="#84BE84" rx="3" ry="3" style="stroke:#038048;stroke-width:1;"/><text fill="#000000" font-family="sans-serif" font-size="14" lengthAdjust="spacing" textLength="58.4358" x="419.61" y="214.6358">commit()</text><ellipse cx="410.61" cy="229.7718" fill="#84BE84" rx="3" ry="3" style="stroke:#038048;stroke-width:1;"/><text fill="#000000" font-family="sans-serif" font-size="14" lengthAdjust="spacing" textLength="196.7832" x="419.61" y="233.7038">connect(benchmark, strategy)</text><ellipse cx="410.61" cy="248.8397" fill="#84BE84" rx="3" ry="3" style="stroke:#038048;stroke-width:1;"/><text fill="#000000" font-family="sans-serif" font-size="14" lengthAdjust="spacing" textLength="138.6415" x="419.61" y="252.7717">query(tasks) : Results</text><ellipse cx="410.61" cy="267.9076" fill="#84BE84" rx="3" ry="3" style="stroke:#038048;stroke-width:1;"/><text fill="#000000" font-family="sans-serif" font-size="14" lengthAdjust="spacing" textLength="127.9035" x="419.61" y="271.8396">store(tasks, results)</text></g><!--reverse link Setup to evaluation--><g class="link" data-entity-1="Setup" data-entity-2="evaluation" data-source-line="23" data-uid="lnk11" id="link_Setup_evaluation"><path codeLine="23" d="M162.1187,284.7319 C133.8187,317.6519 107.51,348.252 94.53,363.342" fill="none" id="Setup-backto-evaluation" style="stroke:#181818;stroke-width:1;"/><polygon fill="#181818" points="166.03,280.182,157.1297,284.3992,162.7705,283.9735,163.1962,289.6144,166.03,280.182" style="stroke:#181818;stroke-width:1;"/></g><!--reverse link Setup to eprover--><g class="link" data-entity-1="Setup" data-entity-2="eprover" data-source-line="24" data-uid="lnk12" id="link_Setup_eprover"><path codeLine="24" d="M213.2215,286.0879 C207.3215,319.0079 202.07,348.252 199.36,363.342" fill="none" id="Setup-backto-eprover" style="stroke:#181818;stroke-width:1;"/><polygon fill="#181818" points="214.28,280.182,208.755,288.3352,213.3979,285.1036,216.6296,289.7465,214.28,280.182" style="stroke:#181818;stroke-width:1;"/></g><!--reverse link Setup to cvc5--><g class="link" data-entity-1="Setup" data-entity-2="cvc5" data-source-line="25" data-uid="lnk13" id="link_Setup_cvc5"><path codeLine="25" d="M258.2179,285.7369 C271.6579,318.6569 283.74,348.252 289.9,363.342" fill="none" id="Setup-backto-cvc5" style="stroke:#181818;stroke-width:1;"/><polygon fill="#181818" points="255.95,280.182,255.6485,290.0262,257.8399,284.8111,263.055,287.0024,255.95,280.182" style="stroke:#181818;stroke-width:1;"/></g><!--link Setup to DB--><g class="link" data-entity-1="Setup" data-entity-2="DB" data-source-line="27" data-uid="lnk14" id="link_Setup_DB"><path codeLine="27" d="M290.51,208.272 C326.83,208.272 351.15,208.272 387.46,208.272" fill="none" id="Setup-to-DB" style="stroke:#181818;stroke-width:1;"/><polygon fill="none" points="399.46,208.272,393.46,204.272,387.46,208.272,393.46,212.272,399.46,208.272" style="stroke:#181818;stroke-width:1;"/><text fill="#000000" font-family="sans-serif" font-size="13" lengthAdjust="spacing" textLength="7.436" x="384.0276" y="204.5707">1</text></g><!--SRC=[bP6nJiCm48PtFyMfB8ce8p6m8AQA1q1qH0oESsgjEaxmNI95gE-EdJWq5QM01zkvxp_7_sy0W4gnqbOH0JMsHzyE1I5tBHNRkC2722AuXT9KrX330yJbTMEgDqY8pj5sWNJZaG8mZbF5cjf4AR4VArBEG7LExxDy_3oEipPUM_nsCUoLxHIRnbrLjRu9XMiItUjxCGdE4oWnNALM_b1KPV6qII64SGFnL5EXZwwUv_sCavbalGvEavzKSGurPr-dhsCAYd4tB5Jl7VeXOqK7oiC_Nf0wotJYn27JYQ_1JpGNHp4PkVo8ZrB-bk8_6XV1_hthbFNb7kdDRi-oWTNTwiU74E8J]--></g></svg>