<svg xmlns="http://www.w3.org/2000/svg" xmlns:xlink="http://www.w3.org/1999/xlink" contentStyleType="text/css" data-diagram-type="CLASS" height="1691px" preserveAspectRatio="none" style="width:675px;height:1691px;" version="1.1" viewBox="0 0 675 1691" width="675px" zoomAndPan="magnify"><defs/><g><!--cluster solverpy--><g class="cluster" data-entity="solverpy" data-source-line="5" data-uid="ent0003" id="cluster_solverpy"><path d="M8.5,6.602 L68.3278,6.602 A3.75,3.75 0 0 1 70.8278,9.102 L77.8278,31.6699 L665.5,31.6699 A2.5,2.5 0 0 1 668,34.1699 L668,1681.752 A2.5,2.5 0 0 1 665.5,1684.252 L8.5,1684.252 A2.5,2.5 0 0 1 6,1681.752 L6,9.102 A2.5,2.5 0 0 1 8.5,6.602" fill="none" style="stroke:#000000;stroke-width:1.5;"/><line style="stroke:#000000;stroke-width:1.5;" x1="6" x2="77.8278" y1="31.6699" y2="31.6699"/><text fill="#000000" font-family="sans-serif" font-size="14" font-weight="bold" lengthAdjust="spacing" textLength="58.8278" x="10" y="23.5679">solverpy</text></g><!--cluster builder--><g class="cluster" data-entity="builder" data-source-line="5" data-uid="ent0004" id="cluster_builder"><path d="M32.5,52.602 L83.3363,52.602 A3.75,3.75 0 0 1 85.8363,55.102 L92.8363,77.6699 L395.5,77.6699 A2.5,2.5 0 0 1 398,80.1699 L398,1060.942 A2.5,2.5 0 0 1 395.5,1063.442 L32.5,1063.442 A2.5,2.5 0 0 1 30,1060.942 L30,55.102 A2.5,2.5 0 0 1 32.5,52.602" fill="none" style="stroke:#000000;stroke-width:1.5;"/><line style="stroke:#000000;stroke-width:1.5;" x1="30" x2="92.8363" y1="77.6699" y2="77.6699"/><text fill="#000000" font-family="sans-serif" font-size="14" font-weight="bold" lengthAdjust="spacing" textLength="49.8363" x="34" y="69.5679">builder</text></g><!--cluster autotune--><g class="cluster" data-entity="autotune" data-source-line="5" data-uid="ent0005" id="cluster_autotune"><path d="M56.5,98.602 L121.2838,98.602 A3.75,3.75 0 0 1 123.7838,101.102 L130.7838,123.6699 L257.5,123.6699 A2.5,2.5 0 0 1 260,126.1699 L260,1036.942 A2.5,2.5 0 0 1 257.5,1039.442 L56.5,1039.442 A2.5,2.5 0 0 1 54,1036.942 L54,101.102 A2.5,2.5 0 0 1 56.5,98.602" fill="none" style="stroke:#000000;stroke-width:1.5;"/><line style="stroke:#000000;stroke-width:1.5;" x1="54" x2="130.7838" y1="123.6699" y2="123.6699"/><text fill="#000000" font-family="sans-serif" font-size="14" font-weight="bold" lengthAdjust="spacing" textLength="63.7838" x="58" y="115.5679">autotune</text></g><!--cluster benchmark--><g class="cluster" data-entity="benchmark" data-source-line="13" data-uid="ent0007" id="cluster_benchmark"><path d="M253.5,1087.442 L333.1692,1087.442 A3.75,3.75 0 0 1 335.6692,1089.942 L342.6692,1112.5099 L444.5,1112.5099 A2.5,2.5 0 0 1 447,1115.0099 L447,1225.072 A2.5,2.5 0 0 1 444.5,1227.572 L253.5,1227.572 A2.5,2.5 0 0 1 251,1225.072 L251,1089.942 A2.5,2.5 0 0 1 253.5,1087.442" fill="none" style="stroke:#000000;stroke-width:1.5;"/><line style="stroke:#000000;stroke-width:1.5;" x1="251" x2="342.6692" y1="1112.5099" y2="1112.5099"/><text fill="#000000" font-family="sans-serif" font-size="14" font-weight="bold" lengthAdjust="spacing" textLength="78.6692" x="255" y="1104.4079">benchmark</text></g><!--cluster setups--><g class="cluster" data-entity="setups" data-source-line="19" data-uid="ent0009" id="cluster_setups"><path d="M424.5,861.162 L471.7488,861.162 A3.75,3.75 0 0 1 474.2488,863.662 L481.2488,886.2299 L641.5,886.2299 A2.5,2.5 0 0 1 644,888.7299 L644,1017.872 A2.5,2.5 0 0 1 641.5,1020.372 L424.5,1020.372 A2.5,2.5 0 0 1 422,1017.872 L422,863.662 A2.5,2.5 0 0 1 424.5,861.162" fill="none" style="stroke:#000000;stroke-width:1.5;"/><line style="stroke:#000000;stroke-width:1.5;" x1="422" x2="481.2488" y1="886.2299" y2="886.2299"/><text fill="#000000" font-family="sans-serif" font-size="14" font-weight="bold" lengthAdjust="spacing" textLength="46.2488" x="426" y="878.1279">setups</text></g><!--cluster task--><g class="cluster" data-entity="task" data-source-line="31" data-uid="ent0011" id="cluster_task"><path d="M262.5,1251.572 L292.3399,1251.572 A3.75,3.75 0 0 1 294.8399,1254.072 L301.8399,1276.6399 L435.5,1276.6399 A2.5,2.5 0 0 1 438,1279.1399 L438,1657.752 A2.5,2.5 0 0 1 435.5,1660.252 L262.5,1660.252 A2.5,2.5 0 0 1 260,1657.752 L260,1254.072 A2.5,2.5 0 0 1 262.5,1251.572" fill="none" style="stroke:#000000;stroke-width:1.5;"/><line style="stroke:#000000;stroke-width:1.5;" x1="260" x2="301.8399" y1="1276.6399" y2="1276.6399"/><text fill="#000000" font-family="sans-serif" font-size="14" font-weight="bold" lengthAdjust="spacing" textLength="28.8399" x="264" y="1268.5379">task</text></g><!--cluster tools--><g class="cluster" data-entity="tools" data-source-line="49" data-uid="ent0014" id="cluster_tools"><path d="M424.5,378.212 L459.9994,378.212 A3.75,3.75 0 0 1 462.4994,380.712 L469.4994,403.2799 L611.5,403.2799 A2.5,2.5 0 0 1 614,405.7799 L614,515.852 A2.5,2.5 0 0 1 611.5,518.352 L424.5,518.352 A2.5,2.5 0 0 1 422,515.852 L422,380.712 A2.5,2.5 0 0 1 424.5,378.212" fill="none" style="stroke:#000000;stroke-width:1.5;"/><line style="stroke:#000000;stroke-width:1.5;" x1="422" x2="469.4994" y1="403.2799" y2="403.2799"/><text fill="#000000" font-family="sans-serif" font-size="14" font-weight="bold" lengthAdjust="spacing" textLength="34.4994" x="426" y="395.1779">tools</text></g><!--class svm--><g class="entity" data-entity="svm" data-source-line="55" data-uid="ent0015" id="entity_svm"><rect fill="#F1F1F1" height="105.2038" rx="2.5" ry="2.5" style="stroke:#181818;stroke-width:0.5;" width="106.4857" x="275.76" y="165.202"/><ellipse cx="312.17" cy="181.202" fill="#87CEEB" rx="11" ry="11" style="stroke:#181818;stroke-width:1;"/><path d="M311.2481,187.702 L307.3731,176.9051 L307.4513,176.8739 Q307.67,177.1239 307.7013,177.6551 Q307.7325,178.1707 307.7481,178.8114 Q307.7638,179.4364 307.7638,180.077 L307.7638,187.702 L305.8263,187.702 L305.8263,175.0301 L308.5294,175.0301 L312.1544,185.1551 L312.0919,185.1551 L315.7794,175.0301 L318.4669,175.0301 L318.4669,187.702 L316.42,187.702 L316.42,179.9676 Q316.42,179.3739 316.4356,178.7801 Q316.4669,178.1864 316.4981,177.6707 Q316.5294,177.1551 316.7481,176.8739 L316.8106,176.9051 L312.8888,187.702 L311.2481,187.702 Z " fill="#000000"/><text fill="#000000" font-family="sans-serif" font-size="14" lengthAdjust="spacing" textLength="26.9079" x="330.9278" y="186.634">svm</text><line style="stroke:#181818;stroke-width:0.5;" x1="276.76" x2="381.2457" y1="197.202" y2="197.202"/><ellipse cx="286.76" cy="212.2359" fill="none" rx="3" ry="3" style="stroke:#038048;stroke-width:1;"/><text fill="#000000" font-family="sans-serif" font-size="14" lengthAdjust="spacing" textLength="63.9798" x="295.76" y="216.1679">compress</text><ellipse cx="286.76" cy="231.3039" fill="none" rx="3" ry="3" style="stroke:#038048;stroke-width:1;"/><text fill="#000000" font-family="sans-serif" font-size="14" lengthAdjust="spacing" textLength="80.4857" x="295.76" y="235.2358">decompress</text><ellipse cx="286.76" cy="250.3718" fill="none" rx="3" ry="3" style="stroke:#038048;stroke-width:1;"/><text fill="#000000" font-family="sans-serif" font-size="14" lengthAdjust="spacing" textLength="43.2738" x="295.76" y="254.3038">merge</text><line style="stroke:#181818;stroke-width:0.5;" x1="276.76" x2="381.2457" y1="262.4057" y2="262.4057"/></g><!--class build--><g class="entity" data-entity="build" data-source-line="5" data-uid="ent0002" id="entity_build"><rect fill="#F1F1F1" height="143.3396" rx="2.5" ry="2.5" style="stroke:#181818;stroke-width:0.5;" width="151.0615" x="89.47" y="880.102"/><ellipse cx="144.2028" cy="896.102" fill="#87CEEB" rx="11" ry="11" style="stroke:#181818;stroke-width:1;"/><path d="M143.2809,902.602 L139.4059,891.8051 L139.4841,891.7739 Q139.7028,892.0239 139.7341,892.5551 Q139.7653,893.0707 139.7809,893.7114 Q139.7966,894.3364 139.7966,894.977 L139.7966,902.602 L137.8591,902.602 L137.8591,889.9301 L140.5622,889.9301 L144.1872,900.0551 L144.1247,900.0551 L147.8122,889.9301 L150.4997,889.9301 L150.4997,902.602 L148.4528,902.602 L148.4528,894.8676 Q148.4528,894.2739 148.4684,893.6801 Q148.4997,893.0864 148.5309,892.5707 Q148.5622,892.0551 148.7809,891.7739 L148.8434,891.8051 L144.9216,902.602 L143.2809,902.602 Z " fill="#000000"/><text fill="#000000" font-family="sans-serif" font-size="14" lengthAdjust="spacing" textLength="33.0959" x="164.7028" y="901.534">build</text><line style="stroke:#181818;stroke-width:0.5;" x1="90.47" x2="239.5315" y1="912.102" y2="912.102"/><ellipse cx="100.47" cy="927.1359" fill="#84BE84" rx="3" ry="3" style="stroke:#038048;stroke-width:1;"/><text fill="#000000" font-family="sans-serif" font-size="14" lengthAdjust="spacing" textLength="99.9736" x="109.47" y="931.0679">model(params)</text><line style="stroke:#181818;stroke-width:1;" x1="90.47" x2="239.5315" y1="939.1699" y2="939.1699"/><ellipse cx="100.47" cy="954.2039" fill="#84BE84" rx="3" ry="3" style="stroke:#038048;stroke-width:1;"/><text fill="#000000" font-family="sans-serif" font-size="14" lengthAdjust="spacing" textLength="85.6517" x="109.47" y="958.1358">score(model)</text><polygon fill="#FFFF44" points="100.47,968.2718,104.47,972.2718,100.47,976.2718,96.47,972.2718" style="stroke:#B38D22;stroke-width:1;"/><text fill="#000000" font-family="sans-serif" font-size="14" lengthAdjust="spacing" textLength="125.0615" x="109.47" y="977.2038">evaluation.launch()</text><ellipse cx="100.47" cy="992.3397" fill="#84BE84" rx="3" ry="3" style="stroke:#038048;stroke-width:1;"/><text fill="#000000" font-family="sans-serif" font-size="14" lengthAdjust="spacing" textLength="99.9736" x="109.47" y="996.2717">model(params)</text><ellipse cx="100.47" cy="1011.4076" fill="#84BE84" rx="3" ry="3" style="stroke:#038048;stroke-width:1;"/><text fill="#000000" font-family="sans-serif" font-size="14" lengthAdjust="spacing" textLength="85.6517" x="109.47" y="1015.3396">score(model)</text></g><!--class autotune--><g class="entity" data-entity="autotune" data-source-line="61" data-uid="ent0016" id="entity_autotune"><rect fill="#F1F1F1" height="162.4075" rx="2.5" ry="2.5" style="stroke:#181818;stroke-width:0.5;" width="155.3875" x="79.31" y="136.602"/><ellipse cx="122.7067" cy="152.602" fill="#87CEEB" rx="11" ry="11" style="stroke:#181818;stroke-width:1;"/><path d="M121.7848,159.102 L117.9098,148.3051 L117.9879,148.2739 Q118.2067,148.5239 118.2379,149.0551 Q118.2692,149.5707 118.2848,150.2114 Q118.3004,150.8364 118.3004,151.477 L118.3004,159.102 L116.3629,159.102 L116.3629,146.4301 L119.0661,146.4301 L122.6911,156.5551 L122.6286,156.5551 L126.3161,146.4301 L129.0036,146.4301 L129.0036,159.102 L126.9567,159.102 L126.9567,151.3676 Q126.9567,150.7739 126.9723,150.1801 Q127.0036,149.5864 127.0348,149.0707 Q127.0661,148.5551 127.2848,148.2739 L127.3473,148.3051 L123.4254,159.102 L121.7848,159.102 Z " fill="#000000"/><text fill="#000000" font-family="sans-serif" font-size="14" lengthAdjust="spacing" textLength="60.2838" x="143.0171" y="158.034">autotune</text><line style="stroke:#181818;stroke-width:0.5;" x1="80.31" x2="233.6975" y1="168.602" y2="168.602"/><ellipse cx="90.31" cy="183.6359" fill="#84BE84" rx="3" ry="3" style="stroke:#038048;stroke-width:1;"/><text fill="#000000" font-family="sans-serif" font-size="14" lengthAdjust="spacing" textLength="120.8895" x="99.31" y="187.5679">prettytuner(setup)</text><polygon fill="#FFFF44" points="90.31,197.7039,94.31,201.7039,90.31,205.7039,86.31,201.7039" style="stroke:#B38D22;stroke-width:1;"/><text fill="#000000" font-family="sans-serif" font-size="14" lengthAdjust="spacing" textLength="109.4235" x="99.31" y="206.6358">queue = Queue()</text><polygon fill="#4177AF" points="90.31,217.7718,86.31,223.7718,94.31,223.7718" style="stroke:#1963A0;stroke-width:1;"/><text fill="#000000" font-family="sans-serif" font-size="14" lengthAdjust="spacing" textLength="129.3875" x="99.31" y="225.7038">Process.start(tuner)</text><line style="stroke:#181818;stroke-width:1;" x1="80.31" x2="233.6975" y1="233.8057" y2="233.8057"/><ellipse cx="90.31" cy="248.8397" fill="#84BE84" rx="3" ry="3" style="stroke:#038048;stroke-width:1;"/><text fill="#000000" font-family="sans-serif" font-size="14" lengthAdjust="spacing" textLength="81.3537" x="99.31" y="252.7717">tuner(setup)</text><polygon fill="#FFFF44" points="90.31,262.9076,94.31,266.9076,90.31,270.9076,86.31,266.9076" style="stroke:#B38D22;stroke-width:1;"/><text fill="#000000" font-family="sans-serif" font-size="14" lengthAdjust="spacing" textLength="86.9257" x="99.31" y="271.8396">build.model()</text><polygon fill="#FFFF44" points="90.31,281.9755,94.31,285.9755,90.31,289.9755,86.31,285.9755" style="stroke:#B38D22;stroke-width:1;"/><text fill="#000000" font-family="sans-serif" font-size="14" lengthAdjust="spacing" textLength="78.3717" x="99.31" y="290.9075">tune(phase)</text></g><!--class tune--><g class="entity" data-entity="tune" data-source-line="71" data-uid="ent0017" id="entity_tune"><rect fill="#F1F1F1" height="200.5433" rx="2.5" ry="2.5" style="stroke:#181818;stroke-width:0.5;" width="173.0554" x="70.47" y="359.012"/><ellipse cx="137.6208" cy="375.012" fill="#87CEEB" rx="11" ry="11" style="stroke:#181818;stroke-width:1;"/><path d="M136.6989,381.512 L132.8239,370.7151 L132.902,370.6839 Q133.1208,370.9339 133.152,371.4651 Q133.1833,371.9807 133.1989,372.6214 Q133.2145,373.2464 133.2145,373.887 L133.2145,381.512 L131.277,381.512 L131.277,368.8401 L133.9802,368.8401 L137.6052,378.9651 L137.5427,378.9651 L141.2302,368.8401 L143.9177,368.8401 L143.9177,381.512 L141.8708,381.512 L141.8708,373.7776 Q141.8708,373.1839 141.8864,372.5901 Q141.9177,371.9964 141.9489,371.4807 Q141.9802,370.9651 142.1989,370.6839 L142.2614,370.7151 L138.3395,381.512 L136.6989,381.512 Z " fill="#000000"/><text fill="#000000" font-family="sans-serif" font-size="14" lengthAdjust="spacing" textLength="30.2539" x="158.1208" y="380.444">tune</text><line style="stroke:#181818;stroke-width:0.5;" x1="71.47" x2="242.5254" y1="391.012" y2="391.012"/><ellipse cx="81.47" cy="406.0459" fill="#84BE84" rx="3" ry="3" style="stroke:#038048;stroke-width:1;"/><text fill="#000000" font-family="sans-serif" font-size="14" lengthAdjust="spacing" textLength="82.3057" x="90.47" y="409.9779">leaves_grid()</text><ellipse cx="81.47" cy="425.1139" fill="#84BE84" rx="3" ry="3" style="stroke:#038048;stroke-width:1;"/><text fill="#000000" font-family="sans-serif" font-size="14" lengthAdjust="spacing" textLength="62.9578" x="90.47" y="429.0458">bagging()</text><ellipse cx="81.47" cy="444.1818" fill="#84BE84" rx="3" ry="3" style="stroke:#038048;stroke-width:1;"/><text fill="#000000" font-family="sans-serif" font-size="14" lengthAdjust="spacing" textLength="56.5878" x="90.47" y="448.1138">regular()</text><ellipse cx="81.47" cy="463.2497" fill="#84BE84" rx="3" ry="3" style="stroke:#038048;stroke-width:1;"/><text fill="#000000" font-family="sans-serif" font-size="14" lengthAdjust="spacing" textLength="69.3417" x="90.47" y="467.1817">min_data()</text><ellipse cx="81.47" cy="482.3176" fill="#84BE84" rx="3" ry="3" style="stroke:#038048;stroke-width:1;"/><text fill="#000000" font-family="sans-serif" font-size="14" lengthAdjust="spacing" textLength="47.2218" x="90.47" y="486.2496">depth()</text><line style="stroke:#181818;stroke-width:1;" x1="71.47" x2="242.5254" y1="494.3516" y2="494.3516"/><ellipse cx="81.47" cy="509.3855" fill="#84BE84" rx="3" ry="3" style="stroke:#038048;stroke-width:1;"/><text fill="#000000" font-family="sans-serif" font-size="14" lengthAdjust="spacing" textLength="38.6538" x="90.47" y="513.3175">tune()</text><polygon fill="#FFFF44" points="81.47,523.4534,85.47,527.4534,81.47,531.4534,77.47,527.4534" style="stroke:#B38D22;stroke-width:1;"/><text fill="#000000" font-family="sans-serif" font-size="14" lengthAdjust="spacing" textLength="147.0554" x="90.47" y="532.3854">study = optuna.study()</text><polygon fill="#4177AF" points="81.47,543.5214,77.47,549.5214,85.47,549.5214" style="stroke:#1963A0;stroke-width:1;"/><text fill="#000000" font-family="sans-serif" font-size="14" lengthAdjust="spacing" textLength="142.7014" x="90.47" y="551.4533">study.optimize(check)</text></g><!--class check--><g class="entity" data-entity="check" data-source-line="83" data-uid="ent0018" id="entity_check"><rect fill="#F1F1F1" height="200.5433" rx="2.5" ry="2.5" style="stroke:#181818;stroke-width:0.5;" width="112.9257" x="103.54" y="619.552"/><ellipse cx="138.0978" cy="635.552" fill="#87CEEB" rx="11" ry="11" style="stroke:#181818;stroke-width:1;"/><path d="M137.1759,642.052 L133.3009,631.2551 L133.3791,631.2239 Q133.5978,631.4739 133.6291,632.0051 Q133.6603,632.5207 133.6759,633.1614 Q133.6916,633.7864 133.6916,634.427 L133.6916,642.052 L131.7541,642.052 L131.7541,629.3801 L134.4572,629.3801 L138.0822,639.5051 L138.0197,639.5051 L141.7072,629.3801 L144.3947,629.3801 L144.3947,642.052 L142.3478,642.052 L142.3478,634.3176 Q142.3478,633.7239 142.3634,633.1301 Q142.3947,632.5364 142.4259,632.0207 Q142.4572,631.5051 142.6759,631.2239 L142.7384,631.2551 L138.8166,642.052 L137.1759,642.052 Z " fill="#000000"/><text fill="#000000" font-family="sans-serif" font-size="14" lengthAdjust="spacing" textLength="37.4638" x="156.444" y="640.984">check</text><line style="stroke:#181818;stroke-width:0.5;" x1="104.54" x2="215.4657" y1="651.552" y2="651.552"/><ellipse cx="114.54" cy="666.5859" fill="#84BE84" rx="3" ry="3" style="stroke:#038048;stroke-width:1;"/><text fill="#000000" font-family="sans-serif" font-size="14" lengthAdjust="spacing" textLength="49.4758" x="123.54" y="670.5179">leaves()</text><ellipse cx="114.54" cy="685.6539" fill="#84BE84" rx="3" ry="3" style="stroke:#038048;stroke-width:1;"/><text fill="#000000" font-family="sans-serif" font-size="14" lengthAdjust="spacing" textLength="62.9578" x="123.54" y="689.5858">bagging()</text><ellipse cx="114.54" cy="704.7218" fill="#84BE84" rx="3" ry="3" style="stroke:#038048;stroke-width:1;"/><text fill="#000000" font-family="sans-serif" font-size="14" lengthAdjust="spacing" textLength="56.5878" x="123.54" y="708.6538">regular()</text><ellipse cx="114.54" cy="723.7897" fill="#84BE84" rx="3" ry="3" style="stroke:#038048;stroke-width:1;"/><text fill="#000000" font-family="sans-serif" font-size="14" lengthAdjust="spacing" textLength="69.3417" x="123.54" y="727.7217">min_data()</text><ellipse cx="114.54" cy="742.8576" fill="#84BE84" rx="3" ry="3" style="stroke:#038048;stroke-width:1;"/><text fill="#000000" font-family="sans-serif" font-size="14" lengthAdjust="spacing" textLength="47.2218" x="123.54" y="746.7896">depth()</text><line style="stroke:#181818;stroke-width:1;" x1="104.54" x2="215.4657" y1="754.8916" y2="754.8916"/><ellipse cx="114.54" cy="769.9255" fill="#84BE84" rx="3" ry="3" style="stroke:#038048;stroke-width:1;"/><text fill="#000000" font-family="sans-serif" font-size="14" lengthAdjust="spacing" textLength="45.8638" x="123.54" y="773.8575">check()</text><polygon fill="#FFFF44" points="114.54,783.9934,118.54,787.9934,114.54,791.9934,110.54,787.9934" style="stroke:#B38D22;stroke-width:1;"/><text fill="#000000" font-family="sans-serif" font-size="14" lengthAdjust="spacing" textLength="86.9257" x="123.54" y="792.9254">build.model()</text><polygon fill="#FFFF44" points="114.54,803.0614,118.54,807.0614,114.54,811.0614,110.54,807.0614" style="stroke:#B38D22;stroke-width:1;"/><text fill="#000000" font-family="sans-serif" font-size="14" lengthAdjust="spacing" textLength="80.8217" x="123.54" y="811.9933">build.score()</text></g><!--class evaluation--><g class="entity" data-entity="evaluation" data-source-line="13" data-uid="ent0006" id="entity_evaluation"><rect fill="#F1F1F1" height="86.1358" rx="2.5" ry="2.5" style="stroke:#181818;stroke-width:0.5;" width="164.3055" x="266.85" y="1125.442"/><ellipse cx="310.442" cy="1141.442" fill="#87CEEB" rx="11" ry="11" style="stroke:#181818;stroke-width:1;"/><path d="M309.5201,1147.942 L305.6451,1137.1451 L305.7232,1137.1139 Q305.942,1137.3639 305.9732,1137.8951 Q306.0045,1138.4107 306.0201,1139.0514 Q306.0357,1139.6764 306.0357,1140.317 L306.0357,1147.942 L304.0982,1147.942 L304.0982,1135.2701 L306.8013,1135.2701 L310.4263,1145.3951 L310.3638,1145.3951 L314.0513,1135.2701 L316.7388,1135.2701 L316.7388,1147.942 L314.692,1147.942 L314.692,1140.2076 Q314.692,1139.6139 314.7076,1139.0201 Q314.7388,1138.4264 314.7701,1137.9107 Q314.8013,1137.3951 315.0201,1137.1139 L315.0826,1137.1451 L311.1607,1147.942 L309.5201,1147.942 Z " fill="#000000"/><text fill="#000000" font-family="sans-serif" font-size="14" lengthAdjust="spacing" textLength="68.7677" x="330.7957" y="1146.874">evaluation</text><line style="stroke:#181818;stroke-width:0.5;" x1="267.85" x2="430.1555" y1="1157.442" y2="1157.442"/><ellipse cx="277.85" cy="1172.4759" fill="#84BE84" rx="3" ry="3" style="stroke:#038048;stroke-width:1;"/><text fill="#000000" font-family="sans-serif" font-size="14" lengthAdjust="spacing" textLength="138.3055" x="286.85" y="1176.4079">launch(jobs) : Results</text><line style="stroke:#181818;stroke-width:1;" x1="267.85" x2="430.1555" y1="1184.5099" y2="1184.5099"/><ellipse cx="277.85" cy="1199.5439" fill="#84BE84" rx="3" ry="3" style="stroke:#038048;stroke-width:1;"/><text fill="#000000" font-family="sans-serif" font-size="14" lengthAdjust="spacing" textLength="103.8376" x="286.85" y="1203.4758">run(job) : Result</text></g><!--class loop--><g class="entity" data-entity="loop" data-source-line="19" data-uid="ent0008" id="entity_loop"><rect fill="#F1F1F1" height="105.2038" rx="2.5" ry="2.5" style="stroke:#181818;stroke-width:0.5;" width="189.0154" x="438.49" y="899.162"/><ellipse cx="514.1667" cy="915.162" fill="#87CEEB" rx="11" ry="11" style="stroke:#181818;stroke-width:1;"/><path d="M513.2449,921.662 L509.3699,910.8651 L509.448,910.8339 Q509.6667,911.0839 509.698,911.6151 Q509.7292,912.1307 509.7449,912.7714 Q509.7605,913.3964 509.7605,914.037 L509.7605,921.662 L507.823,921.662 L507.823,908.9901 L510.5261,908.9901 L514.1511,919.1151 L514.0886,919.1151 L517.7761,908.9901 L520.4636,908.9901 L520.4636,921.662 L518.4167,921.662 L518.4167,913.9276 Q518.4167,913.3339 518.4324,912.7401 Q518.4636,912.1464 518.4949,911.6307 Q518.5261,911.1151 518.7449,910.8339 L518.8074,910.8651 L514.8855,921.662 L513.2449,921.662 Z " fill="#000000"/><text fill="#000000" font-family="sans-serif" font-size="14" lengthAdjust="spacing" textLength="29.1619" x="534.6667" y="920.594">loop</text><line style="stroke:#181818;stroke-width:0.5;" x1="439.49" x2="626.5054" y1="931.162" y2="931.162"/><ellipse cx="449.49" cy="946.1959" fill="#84BE84" rx="3" ry="3" style="stroke:#038048;stroke-width:1;"/><text fill="#000000" font-family="sans-serif" font-size="14" lengthAdjust="spacing" textLength="163.0154" x="458.49" y="950.1279">evaluation(setup) : Setup</text><line style="stroke:#181818;stroke-width:1;" x1="439.49" x2="626.5054" y1="958.2299" y2="958.2299"/><ellipse cx="449.49" cy="973.2639" fill="#84BE84" rx="3" ry="3" style="stroke:#038048;stroke-width:1;"/><text fill="#000000" font-family="sans-serif" font-size="14" lengthAdjust="spacing" textLength="138.3895" x="458.49" y="977.1958">launch(setup) : Setup</text><ellipse cx="449.49" cy="992.3318" fill="#84BE84" rx="3" ry="3" style="stroke:#038048;stroke-width:1;"/><text fill="#000000" font-family="sans-serif" font-size="14" lengthAdjust="spacing" textLength="148.4274" x="458.49" y="996.2638">oneloop(setup) : Setup</text></g><!--class launcher--><g class="entity" data-entity="launcher" data-source-line="31" data-uid="ent0010" id="entity_launcher"><rect fill="#F1F1F1" height="86.1358" rx="2.5" ry="2.5" style="stroke:#181818;stroke-width:0.5;" width="143.4456" x="277.28" y="1289.572"/><ellipse cx="316.4116" cy="1305.572" fill="#87CEEB" rx="11" ry="11" style="stroke:#181818;stroke-width:1;"/><path d="M315.4897,1312.072 L311.6147,1301.2751 L311.6929,1301.2439 Q311.9116,1301.4939 311.9429,1302.0251 Q311.9741,1302.5407 311.9897,1303.1814 Q312.0054,1303.8064 312.0054,1304.447 L312.0054,1312.072 L310.0679,1312.072 L310.0679,1299.4001 L312.771,1299.4001 L316.396,1309.5251 L316.3335,1309.5251 L320.021,1299.4001 L322.7085,1299.4001 L322.7085,1312.072 L320.6616,1312.072 L320.6616,1304.3376 Q320.6616,1303.7439 320.6772,1303.1501 Q320.7085,1302.5564 320.7397,1302.0407 Q320.771,1301.5251 320.9897,1301.2439 L321.0522,1301.2751 L317.1304,1312.072 L315.4897,1312.072 Z " fill="#000000"/><text fill="#000000" font-family="sans-serif" font-size="14" lengthAdjust="spacing" textLength="57.8198" x="335.7742" y="1311.004">launcher</text><line style="stroke:#181818;stroke-width:0.5;" x1="278.28" x2="419.7256" y1="1321.572" y2="1321.572"/><line style="stroke:#181818;stroke-width:0.5;" x1="278.28" x2="419.7256" y1="1329.572" y2="1329.572"/><ellipse cx="288.28" cy="1344.6059" fill="#84BE84" rx="3" ry="3" style="stroke:#038048;stroke-width:1;"/><text fill="#000000" font-family="sans-serif" font-size="14" lengthAdjust="spacing" textLength="86.3377" x="297.28" y="1348.5379">launch(tasks)</text><polygon fill="#4177AF" points="288.28,1359.6739,284.28,1365.6739,292.28,1365.6739" style="stroke:#1963A0;stroke-width:1;"/><text fill="#000000" font-family="sans-serif" font-size="14" lengthAdjust="spacing" textLength="117.4456" x="297.28" y="1367.6058">pool = Pool(cores)</text></g><!--class SolverTask--><g class="entity" data-entity="SolverTask" data-source-line="36" data-uid="ent0012" id="entity_SolverTask"><rect fill="#F1F1F1" height="208.5433" rx="2.5" ry="2.5" style="stroke:#181818;stroke-width:0.5;" width="146.3435" x="275.83" y="1435.712"/><ellipse cx="310.6146" cy="1451.712" fill="#ADD1B2" rx="11" ry="11" style="stroke:#181818;stroke-width:1;"/><path d="M310.724,1447.2432 Q309.8021,1447.2432 309.0677,1447.5557 Q308.349,1447.8682 307.849,1448.462 Q307.349,1449.0401 307.0677,1449.9151 Q306.8021,1450.7901 306.8021,1451.8839 Q306.8021,1453.3214 307.2396,1454.3682 Q307.6927,1455.4151 308.5365,1455.962 Q309.3959,1456.5089 310.7084,1456.5089 Q311.4896,1456.5089 312.1771,1456.3839 Q312.8802,1456.2432 313.8802,1455.9307 L313.8802,1457.8057 Q313.0209,1458.1339 312.2552,1458.2589 Q311.5052,1458.3839 310.4896,1458.3839 Q308.5677,1458.3839 307.2552,1457.587 Q305.9584,1456.7745 305.3021,1455.3057 Q304.6459,1453.8214 304.6459,1451.8526 Q304.6459,1450.4307 305.0365,1449.2589 Q305.4427,1448.0714 306.224,1447.1964 Q307.0052,1446.3214 308.1459,1445.8526 Q309.2865,1445.3682 310.7552,1445.3682 Q311.7084,1445.3682 312.599,1445.5714 Q313.5052,1445.7589 314.4427,1446.2276 L313.6146,1448.0089 Q312.8334,1447.6339 312.1771,1447.4464 Q311.5209,1447.2432 310.724,1447.2432 Z " fill="#000000"/><text fill="#000000" font-family="sans-serif" font-size="14" lengthAdjust="spacing" textLength="70.3777" x="329.0112" y="1457.144">SolverTask</text><line style="stroke:#181818;stroke-width:0.5;" x1="276.83" x2="421.1735" y1="1467.712" y2="1467.712"/><rect fill="none" height="6" style="stroke:#C82930;stroke-width:1;" width="6" x="283.83" y="1479.7459"/><text fill="#000000" font-family="sans-serif" font-size="14" lengthAdjust="spacing" textLength="93.1276" x="295.83" y="1486.6779">queue: Queue</text><rect fill="none" height="6" style="stroke:#C82930;stroke-width:1;" width="6" x="283.83" y="1498.8139"/><text fill="#000000" font-family="sans-serif" font-size="14" lengthAdjust="spacing" textLength="85.4697" x="295.83" y="1505.7458">talker: Talker</text><line style="stroke:#181818;stroke-width:1;" x1="276.83" x2="421.1735" y1="1513.8478" y2="1513.8478"/><ellipse cx="286.83" cy="1528.8818" fill="#84BE84" rx="3" ry="3" style="stroke:#038048;stroke-width:1;"/><text fill="#000000" font-family="sans-serif" font-size="14" lengthAdjust="spacing" text-decoration="underline" textLength="85.6657" x="295.83" y="1532.8138">runtask(task)</text><polygon fill="#FFFF44" points="286.83,1542.9497,290.83,1546.9497,286.83,1550.9497,282.83,1546.9497" style="stroke:#B38D22;stroke-width:1;"/><text fill="#000000" font-family="sans-serif" font-size="14" lengthAdjust="spacing" textLength="62.3278" x="295.83" y="1551.8817">task.run()</text><line style="stroke:#181818;stroke-width:1;" x1="276.83" x2="421.1735" y1="1559.9836" y2="1559.9836"/><ellipse cx="286.83" cy="1575.0176" fill="#84BE84" rx="3" ry="3" style="stroke:#038048;stroke-width:1;"/><text fill="#000000" font-family="sans-serif" font-size="14" lengthAdjust="spacing" textLength="31.4859" x="295.83" y="1578.9496">run()</text><polygon fill="#FFFF44" points="286.83,1589.0855,290.83,1593.0855,286.83,1597.0855,282.83,1593.0855" style="stroke:#B38D22;stroke-width:1;"/><text fill="#000000" font-family="sans-serif" font-size="14" lengthAdjust="spacing" text-decoration="underline" textLength="120.3435" x="295.83" y="1598.0175">Talker.log_config()</text><polygon fill="#FFFF44" points="286.83,1608.1534,290.83,1612.1534,286.83,1616.1534,282.83,1612.1534" style="stroke:#B38D22;stroke-width:1;"/><text fill="#000000" font-family="sans-serif" font-size="14" lengthAdjust="spacing" textLength="82.4037" x="295.83" y="1617.0854">plugin.calls()</text><polygon fill="#FFFF44" points="286.83,1627.2214,290.83,1631.2214,286.83,1635.2214,282.83,1631.2214" style="stroke:#B38D22;stroke-width:1;"/><text fill="#000000" font-family="sans-serif" font-size="14" lengthAdjust="spacing" textLength="85.5257" x="295.83" y="1636.1533">solver.solve()</text></g><!--class external--><g class="entity" data-entity="external" data-source-line="49" data-uid="ent0013" id="entity_external"><rect fill="#F1F1F1" height="86.1358" rx="2.5" ry="2.5" style="stroke:#181818;stroke-width:0.5;" width="159.6015" x="438.2" y="416.212"/><ellipse cx="486.6749" cy="432.212" fill="#87CEEB" rx="11" ry="11" style="stroke:#181818;stroke-width:1;"/><path d="M485.753,438.712 L481.878,427.9151 L481.9561,427.8839 Q482.1749,428.1339 482.2061,428.6651 Q482.2374,429.1807 482.253,429.8214 Q482.2686,430.4464 482.2686,431.087 L482.2686,438.712 L480.3311,438.712 L480.3311,426.0401 L483.0342,426.0401 L486.6592,436.1651 L486.5967,436.1651 L490.2842,426.0401 L492.9717,426.0401 L492.9717,438.712 L490.9249,438.712 L490.9249,430.9776 Q490.9249,430.3839 490.9405,429.7901 Q490.9717,429.1964 491.003,428.6807 Q491.0342,428.1651 491.253,427.8839 L491.3155,427.9151 L487.3936,438.712 L485.753,438.712 Z " fill="#000000"/><text fill="#000000" font-family="sans-serif" font-size="14" lengthAdjust="spacing" textLength="54.1518" x="507.1749" y="437.644">external</text><line style="stroke:#181818;stroke-width:0.5;" x1="439.2" x2="596.8015" y1="448.212" y2="448.212"/><ellipse cx="449.2" cy="463.2459" fill="none" rx="3" ry="3" style="stroke:#038048;stroke-width:1;"/><text fill="#000000" font-family="sans-serif" font-size="14" lengthAdjust="spacing" textLength="54.1518" x="458.2" y="467.1779">external</text><line style="stroke:#181818;stroke-width:1;" x1="439.2" x2="596.8015" y1="475.2799" y2="475.2799"/><polygon fill="#4177AF" points="449.2,486.3139,445.2,492.3139,453.2,492.3139" style="stroke:#1963A0;stroke-width:1;"/><text fill="#000000" font-family="sans-serif" font-size="14" lengthAdjust="spacing" textLength="133.6015" x="458.2" y="494.2458">Process.start(target)</text></g><!--link loop to evaluation--><g class="link" data-entity-1="loop" data-entity-2="evaluation" data-source-line="95" data-uid="lnk19" id="link_loop_evaluation"><path codeLine="95" d="M488.46,1004.752 C456.87,1041.612 418.9036,1085.9154 389.3136,1120.4554" fill="none" id="loop-to-evaluation" style="stroke:#181818;stroke-width:1;stroke-dasharray:7,7;"/><polygon fill="#181818" points="385.41,1125.012,394.303,1120.7795,388.663,1121.2148,388.2276,1115.5748,385.41,1125.012" style="stroke:#181818;stroke-width:1;"/></g><!--link build to evaluation--><g class="link" data-entity-1="build" data-entity-2="evaluation" data-source-line="96" data-uid="lnk20" id="link_build_evaluation"><path codeLine="96" d="M225.76,1023.672 C254.54,1057.272 284.0554,1091.7163 308.8254,1120.6163" fill="none" id="build-to-evaluation" style="stroke:#181818;stroke-width:1;stroke-dasharray:7,7;"/><polygon fill="#181818" points="312.73,1125.172,309.9102,1115.7354,309.4762,1121.3756,303.836,1120.9416,312.73,1125.172" style="stroke:#181818;stroke-width:1;"/></g><!--link evaluation to launcher--><g class="link" data-entity-1="evaluation" data-entity-2="launcher" data-source-line="97" data-uid="lnk21" id="link_evaluation_launcher"><path codeLine="97" d="M349,1211.682 C349,1235.512 349,1259.222 349,1283.112" fill="none" id="evaluation-to-launcher" style="stroke:#181818;stroke-width:1;stroke-dasharray:7,7;"/><polygon fill="#181818" points="349,1289.112,353,1280.112,349,1284.112,345,1280.112,349,1289.112" style="stroke:#181818;stroke-width:1;"/></g><!--link launcher to SolverTask--><g class="link" data-entity-1="launcher" data-entity-2="SolverTask" data-source-line="98" data-uid="lnk22" id="link_launcher_SolverTask"><path codeLine="98" d="M349,1376.192 C349,1393.572 349,1408.512 349,1429.492" fill="none" id="launcher-to-SolverTask" style="stroke:#181818;stroke-width:1;stroke-dasharray:7,7;"/><polygon fill="#181818" points="349,1435.492,353,1426.492,349,1430.492,345,1426.492,349,1435.492" style="stroke:#181818;stroke-width:1;"/></g><!--link svm to external--><g class="link" data-entity-1="svm" data-entity-2="external" data-source-line="99" data-uid="lnk23" id="link_svm_external"><path codeLine="99" d="M370.01,270.772 C404.32,314.242 448.9322,370.7726 480.9122,411.2826" fill="none" id="svm-to-external" style="stroke:#181818;stroke-width:1;stroke-dasharray:7,7;"/><polygon fill="#181818" points="484.63,415.992,482.193,406.4494,481.5319,412.0675,475.9138,411.4064,484.63,415.992" style="stroke:#181818;stroke-width:1;"/></g><!--link autotune to tune--><g class="link" data-entity-1="autotune" data-entity-2="tune" data-source-line="101" data-uid="lnk24" id="link_autotune_tune"><path codeLine="101" d="M157,299.212 C157,318.242 157,332.752 157,352.512" fill="none" id="autotune-to-tune" style="stroke:#181818;stroke-width:1;stroke-dasharray:7,7;"/><polygon fill="#181818" points="157,358.512,161,349.512,157,353.512,153,349.512,157,358.512" style="stroke:#181818;stroke-width:1;"/></g><!--link tune to check--><g class="link" data-entity-1="tune" data-entity-2="check" data-source-line="102" data-uid="lnk25" id="link_tune_check"><path codeLine="102" d="M158.16,559.872 C158.38,579.362 158.5492,593.8024 158.7792,613.2924" fill="none" id="tune-to-check" style="stroke:#181818;stroke-width:1;stroke-dasharray:7,7;"/><polygon fill="#181818" points="158.85,619.292,162.7435,610.2454,158.791,614.2923,154.7441,610.3398,158.85,619.292" style="stroke:#181818;stroke-width:1;"/></g><!--link check to build--><g class="link" data-entity-1="check" data-entity-2="build" data-source-line="103" data-uid="lnk26" id="link_check_build"><path codeLine="103" d="M162.16,820.342 C162.6,840.372 162.9192,855.0334 163.3292,873.8434" fill="none" id="check-to-build" style="stroke:#181818;stroke-width:1;stroke-dasharray:7,7;"/><polygon fill="#181818" points="163.46,879.842,167.2629,870.757,163.351,874.8432,159.2648,870.9313,163.46,879.842" style="stroke:#181818;stroke-width:1;"/></g><!--SRC=[hLNDZfim4BxxAKRA1PJ63n1jS-cvqhQxzyY1AQ4OcthigEag- -or3OWI84dLdipCUBvl_ZnGLQf66573GMHLORHJ-ISjjG5hX29lGcKPOvaKH41Qdj0qPtvmfSpHSE6ijavXgu2d9qW-Vw3gV90EKzZju8q1m1fgdQDC8X6bGRNPj0RAjC4acgD-1NWIqWbRQiMbS2ex9Ycxp4I0tbGBK_71OO5_3HtGTtsW5BRm5Sb9IwmBOmt6gM0SR87nYf3GkeQurBfPv1b2IUBr0FWIFWQgBfI9UGrQOG2_Dbt-hVZJsbyLVOfl1LLTxT7Sgscu767VeT5QmaTuzaSI66WH_2LAh_upWctWXqE7M_WIZgYmGbPejl0QpxvyRsHzTRDBsx805Va3_GeYSkXaEcvi-gVZgaFqVIpscLRVoY9ftHlfYbBnJ4X9dQeDciSZcKt6fqeSVreqIiZbyUzl39F_3iz6PqZ4VMJ6-ZHCWJQzqMqwrSi4cQuRNt1gfHp7SeqU71wPfFvZcSd3MdiETqmtgUspZHtqtOyjZFMRvXYSHgz_2XCZukt8TgfmAMcEWZ1z98NRuKiK9wHzOSgynL_xnLVunXUzQB1mKfXUh4krpuKLlPnZOu_998i-MB8kF_iowCPh1OzYNuqeS6yfw_8N9lvrPTL3ASMRztBwR-b4jcIv7wsgtI4n_DaLoVdkzh9cz_RPto3C_Gn6_gETnXPMtTHZM5Hiza6EFKRRWB47djaunxbHPdSc_JP2x2MxDrctCQA2iTy0]--></g></svg>