<svg xmlns="http://www.w3.org/2000/svg" xmlns:xlink="http://www.w3.org/1999/xlink" contentStyleType="text/css" data-diagram-type="CLASS" height="669px" preserveAspectRatio="none" style="width:862px;height:669px;" version="1.1" viewBox="0 0 862 669" width="862px" zoomAndPan="magnify"><defs/><g><!--cluster solverpy--><g class="cluster" data-entity="solverpy" data-source-line="5" data-uid="ent0003" id="cluster_solverpy"><path d="M8.5,6.602 L68.3278,6.602 A3.75,3.75 0 0 1 70.8278,9.102 L77.8278,31.6699 L852.5,31.6699 A2.5,2.5 0 0 1 855,34.1699 L855,659.782 A2.5,2.5 0 0 1 852.5,662.282 L8.5,662.282 A2.5,2.5 0 0 1 6,659.782 L6,9.102 A2.5,2.5 0 0 1 8.5,6.602" fill="none" style="stroke:#000000;stroke-width:1.5;"/><line style="stroke:#000000;stroke-width:1.5;" x1="6" x2="77.8278" y1="31.6699" y2="31.6699"/><text fill="#000000" font-family="sans-serif" font-size="14" font-weight="bold" lengthAdjust="spacing" textLength="58.8278" x="10" y="23.5679">solverpy</text></g><!--cluster task--><g class="cluster" data-entity="task" data-source-line="5" data-uid="ent0004" id="cluster_task"><path d="M248.5,390.012 L278.3399,390.012 A3.75,3.75 0 0 1 280.8399,392.512 L287.8399,415.0799 L828.5,415.0799 A2.5,2.5 0 0 1 831,417.5799 L831,635.782 A2.5,2.5 0 0 1 828.5,638.282 L248.5,638.282 A2.5,2.5 0 0 1 246,635.782 L246,392.512 A2.5,2.5 0 0 1 248.5,390.012" fill="none" style="stroke:#000000;stroke-width:1.5;"/><line style="stroke:#000000;stroke-width:1.5;" x1="246" x2="287.8399" y1="415.0799" y2="415.0799"/><text fill="#000000" font-family="sans-serif" font-size="14" font-weight="bold" lengthAdjust="spacing" textLength="28.8399" x="250" y="406.9779">task</text></g><!--cluster remotetalker--><g class="cluster" data-entity="remotetalker" data-source-line="39" data-uid="ent0014" id="cluster_remotetalker"><path d="M272.5,436.012 L364.6117,436.012 A3.75,3.75 0 0 1 367.1117,438.512 L374.1117,461.0799 L427.5,461.0799 A2.5,2.5 0 0 1 430,463.5799 L430,611.782 A2.5,2.5 0 0 1 427.5,614.282 L272.5,614.282 A2.5,2.5 0 0 1 270,611.782 L270,438.512 A2.5,2.5 0 0 1 272.5,436.012" fill="none" style="stroke:#000000;stroke-width:1.5;"/><line style="stroke:#000000;stroke-width:1.5;" x1="270" x2="374.1117" y1="461.0799" y2="461.0799"/><text fill="#000000" font-family="sans-serif" font-size="14" font-weight="bold" lengthAdjust="spacing" textLength="91.1117" x="274" y="452.9779">remotetalker</text></g><!--cluster talker--><g class="cluster" data-entity="talker" data-source-line="47" data-uid="ent0016" id="cluster_talker"><path d="M456.5,436.012 L497.7989,436.012 A3.75,3.75 0 0 1 500.2989,438.512 L507.2989,461.0799 L649.5,461.0799 A2.5,2.5 0 0 1 652,463.5799 L652,611.782 A2.5,2.5 0 0 1 649.5,614.282 L456.5,614.282 A2.5,2.5 0 0 1 454,611.782 L454,438.512 A2.5,2.5 0 0 1 456.5,436.012" fill="none" style="stroke:#000000;stroke-width:1.5;"/><line style="stroke:#000000;stroke-width:1.5;" x1="454" x2="507.2989" y1="461.0799" y2="461.0799"/><text fill="#000000" font-family="sans-serif" font-size="14" font-weight="bold" lengthAdjust="spacing" textLength="40.2989" x="458" y="452.9779">talker</text></g><!--cluster tools--><g class="cluster" data-entity="tools" data-source-line="10" data-uid="ent0006" id="cluster_tools"><path d="M32.5,455.082 L67.9994,455.082 A3.75,3.75 0 0 1 70.4994,457.582 L77.4994,480.1499 L219.5,480.1499 A2.5,2.5 0 0 1 222,482.6499 L222,592.712 A2.5,2.5 0 0 1 219.5,595.212 L32.5,595.212 A2.5,2.5 0 0 1 30,592.712 L30,457.582 A2.5,2.5 0 0 1 32.5,455.082" fill="none" style="stroke:#000000;stroke-width:1.5;"/><line style="stroke:#000000;stroke-width:1.5;" x1="30" x2="77.4994" y1="480.1499" y2="480.1499"/><text fill="#000000" font-family="sans-serif" font-size="14" font-weight="bold" lengthAdjust="spacing" textLength="34.4994" x="34" y="472.0479">tools</text></g><!--cluster builder--><g class="cluster" data-entity="builder" data-source-line="16" data-uid="ent0008" id="cluster_builder"><path d="M160.5,52.602 L211.3363,52.602 A3.75,3.75 0 0 1 213.8363,55.102 L220.8363,77.6699 L516.5,77.6699 A2.5,2.5 0 0 1 519,80.1699 L519,336.512 A2.5,2.5 0 0 1 516.5,339.012 L160.5,339.012 A2.5,2.5 0 0 1 158,336.512 L158,55.102 A2.5,2.5 0 0 1 160.5,52.602" fill="none" style="stroke:#000000;stroke-width:1.5;"/><line style="stroke:#000000;stroke-width:1.5;" x1="158" x2="220.8363" y1="77.6699" y2="77.6699"/><text fill="#000000" font-family="sans-serif" font-size="14" font-weight="bold" lengthAdjust="spacing" textLength="49.8363" x="162" y="69.5679">builder</text></g><!--cluster autotune--><g class="cluster" data-entity="autotune" data-source-line="22" data-uid="ent0010" id="cluster_autotune"><path d="M309.5,98.602 L374.2838,98.602 A3.75,3.75 0 0 1 376.7838,101.102 L383.7838,123.6699 L492.5,123.6699 A2.5,2.5 0 0 1 495,126.1699 L495,312.512 A2.5,2.5 0 0 1 492.5,315.012 L309.5,315.012 A2.5,2.5 0 0 1 307,312.512 L307,101.102 A2.5,2.5 0 0 1 309.5,98.602" fill="none" style="stroke:#000000;stroke-width:1.5;"/><line style="stroke:#000000;stroke-width:1.5;" x1="307" x2="383.7838" y1="123.6699" y2="123.6699"/><text fill="#000000" font-family="sans-serif" font-size="14" font-weight="bold" lengthAdjust="spacing" textLength="63.7838" x="311" y="115.5679">autotune</text></g><!--cluster setups--><g class="cluster" data-entity="setups" data-source-line="32" data-uid="ent0012" id="cluster_setups"><path d="M649.5,127.202 L696.7488,127.202 A3.75,3.75 0 0 1 699.2488,129.702 L706.2488,152.2699 L828.5,152.2699 A2.5,2.5 0 0 1 831,154.7699 L831,283.912 A2.5,2.5 0 0 1 828.5,286.412 L649.5,286.412 A2.5,2.5 0 0 1 647,283.912 L647,129.702 A2.5,2.5 0 0 1 649.5,127.202" fill="none" style="stroke:#000000;stroke-width:1.5;"/><line style="stroke:#000000;stroke-width:1.5;" x1="647" x2="706.2488" y1="152.2699" y2="152.2699"/><text fill="#000000" font-family="sans-serif" font-size="14" font-weight="bold" lengthAdjust="spacing" textLength="46.2488" x="651" y="144.1679">setups</text></g><!--class launcher--><g class="entity" data-entity="launcher" data-source-line="5" data-uid="ent0002" id="entity_launcher"><rect fill="#F1F1F1" height="86.1358" rx="2.5" ry="2.5" style="stroke:#181818;stroke-width:0.5;" width="143.4456" x="671.28" y="493.082"/><ellipse cx="710.4116" cy="509.082" fill="#87CEEB" rx="11" ry="11" style="stroke:#181818;stroke-width:1;"/><path d="M709.4897,515.582 L705.6147,504.7851 L705.6929,504.7539 Q705.9116,505.0039 705.9429,505.5351 Q705.9741,506.0507 705.9897,506.6914 Q706.0054,507.3164 706.0054,507.957 L706.0054,515.582 L704.0679,515.582 L704.0679,502.9101 L706.771,502.9101 L710.396,513.0351 L710.3335,513.0351 L714.021,502.9101 L716.7085,502.9101 L716.7085,515.582 L714.6616,515.582 L714.6616,507.8476 Q714.6616,507.2539 714.6772,506.6601 Q714.7085,506.0664 714.7397,505.5507 Q714.771,505.0351 714.9897,504.7539 L715.0522,504.7851 L711.1304,515.582 L709.4897,515.582 Z " fill="#000000"/><text fill="#000000" font-family="sans-serif" font-size="14" lengthAdjust="spacing" textLength="57.8198" x="729.7742" y="514.514">launcher</text><line style="stroke:#181818;stroke-width:0.5;" x1="672.28" x2="813.7256" y1="525.082" y2="525.082"/><line style="stroke:#181818;stroke-width:0.5;" x1="672.28" x2="813.7256" y1="533.082" y2="533.082"/><ellipse cx="682.28" cy="548.1159" fill="#84BE84" rx="3" ry="3" style="stroke:#038048;stroke-width:1;"/><text fill="#000000" font-family="sans-serif" font-size="14" lengthAdjust="spacing" textLength="86.3377" x="691.28" y="552.0479">launch(tasks)</text><polygon fill="#4177AF" points="682.28,563.1839,678.28,569.1839,686.28,569.1839" style="stroke:#1963A0;stroke-width:1;"/><text fill="#000000" font-family="sans-serif" font-size="14" lengthAdjust="spacing" textLength="117.4456" x="691.28" y="571.1158">pool = Pool(cores)</text></g><!--class RemoteTalker--><g class="entity" data-entity="RemoteTalker" data-source-line="39" data-uid="ent0013" id="entity_RemoteTalker"><rect fill="#F1F1F1" height="124.2717" rx="2.5" ry="2.5" style="stroke:#181818;stroke-width:0.5;" width="127.4716" x="286.26" y="474.012"/><ellipse cx="303.0393" cy="490.012" fill="#ADD1B2" rx="11" ry="11" style="stroke:#181818;stroke-width:1;"/><path d="M303.1487,485.5432 Q302.2268,485.5432 301.4924,485.8557 Q300.7737,486.1682 300.2737,486.762 Q299.7737,487.3401 299.4924,488.2151 Q299.2268,489.0901 299.2268,490.1839 Q299.2268,491.6214 299.6643,492.6682 Q300.1174,493.7151 300.9612,494.262 Q301.8205,494.8089 303.133,494.8089 Q303.9143,494.8089 304.6018,494.6839 Q305.3049,494.5432 306.3049,494.2307 L306.3049,496.1057 Q305.4455,496.4339 304.6799,496.5589 Q303.9299,496.6839 302.9143,496.6839 Q300.9924,496.6839 299.6799,495.887 Q298.383,495.0745 297.7268,493.6057 Q297.0705,492.1214 297.0705,490.1526 Q297.0705,488.7307 297.4612,487.5589 Q297.8674,486.3714 298.6487,485.4964 Q299.4299,484.6214 300.5705,484.1526 Q301.7112,483.6682 303.1799,483.6682 Q304.133,483.6682 305.0237,483.8714 Q305.9299,484.0589 306.8674,484.5276 L306.0393,486.3089 Q305.258,485.9339 304.6018,485.7464 Q303.9455,485.5432 303.1487,485.5432 Z " fill="#000000"/><text fill="#000000" font-family="sans-serif" font-size="14" lengthAdjust="spacing" textLength="91.5176" x="317.4347" y="495.444">RemoteTalker</text><line style="stroke:#181818;stroke-width:0.5;" x1="287.26" x2="412.7316" y1="506.012" y2="506.012"/><ellipse cx="297.26" cy="521.0459" fill="#84BE84" rx="3" ry="3" style="stroke:#038048;stroke-width:1;"/><text fill="#000000" font-family="sans-serif" font-size="14" lengthAdjust="spacing" textLength="101.4716" x="306.26" y="524.9779">listening_start()</text><polygon fill="#4177AF" points="297.26,536.1139,293.26,542.1139,301.26,542.1139" style="stroke:#1963A0;stroke-width:1;"/><text fill="#000000" font-family="sans-serif" font-size="14" lengthAdjust="spacing" textLength="89.1797" x="306.26" y="544.0458">Thread.start()</text><line style="stroke:#181818;stroke-width:1;" x1="287.26" x2="412.7316" y1="552.1478" y2="552.1478"/><ellipse cx="297.26" cy="567.1818" fill="#84BE84" rx="3" ry="3" style="stroke:#038048;stroke-width:1;"/><text fill="#000000" font-family="sans-serif" font-size="14" lengthAdjust="spacing" textLength="99.8616" x="306.26" y="571.1138">listening_stop()</text><polygon fill="#4177AF" points="297.26,582.2497,293.26,588.2497,301.26,588.2497" style="stroke:#1963A0;stroke-width:1;"/><text fill="#000000" font-family="sans-serif" font-size="14" lengthAdjust="spacing" textLength="83.0757" x="306.26" y="590.1817">Thread.join()</text></g><!--class Talker--><g class="entity" data-entity="Talker" data-source-line="47" data-uid="ent0015" id="entity_Talker"><rect fill="#F1F1F1" height="124.2717" rx="2.5" ry="2.5" style="stroke:#181818;stroke-width:0.5;" width="165.5655" x="470.22" y="474.012"/><ellipse cx="528.5508" cy="490.012" fill="#ADD1B2" rx="11" ry="11" style="stroke:#181818;stroke-width:1;"/><path d="M528.6602,485.5432 Q527.7383,485.5432 527.0039,485.8557 Q526.2852,486.1682 525.7852,486.762 Q525.2852,487.3401 525.0039,488.2151 Q524.7383,489.0901 524.7383,490.1839 Q524.7383,491.6214 525.1758,492.6682 Q525.6289,493.7151 526.4727,494.262 Q527.3321,494.8089 528.6446,494.8089 Q529.4258,494.8089 530.1133,494.6839 Q530.8164,494.5432 531.8164,494.2307 L531.8164,496.1057 Q530.9571,496.4339 530.1914,496.5589 Q529.4414,496.6839 528.4258,496.6839 Q526.5039,496.6839 525.1914,495.887 Q523.8946,495.0745 523.2383,493.6057 Q522.5821,492.1214 522.5821,490.1526 Q522.5821,488.7307 522.9727,487.5589 Q523.3789,486.3714 524.1602,485.4964 Q524.9414,484.6214 526.0821,484.1526 Q527.2227,483.6682 528.6914,483.6682 Q529.6446,483.6682 530.5352,483.8714 Q531.4414,484.0589 532.3789,484.5276 L531.5508,486.3089 Q530.7696,485.9339 530.1133,485.7464 Q529.4571,485.5432 528.6602,485.5432 Z " fill="#000000"/><text fill="#000000" font-family="sans-serif" font-size="14" lengthAdjust="spacing" textLength="40.4038" x="549.0508" y="495.444">Talker</text><line style="stroke:#181818;stroke-width:0.5;" x1="471.22" x2="634.7855" y1="506.012" y2="506.012"/><ellipse cx="481.22" cy="521.0459" fill="#84BE84" rx="3" ry="3" style="stroke:#038048;stroke-width:1;"/><text fill="#000000" font-family="sans-serif" font-size="14" lengthAdjust="spacing" textLength="101.4716" x="490.22" y="524.9779">listening_start()</text><polygon fill="#4177AF" points="481.22,536.1139,477.22,542.1139,485.22,542.1139" style="stroke:#1963A0;stroke-width:1;"/><text fill="#000000" font-family="sans-serif" font-size="14" lengthAdjust="spacing" textLength="139.5655" x="490.22" y="544.0458">QueueListener.start()</text><line style="stroke:#181818;stroke-width:1;" x1="471.22" x2="634.7855" y1="552.1478" y2="552.1478"/><ellipse cx="481.22" cy="567.1818" fill="#84BE84" rx="3" ry="3" style="stroke:#038048;stroke-width:1;"/><text fill="#000000" font-family="sans-serif" font-size="14" lengthAdjust="spacing" textLength="99.8616" x="490.22" y="571.1138">listening_stop()</text><polygon fill="#4177AF" points="481.22,582.2497,477.22,588.2497,485.22,588.2497" style="stroke:#1963A0;stroke-width:1;"/><text fill="#000000" font-family="sans-serif" font-size="14" lengthAdjust="spacing" textLength="137.9555" x="490.22" y="590.1817">QueueListener.stop()</text></g><!--class external--><g class="entity" data-entity="external" data-source-line="10" data-uid="ent0005" id="entity_external"><rect fill="#F1F1F1" height="86.1358" rx="2.5" ry="2.5" style="stroke:#181818;stroke-width:0.5;" width="159.6015" x="46.2" y="493.082"/><ellipse cx="94.6749" cy="509.082" fill="#87CEEB" rx="11" ry="11" style="stroke:#181818;stroke-width:1;"/><path d="M93.753,515.582 L89.878,504.7851 L89.9561,504.7539 Q90.1749,505.0039 90.2061,505.5351 Q90.2374,506.0507 90.253,506.6914 Q90.2686,507.3164 90.2686,507.957 L90.2686,515.582 L88.3311,515.582 L88.3311,502.9101 L91.0342,502.9101 L94.6592,513.0351 L94.5967,513.0351 L98.2842,502.9101 L100.9717,502.9101 L100.9717,515.582 L98.9249,515.582 L98.9249,507.8476 Q98.9249,507.2539 98.9405,506.6601 Q98.9717,506.0664 99.003,505.5507 Q99.0342,505.0351 99.253,504.7539 L99.3155,504.7851 L95.3936,515.582 L93.753,515.582 Z " fill="#000000"/><text fill="#000000" font-family="sans-serif" font-size="14" lengthAdjust="spacing" textLength="54.1518" x="115.1749" y="514.514">external</text><line style="stroke:#181818;stroke-width:0.5;" x1="47.2" x2="204.8015" y1="525.082" y2="525.082"/><ellipse cx="57.2" cy="540.1159" fill="none" rx="3" ry="3" style="stroke:#038048;stroke-width:1;"/><text fill="#000000" font-family="sans-serif" font-size="14" lengthAdjust="spacing" textLength="54.1518" x="66.2" y="544.0479">external</text><line style="stroke:#181818;stroke-width:1;" x1="47.2" x2="204.8015" y1="552.1499" y2="552.1499"/><polygon fill="#4177AF" points="57.2,563.1839,53.2,569.1839,61.2,569.1839" style="stroke:#1963A0;stroke-width:1;"/><text fill="#000000" font-family="sans-serif" font-size="14" lengthAdjust="spacing" textLength="133.6015" x="66.2" y="571.1158">Process.start(target)</text></g><!--class svm--><g class="entity" data-entity="svm" data-source-line="16" data-uid="ent0007" id="entity_svm"><rect fill="#F1F1F1" height="105.2038" rx="2.5" ry="2.5" style="stroke:#181818;stroke-width:0.5;" width="114.8857" x="173.56" y="165.202"/><ellipse cx="213.75" cy="181.202" fill="#87CEEB" rx="11" ry="11" style="stroke:#181818;stroke-width:1;"/><path d="M212.8281,187.702 L208.9531,176.9051 L209.0312,176.8739 Q209.25,177.1239 209.2812,177.6551 Q209.3125,178.1707 209.3281,178.8114 Q209.3437,179.4364 209.3437,180.077 L209.3437,187.702 L207.4062,187.702 L207.4062,175.0301 L210.1094,175.0301 L213.7344,185.1551 L213.6719,185.1551 L217.3594,175.0301 L220.0469,175.0301 L220.0469,187.702 L218,187.702 L218,179.9676 Q218,179.3739 218.0156,178.7801 Q218.0469,178.1864 218.0781,177.6707 Q218.1094,177.1551 218.3281,176.8739 L218.3906,176.9051 L214.4687,187.702 L212.8281,187.702 Z " fill="#000000"/><text fill="#000000" font-family="sans-serif" font-size="14" lengthAdjust="spacing" textLength="26.9079" x="233.3478" y="186.634">svm</text><line style="stroke:#181818;stroke-width:0.5;" x1="174.56" x2="287.4457" y1="197.202" y2="197.202"/><line style="stroke:#181818;stroke-width:0.5;" x1="174.56" x2="287.4457" y1="205.202" y2="205.202"/><ellipse cx="184.56" cy="220.2359" fill="#84BE84" rx="3" ry="3" style="stroke:#038048;stroke-width:1;"/><text fill="#000000" font-family="sans-serif" font-size="14" lengthAdjust="spacing" textLength="72.3797" x="193.56" y="224.1679">compress()</text><ellipse cx="184.56" cy="239.3039" fill="#84BE84" rx="3" ry="3" style="stroke:#038048;stroke-width:1;"/><text fill="#000000" font-family="sans-serif" font-size="14" lengthAdjust="spacing" textLength="88.8857" x="193.56" y="243.2358">decompress()</text><ellipse cx="184.56" cy="258.3718" fill="#84BE84" rx="3" ry="3" style="stroke:#038048;stroke-width:1;"/><text fill="#000000" font-family="sans-serif" font-size="14" lengthAdjust="spacing" textLength="51.6738" x="193.56" y="262.3038">merge()</text></g><!--class autotune--><g class="entity" data-entity="autotune" data-source-line="22" data-uid="ent0009" id="entity_autotune"><rect fill="#F1F1F1" height="162.4075" rx="2.5" ry="2.5" style="stroke:#181818;stroke-width:0.5;" width="155.3875" x="323.31" y="136.602"/><ellipse cx="366.7067" cy="152.602" fill="#87CEEB" rx="11" ry="11" style="stroke:#181818;stroke-width:1;"/><path d="M365.7848,159.102 L361.9098,148.3051 L361.9879,148.2739 Q362.2067,148.5239 362.2379,149.0551 Q362.2692,149.5707 362.2848,150.2114 Q362.3004,150.8364 362.3004,151.477 L362.3004,159.102 L360.3629,159.102 L360.3629,146.4301 L363.0661,146.4301 L366.6911,156.5551 L366.6286,156.5551 L370.3161,146.4301 L373.0036,146.4301 L373.0036,159.102 L370.9567,159.102 L370.9567,151.3676 Q370.9567,150.7739 370.9723,150.1801 Q371.0036,149.5864 371.0348,149.0707 Q371.0661,148.5551 371.2848,148.2739 L371.3473,148.3051 L367.4254,159.102 L365.7848,159.102 Z " fill="#000000"/><text fill="#000000" font-family="sans-serif" font-size="14" lengthAdjust="spacing" textLength="60.2838" x="387.0171" y="158.034">autotune</text><line style="stroke:#181818;stroke-width:0.5;" x1="324.31" x2="477.6975" y1="168.602" y2="168.602"/><ellipse cx="334.31" cy="183.6359" fill="#84BE84" rx="3" ry="3" style="stroke:#038048;stroke-width:1;"/><text fill="#000000" font-family="sans-serif" font-size="14" lengthAdjust="spacing" textLength="120.8895" x="343.31" y="187.5679">prettytuner(setup)</text><polygon fill="#FFFF44" points="334.31,197.7039,338.31,201.7039,334.31,205.7039,330.31,201.7039" style="stroke:#B38D22;stroke-width:1;"/><text fill="#000000" font-family="sans-serif" font-size="14" lengthAdjust="spacing" textLength="109.4235" x="343.31" y="206.6358">queue = Queue()</text><polygon fill="#4177AF" points="334.31,217.7718,330.31,223.7718,338.31,223.7718" style="stroke:#1963A0;stroke-width:1;"/><text fill="#000000" font-family="sans-serif" font-size="14" lengthAdjust="spacing" textLength="129.3875" x="343.31" y="225.7038">Process.start(tuner)</text><line style="stroke:#181818;stroke-width:1;" x1="324.31" x2="477.6975" y1="233.8057" y2="233.8057"/><ellipse cx="334.31" cy="248.8397" fill="#84BE84" rx="3" ry="3" style="stroke:#038048;stroke-width:1;"/><text fill="#000000" font-family="sans-serif" font-size="14" lengthAdjust="spacing" textLength="81.3537" x="343.31" y="252.7717">tuner(setup)</text><polygon fill="#FFFF44" points="334.31,262.9076,338.31,266.9076,334.31,270.9076,330.31,266.9076" style="stroke:#B38D22;stroke-width:1;"/><text fill="#000000" font-family="sans-serif" font-size="14" lengthAdjust="spacing" textLength="86.9257" x="343.31" y="271.8396">build.model()</text><polygon fill="#FFFF44" points="334.31,281.9755,338.31,285.9755,334.31,289.9755,330.31,285.9755" style="stroke:#B38D22;stroke-width:1;"/><text fill="#000000" font-family="sans-serif" font-size="14" lengthAdjust="spacing" textLength="78.3717" x="343.31" y="290.9075">tune(phase)</text></g><!--class loop--><g class="entity" data-entity="loop" data-source-line="32" data-uid="ent0011" id="entity_loop"><rect fill="#F1F1F1" height="105.2038" rx="2.5" ry="2.5" style="stroke:#181818;stroke-width:0.5;" width="151.0615" x="663.47" y="165.202"/><ellipse cx="720.1698" cy="181.202" fill="#87CEEB" rx="11" ry="11" style="stroke:#181818;stroke-width:1;"/><path d="M719.2479,187.702 L715.3729,176.9051 L715.451,176.8739 Q715.6698,177.1239 715.701,177.6551 Q715.7323,178.1707 715.7479,178.8114 Q715.7635,179.4364 715.7635,180.077 L715.7635,187.702 L713.826,187.702 L713.826,175.0301 L716.5292,175.0301 L720.1542,185.1551 L720.0917,185.1551 L723.7792,175.0301 L726.4667,175.0301 L726.4667,187.702 L724.4198,187.702 L724.4198,179.9676 Q724.4198,179.3739 724.4354,178.7801 Q724.4667,178.1864 724.4979,177.6707 Q724.5292,177.1551 724.7479,176.8739 L724.8104,176.9051 L720.8885,187.702 L719.2479,187.702 Z " fill="#000000"/><text fill="#000000" font-family="sans-serif" font-size="14" lengthAdjust="spacing" textLength="29.1619" x="740.6698" y="186.634">loop</text><line style="stroke:#181818;stroke-width:0.5;" x1="664.47" x2="813.5315" y1="197.202" y2="197.202"/><ellipse cx="674.47" cy="212.2359" fill="#84BE84" rx="3" ry="3" style="stroke:#038048;stroke-width:1;"/><text fill="#000000" font-family="sans-serif" font-size="14" lengthAdjust="spacing" textLength="89.4596" x="683.47" y="216.1679">launch(setup)</text><line style="stroke:#181818;stroke-width:1;" x1="664.47" x2="813.5315" y1="224.2699" y2="224.2699"/><ellipse cx="674.47" cy="239.3039" fill="#84BE84" rx="3" ry="3" style="stroke:#038048;stroke-width:1;"/><text fill="#000000" font-family="sans-serif" font-size="14" lengthAdjust="spacing" textLength="99.4976" x="683.47" y="243.2358">oneloop(setup)</text><polygon fill="#FFFF44" points="674.47,253.3718,678.47,257.3718,674.47,261.3718,670.47,257.3718" style="stroke:#B38D22;stroke-width:1;"/><text fill="#000000" font-family="sans-serif" font-size="14" lengthAdjust="spacing" textLength="125.0615" x="683.47" y="262.3038">evaluation.launch()</text></g><!--link svm to external--><g class="link" data-entity-1="svm" data-entity-2="external" data-source-line="56" data-uid="lnk17" id="link_svm_external"><path codeLine="56" d="M213.78,270.692 C193.18,332.742 161.0011,429.7178 141.9211,487.1678" fill="none" id="svm-to-external" style="stroke:#181818;stroke-width:1;stroke-dasharray:7,7;"/><polygon fill="#181818" points="140.03,492.862,146.6628,485.5815,141.6059,488.1168,139.0706,483.06,140.03,492.862" style="stroke:#181818;stroke-width:1;"/><text fill="#000000" font-family="sans-serif" font-size="13" lengthAdjust="spacing" textLength="37.375" x="185.79" y="369.909">target</text></g><!--link loop to launcher--><g class="link" data-entity-1="loop" data-entity-2="launcher" data-source-line="57" data-uid="lnk18" id="link_loop_launcher"><path codeLine="57" d="M739.66,270.692 C740.44,332.742 741.6638,429.4125 742.3938,486.8625" fill="none" id="loop-to-launcher" style="stroke:#181818;stroke-width:1;stroke-dasharray:7,7;"/><polygon fill="#181818" points="742.47,492.862,746.3553,483.8119,742.4065,487.8624,738.356,483.9135,742.47,492.862" style="stroke:#181818;stroke-width:1;"/></g><!--link autotune to launcher--><g class="link" data-entity-1="autotune" data-entity-2="launcher" data-source-line="58" data-uid="lnk19" id="link_autotune_launcher"><path codeLine="58" d="M479,257.262 C532.26,286.262 601.95,329.902 652,382.012 C683.28,414.572 705.8693,454.3997 721.7493,487.2597" fill="none" id="autotune-to-launcher" style="stroke:#181818;stroke-width:1;stroke-dasharray:7,7;"/><polygon fill="#181818" points="724.36,492.662,724.0454,482.8181,722.1844,488.1601,716.8425,486.2991,724.36,492.662" style="stroke:#181818;stroke-width:1;"/></g><!--SRC=[ZLFBJiCm4BpxArRYugZW3q2b5wuW0UeTkScg3N6ymMjNL8X-EtQIlfEgboJxc9t9UinLQHljT0qBdLTBHy4MpsJ8WNVQSYoXzKA8t6XcO39hTCr6USsLCZhOV8KEfbEGh_TSRHOcO0Qp6VmAW0bq3J8rSnOpMsY833p1Mtp9d1p6zD_by5XbXJyUdTLcP7eSl-j8qSD3UcxXpL6Ep8gzTZuokoNw8Ov5A4s1Jl6w7YV8gMwYHfPP5nTudgan4iWChZ3euCa7Y_kFSRuusljDwd6IqOUcPRc3xu01uzhUqxkZllZJ1CeEcvZ0vPXMaQgfG2FxL6gIpKep3Ysf1RCoHCsuwFwG3qGx0MGn8Kyau5gRe7r9jdUF73H0SfV3cZnwRQgun8yscBV1dhXaZxQqoyzk1VrUvYk7kb17kPsWOq3KTTh_HQKT5zFBk4b0UqelRIqPx5OTvx2s4kM8GSygDHkzC8_G-LuC7kGfylWUYnkyUmKj_W40]--></g></svg>