<svg xmlns="http://www.w3.org/2000/svg" xmlns:xlink="http://www.w3.org/1999/xlink" contentStyleType="text/css" data-diagram-type="CLASS" height="922px" preserveAspectRatio="none" style="width:425px;height:922px;" version="1.1" viewBox="0 0 425 922" width="425px" zoomAndPan="magnify"><defs/><g><!--cluster solverpy--><g class="cluster" data-entity="solverpy" data-source-line="4" data-uid="ent0003" id="cluster_solverpy"><path d="M8.5,6.602 L68.3278,6.602 A3.75,3.75 0 0 1 70.8278,9.102 L77.8278,31.6699 L415.5,31.6699 A2.5,2.5 0 0 1 418,34.1699 L418,913.322 A2.5,2.5 0 0 1 415.5,915.822 L8.5,915.822 A2.5,2.5 0 0 1 6,913.322 L6,9.102 A2.5,2.5 0 0 1 8.5,6.602" fill="none" style="stroke:#000000;stroke-width:1.5;"/><line style="stroke:#000000;stroke-width:1.5;" x1="6" x2="77.8278" y1="31.6699" y2="31.6699"/><text fill="#000000" font-family="sans-serif" font-size="14" font-weight="bold" lengthAdjust="spacing" textLength="58.8278" x="10" y="23.5679">solverpy</text></g><!--cluster builder--><g class="cluster" data-entity="builder" data-source-line="4" data-uid="ent0004" id="cluster_builder"><path d="M32.5,52.602 L83.3363,52.602 A3.75,3.75 0 0 1 85.8363,55.102 L92.8363,77.6699 L391.5,77.6699 A2.5,2.5 0 0 1 394,80.1699 L394,889.322 A2.5,2.5 0 0 1 391.5,891.822 L32.5,891.822 A2.5,2.5 0 0 1 30,889.322 L30,55.102 A2.5,2.5 0 0 1 32.5,52.602" fill="none" style="stroke:#000000;stroke-width:1.5;"/><line style="stroke:#000000;stroke-width:1.5;" x1="30" x2="92.8363" y1="77.6699" y2="77.6699"/><text fill="#000000" font-family="sans-serif" font-size="14" font-weight="bold" lengthAdjust="spacing" textLength="49.8363" x="34" y="69.5679">builder</text></g><!--cluster autotune--><g class="cluster" data-entity="autotune" data-source-line="4" data-uid="ent0005" id="cluster_autotune"><path d="M56.5,98.602 L121.2838,98.602 A3.75,3.75 0 0 1 123.7838,101.102 L130.7838,123.6699 L367.5,123.6699 A2.5,2.5 0 0 1 370,126.1699 L370,865.322 A2.5,2.5 0 0 1 367.5,867.822 L56.5,867.822 A2.5,2.5 0 0 1 54,865.322 L54,101.102 A2.5,2.5 0 0 1 56.5,98.602" fill="none" style="stroke:#000000;stroke-width:1.5;"/><line style="stroke:#000000;stroke-width:1.5;" x1="54" x2="130.7838" y1="123.6699" y2="123.6699"/><text fill="#000000" font-family="sans-serif" font-size="14" font-weight="bold" lengthAdjust="spacing" textLength="63.7838" x="58" y="115.5679">autotune</text></g><!--class autotune--><g class="entity" data-entity="autotune" data-source-line="4" data-uid="ent0002" id="entity_autotune"><rect fill="#F1F1F1" height="124.2717" rx="2.5" ry="2.5" style="stroke:#181818;stroke-width:0.5;" width="198.0174" x="112.99" y="136.602"/><ellipse cx="177.6068" cy="152.602" fill="#87CEEB" rx="11" ry="11" style="stroke:#181818;stroke-width:1;"/><path d="M176.6849,159.102 L172.8099,148.3051 L172.888,148.2739 Q173.1068,148.5239 173.138,149.0551 Q173.1693,149.5707 173.1849,150.2114 Q173.2005,150.8364 173.2005,151.477 L173.2005,159.102 L171.263,159.102 L171.263,146.4301 L173.9662,146.4301 L177.5912,156.5551 L177.5287,156.5551 L181.2162,146.4301 L183.9037,146.4301 L183.9037,159.102 L181.8568,159.102 L181.8568,151.3676 Q181.8568,150.7739 181.8724,150.1801 Q181.9037,149.5864 181.9349,149.0707 Q181.9662,148.5551 182.1849,148.2739 L182.2474,148.3051 L178.3255,159.102 L176.6849,159.102 Z " fill="#000000"/><text fill="#000000" font-family="sans-serif" font-size="14" lengthAdjust="spacing" textLength="60.2838" x="198.1068" y="158.034">autotune</text><line style="stroke:#181818;stroke-width:0.5;" x1="113.99" x2="310.0074" y1="168.602" y2="168.602"/><polygon fill="none" points="123.99,178.6359,127.99,182.6359,123.99,186.6359,119.99,182.6359" style="stroke:#B38D22;stroke-width:1;"/><text fill="#000000" font-family="sans-serif" font-size="14" lengthAdjust="spacing" text-decoration="underline" textLength="172.0174" x="132.99" y="187.5679">PHASES : dict[str, Callable]</text><polygon fill="none" points="123.99,197.7039,127.99,201.7039,123.99,205.7039,119.99,201.7039" style="stroke:#B38D22;stroke-width:1;"/><text fill="#000000" font-family="sans-serif" font-size="14" lengthAdjust="spacing" text-decoration="underline" textLength="161.1674" x="132.99" y="206.6358">DEFAULTS : dict[str, Any]</text><line style="stroke:#181818;stroke-width:1;" x1="113.99" x2="310.0074" y1="214.7378" y2="214.7378"/><ellipse cx="123.99" cy="229.7718" fill="#84BE84" rx="3" ry="3" style="stroke:#038048;stroke-width:1;"/><text fill="#000000" font-family="sans-serif" font-size="14" lengthAdjust="spacing" textLength="100.5476" x="132.99" y="233.7038">tuner(...) : tuple</text><ellipse cx="123.99" cy="248.8397" fill="#84BE84" rx="3" ry="3" style="stroke:#038048;stroke-width:1;"/><text fill="#000000" font-family="sans-serif" font-size="14" lengthAdjust="spacing" textLength="140.0835" x="132.99" y="252.7717">prettytuner(...) : tuple</text></g><!--class tune--><g class="entity" data-entity="tune" data-source-line="12" data-uid="ent0006" id="entity_tune"><rect fill="#F1F1F1" height="162.4075" rx="2.5" ry="2.5" style="stroke:#181818;stroke-width:0.5;" width="192.9493" x="115.53" y="320.872"/><ellipse cx="192.6277" cy="336.872" fill="#87CEEB" rx="11" ry="11" style="stroke:#181818;stroke-width:1;"/><path d="M191.7058,343.372 L187.8308,332.5751 L187.909,332.5439 Q188.1277,332.7939 188.159,333.3251 Q188.1902,333.8407 188.2058,334.4814 Q188.2215,335.1064 188.2215,335.747 L188.2215,343.372 L186.284,343.372 L186.284,330.7001 L188.9871,330.7001 L192.6121,340.8251 L192.5496,340.8251 L196.2371,330.7001 L198.9246,330.7001 L198.9246,343.372 L196.8777,343.372 L196.8777,335.6376 Q196.8777,335.0439 196.8933,334.4501 Q196.9246,333.8564 196.9558,333.3407 Q196.9871,332.8251 197.2058,332.5439 L197.2683,332.5751 L193.3465,343.372 L191.7058,343.372 Z " fill="#000000"/><text fill="#000000" font-family="sans-serif" font-size="14" lengthAdjust="spacing" textLength="30.2539" x="213.1277" y="342.304">tune</text><line style="stroke:#181818;stroke-width:0.5;" x1="116.53" x2="307.4793" y1="352.872" y2="352.872"/><line style="stroke:#181818;stroke-width:1;" x1="116.53" x2="307.4793" y1="360.872" y2="360.872"/><polygon fill="#FFFF44" points="126.53,370.9059,130.53,374.9059,126.53,378.9059,122.53,374.9059" style="stroke:#B38D22;stroke-width:1;"/><text fill="#000000" font-family="sans-serif" font-size="14" lengthAdjust="spacing" textLength="123.2975" x="135.53" y="379.8379">tune() : TuneResult</text><ellipse cx="126.53" cy="394.9739" fill="#84BE84" rx="3" ry="3" style="stroke:#038048;stroke-width:1;"/><text fill="#000000" font-family="sans-serif" font-size="14" lengthAdjust="spacing" textLength="166.9493" x="135.53" y="398.9058">leaves_grid() : TuneResult</text><ellipse cx="126.53" cy="414.0418" fill="#84BE84" rx="3" ry="3" style="stroke:#038048;stroke-width:1;"/><text fill="#000000" font-family="sans-serif" font-size="14" lengthAdjust="spacing" textLength="147.6014" x="135.53" y="417.9738">bagging() : TuneResult</text><ellipse cx="126.53" cy="433.1097" fill="#84BE84" rx="3" ry="3" style="stroke:#038048;stroke-width:1;"/><text fill="#000000" font-family="sans-serif" font-size="14" lengthAdjust="spacing" textLength="153.9854" x="135.53" y="437.0417">min_data() : TuneResult</text><ellipse cx="126.53" cy="452.1776" fill="#84BE84" rx="3" ry="3" style="stroke:#038048;stroke-width:1;"/><text fill="#000000" font-family="sans-serif" font-size="14" lengthAdjust="spacing" textLength="141.2314" x="135.53" y="456.1096">regular() : TuneResult</text><ellipse cx="126.53" cy="471.2455" fill="#84BE84" rx="3" ry="3" style="stroke:#038048;stroke-width:1;"/><text fill="#000000" font-family="sans-serif" font-size="14" lengthAdjust="spacing" textLength="131.8655" x="135.53" y="475.1775">depth() : TuneResult</text></g><!--class check--><g class="entity" data-entity="check" data-source-line="22" data-uid="ent0007" id="entity_check"><rect fill="#F1F1F1" height="162.4075" rx="2.5" ry="2.5" style="stroke:#181818;stroke-width:0.5;" width="136.1796" x="143.91" y="543.282"/><ellipse cx="189.0179" cy="559.282" fill="#87CEEB" rx="11" ry="11" style="stroke:#181818;stroke-width:1;"/><path d="M188.096,565.782 L184.221,554.9851 L184.2991,554.9539 Q184.5179,555.2039 184.5491,555.7351 Q184.5804,556.2507 184.596,556.8914 Q184.6116,557.5164 184.6116,558.157 L184.6116,565.782 L182.6741,565.782 L182.6741,553.1101 L185.3772,553.1101 L189.0022,563.2351 L188.9397,563.2351 L192.6272,553.1101 L195.3147,553.1101 L195.3147,565.782 L193.2679,565.782 L193.2679,558.0476 Q193.2679,557.4539 193.2835,556.8601 Q193.3147,556.2664 193.346,555.7507 Q193.3772,555.2351 193.596,554.9539 L193.6585,554.9851 L189.7366,565.782 L188.096,565.782 Z " fill="#000000"/><text fill="#000000" font-family="sans-serif" font-size="14" lengthAdjust="spacing" textLength="37.4638" x="209.5179" y="564.714">check</text><line style="stroke:#181818;stroke-width:0.5;" x1="144.91" x2="279.0896" y1="575.282" y2="575.282"/><line style="stroke:#181818;stroke-width:1;" x1="144.91" x2="279.0896" y1="583.282" y2="583.282"/><polygon fill="#FFFF44" points="154.91,593.3159,158.91,597.3159,154.91,601.3159,150.91,597.3159" style="stroke:#B38D22;stroke-width:1;"/><text fill="#000000" font-family="sans-serif" font-size="14" lengthAdjust="spacing" textLength="86.7016" x="163.91" y="602.2479">check() : float</text><ellipse cx="154.91" cy="617.3839" fill="#84BE84" rx="3" ry="3" style="stroke:#038048;stroke-width:1;"/><text fill="#000000" font-family="sans-serif" font-size="14" lengthAdjust="spacing" textLength="90.3136" x="163.91" y="621.3158">leaves() : float</text><ellipse cx="154.91" cy="636.4518" fill="#84BE84" rx="3" ry="3" style="stroke:#038048;stroke-width:1;"/><text fill="#000000" font-family="sans-serif" font-size="14" lengthAdjust="spacing" textLength="103.7956" x="163.91" y="640.3838">bagging() : float</text><ellipse cx="154.91" cy="655.5197" fill="#84BE84" rx="3" ry="3" style="stroke:#038048;stroke-width:1;"/><text fill="#000000" font-family="sans-serif" font-size="14" lengthAdjust="spacing" textLength="110.1796" x="163.91" y="659.4517">min_data() : float</text><ellipse cx="154.91" cy="674.5876" fill="#84BE84" rx="3" ry="3" style="stroke:#038048;stroke-width:1;"/><text fill="#000000" font-family="sans-serif" font-size="14" lengthAdjust="spacing" textLength="97.4256" x="163.91" y="678.5196">regular() : float</text><ellipse cx="154.91" cy="693.6555" fill="#84BE84" rx="3" ry="3" style="stroke:#038048;stroke-width:1;"/><text fill="#000000" font-family="sans-serif" font-size="14" lengthAdjust="spacing" textLength="88.0597" x="163.91" y="697.5875">depth() : float</text></g><!--class build--><g class="entity" data-entity="build" data-source-line="32" data-uid="ent0008" id="entity_build"><rect fill="#F1F1F1" height="86.1358" rx="2.5" ry="2.5" style="stroke:#181818;stroke-width:0.5;" width="283.151" x="70.42" y="765.682"/><ellipse cx="191.1976" cy="781.682" fill="#87CEEB" rx="11" ry="11" style="stroke:#181818;stroke-width:1;"/><path d="M190.2757,788.182 L186.4007,777.3851 L186.4788,777.3539 Q186.6976,777.6039 186.7288,778.1351 Q186.7601,778.6507 186.7757,779.2914 Q186.7913,779.9164 186.7913,780.557 L186.7913,788.182 L184.8538,788.182 L184.8538,775.5101 L187.557,775.5101 L191.182,785.6351 L191.1195,785.6351 L194.807,775.5101 L197.4945,775.5101 L197.4945,788.182 L195.4476,788.182 L195.4476,780.4476 Q195.4476,779.8539 195.4632,779.2601 Q195.4945,778.6664 195.5257,778.1507 Q195.557,777.6351 195.7757,777.3539 L195.8382,777.3851 L191.9163,788.182 L190.2757,788.182 Z " fill="#000000"/><text fill="#000000" font-family="sans-serif" font-size="14" lengthAdjust="spacing" textLength="33.0959" x="211.6976" y="787.114">build</text><line style="stroke:#181818;stroke-width:0.5;" x1="71.42" x2="352.571" y1="797.682" y2="797.682"/><line style="stroke:#181818;stroke-width:1;" x1="71.42" x2="352.571" y1="805.682" y2="805.682"/><ellipse cx="81.42" cy="820.7159" fill="#84BE84" rx="3" ry="3" style="stroke:#038048;stroke-width:1;"/><text fill="#000000" font-family="sans-serif" font-size="14" lengthAdjust="spacing" textLength="235.3671" x="90.42" y="824.6479">accuracy(...) : tuple[float, float, float]</text><ellipse cx="81.42" cy="839.7839" fill="#84BE84" rx="3" ry="3" style="stroke:#038048;stroke-width:1;"/><text fill="#000000" font-family="sans-serif" font-size="14" lengthAdjust="spacing" textLength="257.151" x="90.42" y="843.7158">model(...) : tuple[Booster, dict[str, Any]]</text></g><!--link autotune to tune--><g class="link" data-entity-1="autotune" data-entity-2="tune" data-source-line="38" data-uid="lnk9" id="link_autotune_tune"><path codeLine="38" d="M212,261.242 C212,279.972 212,294.852 212,314.642" fill="none" id="autotune-to-tune" style="stroke:#181818;stroke-width:1;stroke-dasharray:7,7;"/><polygon fill="#181818" points="212,320.642,216,311.642,212,315.642,208,311.642,212,320.642" style="stroke:#181818;stroke-width:1;"/></g><!--link tune to check--><g class="link" data-entity-1="tune" data-entity-2="check" data-source-line="40" data-uid="lnk10" id="link_tune_check"><path codeLine="40" d="M212,483.582 C212,502.892 212,517.512 212,536.822" fill="none" id="tune-to-check" style="stroke:#181818;stroke-width:1;stroke-dasharray:7,7;"/><polygon fill="#181818" points="212,542.822,216,533.822,212,537.822,208,533.822,212,542.822" style="stroke:#181818;stroke-width:1;"/></g><!--link check to build--><g class="link" data-entity-1="check" data-entity-2="build" data-source-line="42" data-uid="lnk11" id="link_check_build"><path codeLine="42" d="M212,705.962 C212,726.562 212,741.892 212,759.682" fill="none" id="check-to-build" style="stroke:#181818;stroke-width:1;stroke-dasharray:7,7;"/><polygon fill="#181818" points="212,765.682,216,756.682,212,760.682,208,756.682,212,765.682" style="stroke:#181818;stroke-width:1;"/></g><!--SRC=[ZPD1Qy9048Nl-HK3NXGrFw28O5jB3osKQayYCjbCOyYw6tPdXI3-zoOhD8c4c4iItdkysO-Ts2nLEHeyGOGYIunsAdxHKXjWWygM5YaE0Y7HMh1QdidaHHYvLCPaGdIisIdw_u350iQVCviLaNGqWUKIBW70nJ9oAgumWg_trMQzWIU8Ky4xosO6BoWbHfBsxUJh-ctryx5jPrUgg6BpUVcOGZNIZCCmd9GXThaaB-U6c8iEy_gOf8V23ntveUEgSrj-V9DralrKINWcUqXC6dVP4IP9gf8kwvIgGuoCNPwXn4aqNLPCEH_lZG68uaWYwsVq4L_zApKs-Ux49bMjje1gkSbIgpN6JHj0u8K-WYcW4CwWA5eBiFCJPj1yxMydrZ79TlPPQyjKxbnx-_RL0GVy2M6uVB1cVJK3AlmTzNNSxhc_n0j1y0S0]--></g></svg>