<svg xmlns="http://www.w3.org/2000/svg" xmlns:xlink="http://www.w3.org/1999/xlink" contentStyleType="text/css" data-diagram-type="CLASS" height="145px" preserveAspectRatio="none" style="width:226px;height:145px;" version="1.1" viewBox="0 0 226 145" width="226px" zoomAndPan="magnify"><defs/><g><!--class Legend--><g class="entity" data-entity="Legend" data-source-line="4" data-uid="ent0002" id="entity_Legend"><rect fill="#F1F1F1" height="124.2717" rx="2.5" ry="2.5" style="stroke:#181818;stroke-width:0.5;" width="205.7733" x="7" y="7"/><ellipse cx="81.1367" cy="23" fill="#ADD1B2" rx="11" ry="11" style="stroke:#181818;stroke-width:1;"/><path d="M81.2461,18.5313 Q80.3242,18.5313 79.5899,18.8438 Q78.8711,19.1563 78.3711,19.75 Q77.8711,20.3281 77.5899,21.2031 Q77.3242,22.0781 77.3242,23.1719 Q77.3242,24.6094 77.7617,25.6563 Q78.2149,26.7031 79.0586,27.25 Q79.918,27.7969 81.2305,27.7969 Q82.0117,27.7969 82.6992,27.6719 Q83.4024,27.5313 84.4024,27.2188 L84.4024,29.0938 Q83.543,29.4219 82.7774,29.5469 Q82.0274,29.6719 81.0117,29.6719 Q79.0899,29.6719 77.7774,28.875 Q76.4805,28.0625 75.8242,26.5938 Q75.168,25.1094 75.168,23.1406 Q75.168,21.7188 75.5586,20.5469 Q75.9649,19.3594 76.7461,18.4844 Q77.5274,17.6094 78.668,17.1406 Q79.8086,16.6563 81.2774,16.6563 Q82.2305,16.6563 83.1211,16.8594 Q84.0274,17.0469 84.9649,17.5156 L84.1367,19.2969 Q83.3555,18.9219 82.6992,18.7344 Q82.043,18.5313 81.2461,18.5313 Z " fill="#000000"/><text fill="#000000" font-family="sans-serif" font-size="14" lengthAdjust="spacing" textLength="48.9998" x="101.6367" y="28.432">Legend</text><line style="stroke:#181818;stroke-width:0.5;" x1="8" x2="211.7733" y1="39" y2="39"/><line style="stroke:#181818;stroke-width:0.5;" x1="8" x2="211.7733" y1="47" y2="47"/><ellipse cx="18" cy="62.034" fill="#84BE84" rx="3" ry="3" style="stroke:#038048;stroke-width:1;"/><text fill="#000000" font-family="sans-serif" font-size="14" lengthAdjust="spacing" textLength="143.8774" x="27" y="65.9659">function (method call)</text><rect fill="#F24D5C" height="6" style="stroke:#C82930;stroke-width:1;" width="6" x="15" y="78.1019"/><text fill="#000000" font-family="sans-serif" font-size="14" lengthAdjust="spacing" textLength="179.7733" x="27" y="85.0339">communication (primitives)</text><polygon fill="#FFFF44" points="18,95.1698,22,99.1698,18,103.1698,14,99.1698" style="stroke:#B38D22;stroke-width:1;"/><text fill="#000000" font-family="sans-serif" font-size="14" lengthAdjust="spacing" textLength="133.6995" x="27" y="104.1018">code lines (snippets)</text><polygon fill="#4177AF" points="18,115.2377,14,121.2377,22,121.2377" style="stroke:#1963A0;stroke-width:1;"/><text fill="#000000" font-family="sans-serif" font-size="14" lengthAdjust="spacing" textLength="177.0013" x="27" y="123.1697">thread/process (launching)</text></g><!--SRC=[9Sqn3i8m343HFQUmn5A448TWvHB6CQtLn8vYbmN1sGbqVb_wleesx5ZXZhJEtJRDLolM8Jgg3sADbAYWEznuPitmIW1mWiUc568AK-LOB0DXASUVdO6iras5S0zQboeXJ_Q_7uPdXYBA3fEhjCQnqmTYwOpvqheHZ-TKS7mMqVcOtby0]--></g></svg>