<svg xmlns="http://www.w3.org/2000/svg" xmlns:xlink="http://www.w3.org/1999/xlink" contentStyleType="text/css" data-diagram-type="CLASS" height="874px" preserveAspectRatio="none" style="width:1021px;height:874px;" version="1.1" viewBox="0 0 1021 874" width="1021px" zoomAndPan="magnify"><defs/><g><!--class Setup--><g class="entity" data-entity="Setup" data-source-line="4" data-uid="ent0002" id="entity_Setup"><rect fill="#F1F1F1" height="181.4754" rx="2.5" ry="2.5" style="stroke:#181818;stroke-width:0.5;" width="167.9875" x="524.86" y="94.71"/><ellipse cx="585.6548" cy="110.71" fill="#7E57C2" rx="11" ry="11" style="stroke:#181818;stroke-width:1;"/><path d="M592.311,110.7569 Q592.311,112.8663 591.5142,114.3194 Q590.7173,115.7569 589.2329,116.4913 Q587.7642,117.21 585.7017,117.21 L582.061,117.21 L582.061,104.5381 L586.061,104.5381 Q587.9517,104.5381 589.3579,105.2569 Q590.7642,105.96 591.5298,107.3506 Q592.311,108.7413 592.311,110.7569 Z M590.1704,110.8038 Q590.1704,109.2569 589.6704,108.2881 Q589.1704,107.3194 588.2017,106.8506 Q587.2329,106.3819 585.8423,106.3819 L584.1079,106.3819 L584.1079,115.3663 L585.4985,115.3663 Q587.8579,115.3663 589.0142,114.2413 Q590.1704,113.1006 590.1704,110.8038 Z " fill="#000000"/><text fill="#000000" font-family="sans-serif" font-size="14" lengthAdjust="spacing" textLength="37.8979" x="606.1548" y="116.142">Setup</text><line style="stroke:#181818;stroke-width:0.5;" x1="525.86" x2="691.8475" y1="126.71" y2="126.71"/><ellipse cx="535.86" cy="141.744" fill="none" rx="3" ry="3" style="stroke:#038048;stroke-width:1;"/><text fill="#000000" font-family="sans-serif" font-size="14" lengthAdjust="spacing" textLength="124.3056" x="544.86" y="145.6759">strategies : list[Sid]</text><ellipse cx="535.86" cy="160.8119" fill="none" rx="3" ry="3" style="stroke:#038048;stroke-width:1;"/><text fill="#000000" font-family="sans-serif" font-size="14" lengthAdjust="spacing" textLength="141.9875" x="544.86" y="164.7439">benchmarks : list[Bid]</text><ellipse cx="535.86" cy="179.8798" fill="none" rx="3" ry="3" style="stroke:#038048;stroke-width:1;"/><text fill="#000000" font-family="sans-serif" font-size="14" lengthAdjust="spacing" textLength="95.4377" x="544.86" y="183.8118">dataname : str</text><ellipse cx="535.86" cy="198.9477" fill="none" rx="3" ry="3" style="stroke:#038048;stroke-width:1;"/><text fill="#000000" font-family="sans-serif" font-size="14" lengthAdjust="spacing" textLength="106.7776" x="544.86" y="202.8797">solver : SolverPy</text><ellipse cx="535.86" cy="218.0156" fill="none" rx="3" ry="3" style="stroke:#038048;stroke-width:1;"/><text fill="#000000" font-family="sans-serif" font-size="14" lengthAdjust="spacing" textLength="47.5718" x="544.86" y="221.9476">db : DB</text><ellipse cx="535.86" cy="237.0835" fill="none" rx="3" ry="3" style="stroke:#038048;stroke-width:1;"/><text fill="#000000" font-family="sans-serif" font-size="14" lengthAdjust="spacing" textLength="105.0696" x="544.86" y="241.0155">builder : Builder</text><line style="stroke:#181818;stroke-width:1;" x1="525.86" x2="691.8475" y1="249.1175" y2="249.1175"/><ellipse cx="535.86" cy="264.1515" fill="#84BE84" rx="3" ry="3" style="stroke:#038048;stroke-width:1;"/><text fill="#000000" font-family="sans-serif" font-size="14" lengthAdjust="spacing" textLength="52.5418" x="544.86" y="268.0834">launch()</text></g><!--class SolverPy--><g class="entity" data-entity="SolverPy" data-source-line="15" data-uid="ent0003" id="entity_SolverPy"><rect fill="#F1F1F1" height="105.2038" rx="2.5" ry="2.5" style="stroke:#181818;stroke-width:0.5;" width="223.7072" x="9" y="356.25"/><ellipse cx="90.5357" cy="372.25" fill="#A9DCDF" rx="11" ry="11" style="stroke:#181818;stroke-width:1;"/><path d="M93.8795,377.5 L92.4107,373.75 L87.9732,373.75 L86.5357,377.5 L84.4107,377.5 L89.3638,364.7813 L91.1138,364.7813 L96.0357,377.5 L93.8795,377.5 Z M90.5357,368.5469 Q90.4888,368.3906 90.3638,368.0313 Q90.2388,367.6719 90.1295,367.2969 Q90.0201,366.9063 90.2232,366.8438 Q90.3795,367.0313 90.2857,367.3906 Q90.192,367.7344 90.0982,368.0313 Q90.0045,368.3125 89.9263,368.5469 L88.692,371.8594 L91.7701,371.8594 L90.5357,368.5469 Z " fill="#000000"/><text fill="#000000" font-family="sans-serif" font-size="14" font-style="italic" lengthAdjust="spacing" textLength="52.1358" x="111.0357" y="377.682">SolverPy</text><line style="stroke:#181818;stroke-width:0.5;" x1="10" x2="231.7072" y1="388.25" y2="388.25"/><polygon fill="none" points="20,398.284,24,402.284,20,406.284,16,402.284" style="stroke:#B38D22;stroke-width:1;"/><text fill="#000000" font-family="sans-serif" font-size="14" lengthAdjust="spacing" textLength="107.7996" x="29" y="407.2159">plugins : Plugins</text><line style="stroke:#181818;stroke-width:1;" x1="10" x2="231.7072" y1="415.3179" y2="415.3179"/><ellipse cx="20" cy="430.3519" fill="#84BE84" rx="3" ry="3" style="stroke:#038048;stroke-width:1;"/><text fill="#000000" font-family="sans-serif" font-size="14" font-style="italic" lengthAdjust="spacing" textLength="197.7072" x="29" y="434.2839">solve(problem, strategy) : Result</text><ellipse cx="20" cy="449.4198" fill="#84BE84" rx="3" ry="3" style="stroke:#038048;stroke-width:1;"/><text fill="#000000" font-family="sans-serif" font-size="14" lengthAdjust="spacing" textLength="128.7015" x="29" y="453.3518">solved(result) : bool</text></g><!--class Plugin--><g class="entity" data-entity="Plugin" data-source-line="22" data-uid="ent0004" id="entity_Plugin"><rect fill="#F1F1F1" height="183.8195" rx="2.5" ry="2.5" style="stroke:#181818;stroke-width:0.5;" width="118.2876" x="61.71" y="559.52"/><ellipse cx="96.8949" cy="582.226" fill="#A9DCDF" rx="11" ry="11" style="stroke:#181818;stroke-width:1;"/><path d="M100.2386,587.476 L98.7699,583.726 L94.3324,583.726 L92.8949,587.476 L90.7699,587.476 L95.723,574.7573 L97.473,574.7573 L102.3949,587.476 L100.2386,587.476 Z M96.8949,578.5229 Q96.848,578.3666 96.723,578.0073 Q96.598,577.6479 96.4886,577.2729 Q96.3793,576.8823 96.5824,576.8198 Q96.7386,577.0073 96.6449,577.3666 Q96.5511,577.7104 96.4574,578.0073 Q96.3636,578.2885 96.2855,578.5229 L95.0511,581.8354 L98.1293,581.8354 L96.8949,578.5229 Z " fill="#000000"/><text fill="#000000" font-family="sans-serif" font-size="12" font-style="italic" lengthAdjust="spacing" textLength="45.4323" x="113.3804" y="577.3481">&#171;plugin&#187;</text><text fill="#000000" font-family="sans-serif" font-size="14" font-style="italic" lengthAdjust="spacing" textLength="39.4799" x="116.3567" y="595.83">Plugin</text><line style="stroke:#181818;stroke-width:0.5;" x1="62.71" x2="178.9976" y1="604.932" y2="604.932"/><polygon fill="none" points="72.71,614.966,76.71,618.966,72.71,622.966,68.71,618.966" style="stroke:#B38D22;stroke-width:1;"/><text fill="#000000" font-family="sans-serif" font-size="14" lengthAdjust="spacing" textLength="40.7959" x="81.71" y="623.898">id : str</text><line style="stroke:#181818;stroke-width:1;" x1="62.71" x2="178.9976" y1="631.9999" y2="631.9999"/><ellipse cx="72.71" cy="647.0339" fill="#84BE84" rx="3" ry="3" style="stroke:#038048;stroke-width:1;"/><text fill="#000000" font-family="sans-serif" font-size="14" font-style="italic" lengthAdjust="spacing" textLength="92.2876" x="81.71" y="650.9659">register(solver)</text><line style="stroke:#181818;stroke-width:1;" x1="62.71" x2="178.9976" y1="659.0679" y2="659.0679"/><ellipse cx="72.71" cy="674.1018" fill="#84BE84" rx="3" ry="3" style="stroke:#038048;stroke-width:1;"/><text fill="#000000" font-family="sans-serif" font-size="14" font-style="italic" lengthAdjust="spacing" textLength="62.5938" x="81.71" y="678.0338">decorate()</text><ellipse cx="72.71" cy="693.1697" fill="#84BE84" rx="3" ry="3" style="stroke:#038048;stroke-width:1;"/><text fill="#000000" font-family="sans-serif" font-size="14" font-style="italic" lengthAdjust="spacing" textLength="52.0238" x="81.71" y="697.1017">update()</text><ellipse cx="72.71" cy="712.2377" fill="#84BE84" rx="3" ry="3" style="stroke:#038048;stroke-width:1;"/><text fill="#000000" font-family="sans-serif" font-size="14" font-style="italic" lengthAdjust="spacing" textLength="63.6437" x="81.71" y="716.1696">translate()</text><ellipse cx="72.71" cy="731.3056" fill="#84BE84" rx="3" ry="3" style="stroke:#038048;stroke-width:1;"/><text fill="#000000" font-family="sans-serif" font-size="14" font-style="italic" lengthAdjust="spacing" textLength="57.1478" x="81.71" y="735.2376">finished()</text></g><!--class SolverTask--><g class="entity" data-entity="SolverTask" data-source-line="33" data-uid="ent0005" id="entity_SolverTask"><rect fill="#F1F1F1" height="143.3396" rx="2.5" ry="2.5" style="stroke:#181818;stroke-width:0.5;" width="133.0856" x="267.31" y="337.18"/><ellipse cx="296.1285" cy="353.18" fill="#ADD1B2" rx="11" ry="11" style="stroke:#181818;stroke-width:1;"/><path d="M296.2379,348.7113 Q295.316,348.7113 294.5817,349.0238 Q293.8629,349.3363 293.3629,349.93 Q292.8629,350.5081 292.5817,351.3831 Q292.316,352.2581 292.316,353.3519 Q292.316,354.7894 292.7535,355.8363 Q293.2067,356.8831 294.0504,357.43 Q294.9098,357.9769 296.2223,357.9769 Q297.0035,357.9769 297.691,357.8519 Q298.3942,357.7113 299.3942,357.3988 L299.3942,359.2738 Q298.5348,359.6019 297.7692,359.7269 Q297.0192,359.8519 296.0035,359.8519 Q294.0817,359.8519 292.7692,359.055 Q291.4723,358.2425 290.816,356.7738 Q290.1598,355.2894 290.1598,353.3206 Q290.1598,351.8988 290.5504,350.7269 Q290.9567,349.5394 291.7379,348.6644 Q292.5192,347.7894 293.6598,347.3206 Q294.8004,346.8363 296.2692,346.8363 Q297.2223,346.8363 298.1129,347.0394 Q299.0192,347.2269 299.9567,347.6956 L299.1285,349.4769 Q298.3473,349.1019 297.691,348.9144 Q297.0348,348.7113 296.2379,348.7113 Z " fill="#000000"/><text fill="#000000" font-family="sans-serif" font-size="14" lengthAdjust="spacing" textLength="70.3777" x="313.1993" y="358.612">SolverTask</text><line style="stroke:#181818;stroke-width:0.5;" x1="268.31" x2="399.3956" y1="369.18" y2="369.18"/><ellipse cx="278.31" cy="384.214" fill="none" rx="3" ry="3" style="stroke:#038048;stroke-width:1;"/><text fill="#000000" font-family="sans-serif" font-size="14" lengthAdjust="spacing" textLength="106.7776" x="287.31" y="388.1459">solver : SolverPy</text><ellipse cx="278.31" cy="403.2819" fill="none" rx="3" ry="3" style="stroke:#038048;stroke-width:1;"/><text fill="#000000" font-family="sans-serif" font-size="14" lengthAdjust="spacing" textLength="107.0856" x="287.31" y="407.2139">benchmark : Bid</text><ellipse cx="278.31" cy="422.3498" fill="none" rx="3" ry="3" style="stroke:#038048;stroke-width:1;"/><text fill="#000000" font-family="sans-serif" font-size="14" lengthAdjust="spacing" textLength="84.6437" x="287.31" y="426.2818">problem : str</text><ellipse cx="278.31" cy="441.4177" fill="none" rx="3" ry="3" style="stroke:#038048;stroke-width:1;"/><text fill="#000000" font-family="sans-serif" font-size="14" lengthAdjust="spacing" textLength="85.0357" x="287.31" y="445.3497">strategy : Sid</text><line style="stroke:#181818;stroke-width:1;" x1="268.31" x2="399.3956" y1="453.4517" y2="453.4517"/><ellipse cx="278.31" cy="468.4856" fill="#84BE84" rx="3" ry="3" style="stroke:#038048;stroke-width:1;"/><text fill="#000000" font-family="sans-serif" font-size="14" lengthAdjust="spacing" textLength="83.1457" x="287.31" y="472.4176">run() : Result</text></g><!--class DB--><g class="entity" data-entity="DB" data-source-line="42" data-uid="ent0006" id="entity_DB"><rect fill="#F1F1F1" height="143.3396" rx="2.5" ry="2.5" style="stroke:#181818;stroke-width:0.5;" width="222.7832" x="497.46" y="337.18"/><ellipse cx="594.9417" cy="353.18" fill="#ADD1B2" rx="11" ry="11" style="stroke:#181818;stroke-width:1;"/><path d="M595.051,348.7113 Q594.1292,348.7113 593.3948,349.0238 Q592.676,349.3363 592.176,349.93 Q591.676,350.5081 591.3948,351.3831 Q591.1292,352.2581 591.1292,353.3519 Q591.1292,354.7894 591.5667,355.8363 Q592.0198,356.8831 592.8635,357.43 Q593.7229,357.9769 595.0354,357.9769 Q595.8167,357.9769 596.5042,357.8519 Q597.2073,357.7113 598.2073,357.3988 L598.2073,359.2738 Q597.3479,359.6019 596.5823,359.7269 Q595.8323,359.8519 594.8167,359.8519 Q592.8948,359.8519 591.5823,359.055 Q590.2854,358.2425 589.6292,356.7738 Q588.9729,355.2894 588.9729,353.3206 Q588.9729,351.8988 589.3635,350.7269 Q589.7698,349.5394 590.551,348.6644 Q591.3323,347.7894 592.4729,347.3206 Q593.6135,346.8363 595.0823,346.8363 Q596.0354,346.8363 596.926,347.0394 Q597.8323,347.2269 598.7698,347.6956 L597.9417,349.4769 Q597.1604,349.1019 596.5042,348.9144 Q595.8479,348.7113 595.051,348.7113 Z " fill="#000000"/><text fill="#000000" font-family="sans-serif" font-size="14" lengthAdjust="spacing" textLength="19.3199" x="615.4417" y="358.612">DB</text><line style="stroke:#181818;stroke-width:0.5;" x1="498.46" x2="719.2432" y1="369.18" y2="369.18"/><polygon fill="none" points="508.46,379.214,512.46,383.214,508.46,387.214,504.46,383.214" style="stroke:#B38D22;stroke-width:1;"/><text fill="#000000" font-family="sans-serif" font-size="14" lengthAdjust="spacing" textLength="136.0515" x="517.46" y="388.1459">providers : Providers</text><line style="stroke:#181818;stroke-width:1;" x1="498.46" x2="719.2432" y1="396.2479" y2="396.2479"/><ellipse cx="508.46" cy="411.2819" fill="#84BE84" rx="3" ry="3" style="stroke:#038048;stroke-width:1;"/><text fill="#000000" font-family="sans-serif" font-size="14" lengthAdjust="spacing" textLength="58.4358" x="517.46" y="415.2139">commit()</text><ellipse cx="508.46" cy="430.3498" fill="#84BE84" rx="3" ry="3" style="stroke:#038048;stroke-width:1;"/><text fill="#000000" font-family="sans-serif" font-size="14" lengthAdjust="spacing" textLength="196.7832" x="517.46" y="434.2818">connect(benchmark, strategy)</text><ellipse cx="508.46" cy="449.4177" fill="#84BE84" rx="3" ry="3" style="stroke:#038048;stroke-width:1;"/><text fill="#000000" font-family="sans-serif" font-size="14" lengthAdjust="spacing" textLength="138.6415" x="517.46" y="453.3497">query(tasks) : Results</text><ellipse cx="508.46" cy="468.4856" fill="#84BE84" rx="3" ry="3" style="stroke:#038048;stroke-width:1;"/><text fill="#000000" font-family="sans-serif" font-size="14" lengthAdjust="spacing" textLength="127.9035" x="517.46" y="472.4176">store(tasks, results)</text></g><!--class Builder--><g class="entity" data-entity="Builder" data-source-line="51" data-uid="ent0007" id="entity_Builder"><rect fill="#F1F1F1" height="124.2717" rx="2.5" ry="2.5" style="stroke:#181818;stroke-width:0.5;" width="220.6832" x="778.51" y="346.72"/><ellipse cx="862.4047" cy="362.72" fill="#A9DCDF" rx="11" ry="11" style="stroke:#181818;stroke-width:1;"/><path d="M865.7485,367.97 L864.2797,364.22 L859.8422,364.22 L858.4047,367.97 L856.2797,367.97 L861.2328,355.2513 L862.9828,355.2513 L867.9047,367.97 L865.7485,367.97 Z M862.4047,359.0169 Q862.3578,358.8606 862.2328,358.5013 Q862.1078,358.1419 861.9985,357.7669 Q861.8891,357.3763 862.0922,357.3138 Q862.2485,357.5013 862.1547,357.8606 Q862.061,358.2044 861.9672,358.5013 Q861.8735,358.7825 861.7953,359.0169 L860.561,362.3294 L863.6391,362.3294 L862.4047,359.0169 Z " fill="#000000"/><text fill="#000000" font-family="sans-serif" font-size="14" font-style="italic" lengthAdjust="spacing" textLength="44.3938" x="882.9047" y="368.152">Builder</text><line style="stroke:#181818;stroke-width:0.5;" x1="779.51" x2="998.1932" y1="378.72" y2="378.72"/><polygon fill="none" points="789.51,388.754,793.51,392.754,789.51,396.754,785.51,392.754" style="stroke:#B38D22;stroke-width:1;"/><text fill="#000000" font-family="sans-serif" font-size="14" lengthAdjust="spacing" textLength="95.4377" x="798.51" y="397.6859">dataname : str</text><ellipse cx="789.51" cy="412.8219" fill="none" rx="3" ry="3" style="stroke:#038048;stroke-width:1;"/><text fill="#000000" font-family="sans-serif" font-size="14" font-style="italic" lengthAdjust="spacing" textLength="116.2975" x="798.51" y="416.7539">strategies : list[Sid]</text><line style="stroke:#181818;stroke-width:1;" x1="779.51" x2="998.1932" y1="424.8558" y2="424.8558"/><ellipse cx="789.51" cy="439.8898" fill="#84BE84" rx="3" ry="3" style="stroke:#038048;stroke-width:1;"/><text fill="#000000" font-family="sans-serif" font-size="14" font-style="italic" lengthAdjust="spacing" textLength="39.6618" x="798.51" y="443.8218">build()</text><ellipse cx="789.51" cy="458.9577" fill="#84BE84" rx="3" ry="3" style="stroke:#038048;stroke-width:1;"/><text fill="#000000" font-family="sans-serif" font-size="14" font-style="italic" lengthAdjust="spacing" textLength="194.6832" x="798.51" y="462.8897">apply(strategy, model) : list[Sid]</text></g><!--class Trains--><g class="entity" data-entity="Trains" data-source-line="59" data-uid="ent0008" id="entity_Trains"><rect fill="#F1F1F1" height="156.7516" rx="2.5" ry="2.5" style="stroke:#181818;stroke-width:0.5;" width="121.4377" x="851.13" y="573.06"/><ellipse cx="887.7324" cy="595.766" fill="#A9DCDF" rx="11" ry="11" style="stroke:#181818;stroke-width:1;"/><path d="M891.0762,601.016 L889.6074,597.266 L885.1699,597.266 L883.7324,601.016 L881.6074,601.016 L886.5605,588.2973 L888.3105,588.2973 L893.2324,601.016 L891.0762,601.016 Z M887.7324,592.0629 Q887.6855,591.9066 887.5605,591.5473 Q887.4355,591.1879 887.3262,590.8129 Q887.2168,590.4223 887.4199,590.3598 Q887.5762,590.5473 887.4824,590.9066 Q887.3887,591.2504 887.2949,591.5473 Q887.2012,591.8285 887.123,592.0629 L885.8887,595.3754 L888.9668,595.3754 L887.7324,592.0629 Z " fill="#000000"/><text fill="#000000" font-family="sans-serif" font-size="12" font-style="italic" lengthAdjust="spacing" textLength="45.4323" x="904.5329" y="590.8881">&#171;plugin&#187;</text><text fill="#000000" font-family="sans-serif" font-size="14" font-style="italic" lengthAdjust="spacing" textLength="38.3038" x="908.0972" y="609.37">Trains</text><line style="stroke:#181818;stroke-width:0.5;" x1="852.13" x2="971.5677" y1="618.472" y2="618.472"/><polygon fill="none" points="862.13,628.506,866.13,632.506,862.13,636.506,858.13,632.506" style="stroke:#B38D22;stroke-width:1;"/><text fill="#000000" font-family="sans-serif" font-size="14" lengthAdjust="spacing" textLength="95.4377" x="871.13" y="637.438">dataname : str</text><line style="stroke:#181818;stroke-width:1;" x1="852.13" x2="971.5677" y1="645.5399" y2="645.5399"/><polygon fill="#FFFF44" points="862.13,655.5739,866.13,659.5739,862.13,663.5739,858.13,659.5739" style="stroke:#B38D22;stroke-width:1;"/><text fill="#000000" font-family="sans-serif" font-size="14" font-style="italic" lengthAdjust="spacing" textLength="51.0298" x="871.13" y="664.5059">extract()</text><ellipse cx="862.13" cy="679.6418" fill="#84BE84" rx="3" ry="3" style="stroke:#038048;stroke-width:1;"/><text fill="#000000" font-family="sans-serif" font-size="14" lengthAdjust="spacing" textLength="60.9557" x="871.13" y="683.5738">finished()</text><ellipse cx="862.13" cy="698.7097" fill="#84BE84" rx="3" ry="3" style="stroke:#038048;stroke-width:1;"/><text fill="#000000" font-family="sans-serif" font-size="14" font-style="italic" lengthAdjust="spacing" textLength="67.3537" x="871.13" y="702.6417">compress()</text><ellipse cx="862.13" cy="717.7777" fill="#84BE84" rx="3" ry="3" style="stroke:#038048;stroke-width:1;"/><text fill="#000000" font-family="sans-serif" font-size="14" font-style="italic" lengthAdjust="spacing" textLength="48.0198" x="871.13" y="721.7096">merge()</text></g><!--class Provider--><g class="entity" data-entity="Provider" data-source-line="68" data-uid="ent0009" id="entity_Provider"><rect fill="#F1F1F1" height="143.3396" rx="2.5" ry="2.5" style="stroke:#181818;stroke-width:0.5;" width="143.2915" x="673.21" y="579.76"/><ellipse cx="714.7986" cy="595.76" fill="#A9DCDF" rx="11" ry="11" style="stroke:#181818;stroke-width:1;"/><path d="M718.1423,601.01 L716.6736,597.26 L712.2361,597.26 L710.7986,601.01 L708.6736,601.01 L713.6267,588.2913 L715.3767,588.2913 L720.2986,601.01 L718.1423,601.01 Z M714.7986,592.0569 Q714.7517,591.9006 714.6267,591.5413 Q714.5017,591.1819 714.3923,590.8069 Q714.283,590.4163 714.4861,590.3538 Q714.6423,590.5413 714.5486,590.9006 Q714.4548,591.2444 714.3611,591.5413 Q714.2673,591.8225 714.1892,592.0569 L712.9548,595.3694 L716.033,595.3694 L714.7986,592.0569 Z " fill="#000000"/><text fill="#000000" font-family="sans-serif" font-size="14" font-style="italic" lengthAdjust="spacing" textLength="52.2058" x="734.7072" y="601.192">Provider</text><line style="stroke:#181818;stroke-width:0.5;" x1="674.21" x2="815.5015" y1="611.76" y2="611.76"/><polygon fill="none" points="684.21,621.794,688.21,625.794,684.21,629.794,680.21,625.794" style="stroke:#B38D22;stroke-width:1;"/><text fill="#000000" font-family="sans-serif" font-size="14" lengthAdjust="spacing" textLength="107.0856" x="693.21" y="630.7259">benchmark : Bid</text><polygon fill="none" points="684.21,640.8619,688.21,644.8619,684.21,648.8619,680.21,644.8619" style="stroke:#B38D22;stroke-width:1;"/><text fill="#000000" font-family="sans-serif" font-size="14" lengthAdjust="spacing" textLength="85.0357" x="693.21" y="649.7939">strategy : Sid</text><line style="stroke:#181818;stroke-width:1;" x1="674.21" x2="815.5015" y1="657.8958" y2="657.8958"/><ellipse cx="684.21" cy="672.9298" fill="#84BE84" rx="3" ry="3" style="stroke:#038048;stroke-width:1;"/><text fill="#000000" font-family="sans-serif" font-size="14" font-style="italic" lengthAdjust="spacing" textLength="55.1038" x="693.21" y="676.8618">commit()</text><ellipse cx="684.21" cy="691.9977" fill="#84BE84" rx="3" ry="3" style="stroke:#038048;stroke-width:1;"/><text fill="#000000" font-family="sans-serif" font-size="14" font-style="italic" lengthAdjust="spacing" textLength="117.2915" x="693.21" y="695.9297">query(task) : Result</text><ellipse cx="684.21" cy="711.0656" fill="#84BE84" rx="3" ry="3" style="stroke:#038048;stroke-width:1;"/><text fill="#000000" font-family="sans-serif" font-size="14" font-style="italic" lengthAdjust="spacing" textLength="107.0296" x="693.21" y="714.9976">store(task, result)</text></g><g class="entity" data-entity="GMN20" data-source-line="91" data-uid="ent0021" id="entity_GMN20"><path d="M495.71,6 L495.71,33.706 A0,0 0 0 0 495.71,33.706 L604.85,33.706 L608.85,94.29 L612.85,33.706 L722.0062,33.706 A0,0 0 0 0 722.0062,33.706 L722.0062,16 L712.0062,6 L495.71,6 A0,0 0 0 0 495.71,6" fill="#FEFFDD" style="stroke:#181818;stroke-width:0.5;"/><path d="M712.0062,6 L712.0062,16 L722.0062,16 L712.0062,6" fill="#FEFFDD" style="stroke:#181818;stroke-width:0.5;"/><text fill="#000000" font-family="sans-serif" font-size="13" lengthAdjust="spacing" textLength="205.2962" x="501.71" y="24.897">Collection of experiment settings.</text></g><g class="entity" data-entity="GMN23" data-source-line="94" data-uid="ent0024" id="entity_GMN23"><path d="M230.68,628.73 L230.68,674.142 A0,0 0 0 0 230.68,674.142 L405.0282,674.142 A0,0 0 0 0 405.0282,674.142 L405.0282,638.73 L395.0282,628.73 L323.31,628.73 L329.14,480.73 L315.31,628.73 L230.68,628.73 A0,0 0 0 0 230.68,628.73" fill="#FEFFDD" style="stroke:#181818;stroke-width:0.5;"/><path d="M395.0282,628.73 L395.0282,638.73 L405.0282,638.73 L395.0282,628.73" fill="#FEFFDD" style="stroke:#181818;stroke-width:0.5;"/><text fill="#000000" font-family="sans-serif" font-size="13" lengthAdjust="spacing" textLength="141.7391" x="236.68" y="647.627">Represent a solver task</text><text fill="#000000" font-family="sans-serif" font-size="13" lengthAdjust="spacing" textLength="153.3482" x="236.68" y="665.333">with results stored in DB.</text></g><g class="entity" data-entity="GMN26" data-source-line="99" data-uid="ent0027" id="entity_GMN26"><path d="M36.29,162.74 L36.29,208.152 A0,0 0 0 0 36.29,208.152 L116.85,208.152 L120.85,355.98 L124.85,208.152 L205.4251,208.152 A0,0 0 0 0 205.4251,208.152 L205.4251,172.74 L195.4251,162.74 L36.29,162.74 A0,0 0 0 0 36.29,162.74" fill="#FEFFDD" style="stroke:#181818;stroke-width:0.5;"/><path d="M195.4251,162.74 L195.4251,172.74 L205.4251,172.74 L195.4251,162.74" fill="#FEFFDD" style="stroke:#181818;stroke-width:0.5;"/><text fill="#000000" font-family="sans-serif" font-size="13" lengthAdjust="spacing" textLength="144.7551" x="42.29" y="181.637">Generic solver interface</text><text fill="#000000" font-family="sans-serif" font-size="13" lengthAdjust="spacing" textLength="122.7591" x="42.29" y="199.343">compatible with DB.</text></g><g class="entity" data-entity="GMN29" data-source-line="104" data-uid="ent0030" id="entity_GMN29"><path d="M439.69,628.73 L439.69,674.142 A0,0 0 0 0 439.69,674.142 L638.0231,674.142 A0,0 0 0 0 638.0231,674.142 L638.0231,638.73 L628.0231,628.73 L549.25,628.73 L588.23,480.73 L541.25,628.73 L439.69,628.73 A0,0 0 0 0 439.69,628.73" fill="#FEFFDD" style="stroke:#181818;stroke-width:0.5;"/><path d="M628.0231,628.73 L628.0231,638.73 L638.0231,638.73 L628.0231,628.73" fill="#FEFFDD" style="stroke:#181818;stroke-width:0.5;"/><text fill="#000000" font-family="sans-serif" font-size="13" lengthAdjust="spacing" textLength="146.2631" x="445.69" y="647.627">Persistent DB of results.</text><text fill="#000000" font-family="sans-serif" font-size="13" lengthAdjust="spacing" textLength="177.3331" x="445.69" y="665.333">Stores results of solver tasks.</text></g><g class="entity" data-entity="GMN32" data-source-line="109" data-uid="ent0033" id="entity_GMN32"><path d="M809.28,804.34 L809.28,867.458 A0,0 0 0 0 809.28,867.458 L1014.4252,867.458 A0,0 0 0 0 1014.4252,867.458 L1014.4252,814.34 L1004.4252,804.34 L915.85,804.34 L911.85,730.08 L907.85,804.34 L809.28,804.34 A0,0 0 0 0 809.28,804.34" fill="#FEFFDD" style="stroke:#181818;stroke-width:0.5;"/><path d="M1004.4252,804.34 L1004.4252,814.34 L1014.4252,814.34 L1004.4252,804.34" fill="#FEFFDD" style="stroke:#181818;stroke-width:0.5;"/><text fill="#000000" font-family="sans-serif" font-size="13" lengthAdjust="spacing" textLength="174.0442" x="815.28" y="823.237">Extraction and management</text><text fill="#000000" font-family="sans-serif" font-size="13" lengthAdjust="spacing" textLength="184.1452" x="815.28" y="840.943">of training data. Implemented</text><text fill="#000000" font-family="sans-serif" font-size="13" lengthAdjust="spacing" textLength="109.9541" x="815.28" y="858.649">as a solver plugin.</text></g><!--link Setup to SolverPy--><g class="link" data-entity-1="Setup" data-entity-2="SolverPy" data-source-line="80" data-uid="lnk10" id="link_Setup_SolverPy"><path codeLine="80" d="M524.71,218.91 C451.25,247.93 342.25,292.62 249.85,337.18 C237.78,343.01 235.8399,343.8037 223.5199,350.3137" fill="none" id="Setup-to-SolverPy" style="stroke:#181818;stroke-width:1;"/><polygon fill="none" points="212.91,355.92,220.0837,356.6534,223.5199,350.3137,216.3461,349.5802,212.91,355.92" style="stroke:#181818;stroke-width:1;"/><text fill="#000000" font-family="sans-serif" font-size="13" lengthAdjust="spacing" textLength="7.436" x="217.8391" y="344.6095">1</text></g><!--link Setup to DB--><g class="link" data-entity-1="Setup" data-entity-2="DB" data-source-line="81" data-uid="lnk11" id="link_Setup_DB"><path codeLine="81" d="M608.85,276.5 C608.85,296.61 608.85,305.67 608.85,324.88" fill="none" id="Setup-to-DB" style="stroke:#181818;stroke-width:1;"/><polygon fill="none" points="608.85,336.88,612.85,330.88,608.85,324.88,604.85,330.88,608.85,336.88" style="stroke:#181818;stroke-width:1;"/><text fill="#000000" font-family="sans-serif" font-size="13" lengthAdjust="spacing" textLength="7.436" x="601.5114" y="325.515">1</text></g><!--link Setup to Builder--><g class="link" data-entity-1="Setup" data-entity-2="Builder" data-source-line="82" data-uid="lnk12" id="link_Setup_Builder"><path codeLine="82" d="M693.24,253.17 C730.76,282.84 765.2279,310.096 801.9079,339.106" fill="none" id="Setup-to-Builder" style="stroke:#181818;stroke-width:1;"/><polygon fill="none" points="811.32,346.55,809.0953,339.6907,801.9079,339.106,804.1326,345.9654,811.32,346.55" style="stroke:#181818;stroke-width:1;"/><text fill="#000000" font-family="sans-serif" font-size="13" lengthAdjust="spacing" textLength="7.436" x="794.4708" y="334.8606">1</text></g><!--link Builder to Trains--><g class="link" data-entity-1="Builder" data-entity-2="Trains" data-source-line="83" data-uid="lnk13" id="link_Builder_Trains"><path codeLine="83" d="M894.72,471.18 C897.67,502.09 900.1502,527.9443 903.2902,560.8543" fill="none" id="Builder-to-Trains" style="stroke:#181818;stroke-width:1;"/><polygon fill="none" points="904.43,572.8,907.842,566.4472,903.2902,560.8543,899.8782,567.207,904.43,572.8" style="stroke:#181818;stroke-width:1;"/><text fill="#000000" font-family="sans-serif" font-size="13" lengthAdjust="spacing" textLength="27.82" x="900.66" y="525.417">uses</text><text fill="#000000" font-family="sans-serif" font-size="13" lengthAdjust="spacing" textLength="7.436" x="896.3766" y="561.1543">1</text></g><!--link SolverPy to Plugin--><g class="link" data-entity-1="SolverPy" data-entity-2="Plugin" data-source-line="84" data-uid="lnk14" id="link_SolverPy_Plugin"><path codeLine="84" d="M120.85,461.76 C120.85,490.21 120.85,514.31 120.85,547.3" fill="none" id="SolverPy-to-Plugin" style="stroke:#181818;stroke-width:1;"/><polygon fill="none" points="120.85,559.3,124.85,553.3,120.85,547.3,116.85,553.3,120.85,559.3" style="stroke:#181818;stroke-width:1;"/><text fill="#000000" font-family="sans-serif" font-size="13" lengthAdjust="spacing" textLength="53.898" x="121.85" y="525.417">registers</text><text fill="#000000" font-family="sans-serif" font-size="13" lengthAdjust="spacing" textLength="7.163" x="113.5559" y="547.5795">*</text></g><!--link DB to Provider--><g class="link" data-entity-1="DB" data-entity-2="Provider" data-source-line="85" data-uid="lnk15" id="link_DB_Provider"><path codeLine="85" d="M648.92,480.73 C666.55,511.92 681.3022,538.025 698.9322,569.195" fill="none" id="DB-to-Provider" style="stroke:#181818;stroke-width:1;"/><polygon fill="none" points="704.84,579.64,705.3678,572.4482,698.9322,569.195,698.4044,576.3868,704.84,579.64" style="stroke:#181818;stroke-width:1;"/><text fill="#000000" font-family="sans-serif" font-size="13" lengthAdjust="spacing" textLength="54.6651" x="673.78" y="525.417">connects</text><text fill="#000000" font-family="sans-serif" font-size="13" lengthAdjust="spacing" textLength="7.163" x="693.0894" y="567.7939">*</text></g><!--reverse link SolverTask to DB--><g class="link" data-entity-1="SolverTask" data-entity-2="DB" data-source-line="87" data-uid="lnk17" id="link_SolverTask_DB"><path codeLine="87" d="M412.77,408.85 C441.71,408.85 464.37,408.85 497.02,408.85" fill="none" id="SolverTask-backto-DB" style="stroke:#181818;stroke-width:1;stroke-dasharray:7,7;"/><polygon fill="none" points="400.77,408.85,406.77,412.85,412.77,408.85,406.77,404.85,400.77,408.85" style="stroke:#181818;stroke-width:1;"/><text fill="#000000" font-family="sans-serif" font-size="13" lengthAdjust="spacing" textLength="37.713" x="431.95" y="401.747">stores</text><text fill="#000000" font-family="sans-serif" font-size="13" lengthAdjust="spacing" textLength="7.163" x="408.4808" y="404.856">*</text></g><!--reverse link SolverPy to SolverTask--><g class="link" data-entity-1="SolverPy" data-entity-2="SolverTask" data-source-line="88" data-uid="lnk19" id="link_SolverPy_SolverTask"><path codeLine="88" d="M245.18,408.85 C256.45,408.85 255.73,408.85 267,408.85" fill="none" id="SolverPy-backto-SolverTask" style="stroke:#181818;stroke-width:1;"/><polygon fill="none" points="233.18,408.85,239.18,412.85,245.18,408.85,239.18,404.85,233.18,408.85" style="stroke:#181818;stroke-width:1;"/><text fill="#000000" font-family="sans-serif" font-size="13" lengthAdjust="spacing" textLength="7.436" x="240.6141" y="405.225">1</text></g><!--SRC=[VLKzRzim4DtvAmxE4Bc93NGrYWnkYg9B4SJPYWwKHCk4AL8bgIH6aF_UuvT4nr8y6CIzu_7Tkm-P8vSTrRI5abR7HgjUrj-LK1gifj8WnAGbfAQMLe8Q0pjc-mxU2E3l1WnwMTPmPc03WXlxPyVhln3Haidgq59z7D1jXhgOahOCCGoJ0Yhnp3IQTlxmS4hE9ThkjobmpqNjtRRXvEshLOG5xV7XOadU2Q6burXPYFHZs9Z15NIYRxXq11_2wJpKMxh_7gWLdLQbOErjIlsqnAkFpFJ2vYdKXVOsXvPAYGaguJtuzYrGkBiREF4wqoHIoOZSW4R9ZMMw278jPnrhLYb7irXUOdrNpo2-z686t7F9pG4JzFBcgZvHSmmvpDGnwmXNEbu7OvHqp7degvCB4Dn2TfXwBujCye72_JRA5wggrJF7ll1rJUS4Hw5yk4grBRSnpsYHabMs6AXcfHwz_lLCdmgB6PkHZHbnOvLc0R-5q0fcgXzZ_mxShwR6uaC5FXkwBBkpEtvYXZJF8DfrubIa76-XLJKJoppq1EydJTtKN3JlV0gPxDdpLy1U_J4lGTPYC44OQzQXf6O6RfbksEJmfqx8kKvqP00kMt0sYSisEWF7NlcmAouBcveczOpFWf1hl8Npo9Kq1zuP4fRmQgLWyNKnxhHahzMBZ1YEnGVlj35JvoLxhEW6UiFmXHJJmryMQLjjXjrZ2COUqAJi9isFGTBEGVFcO5TtmxDeMmksj-jmCTiS6rWuHRm81WyBae4hT-SYNtpZ6duhYuGb_eDL7QXz_4Pj03za0gcWRCxANZkcUOlVCp3CMYuRioRXNgciLQs_EZn97fdhCkTEqpfpfG7omkqXpNIWMmDASxzT4oPhS179EP-q0tyoYHIg58vBr75FAmR4zJGM6FSW-F0JmKQI-1rym0AuCY0xL1HjaS-Qx89-YHz26NdpITJG0EH7c4Sd6aNN5YUvOLurWaxMEQ5qViRNyAljX0TPJQWPXGfRONpiFm00]--></g></svg>