<svg xmlns="http://www.w3.org/2000/svg" xmlns:xlink="http://www.w3.org/1999/xlink" contentStyleType="text/css" data-diagram-type="CLASS" height="660px" preserveAspectRatio="none" style="width:377px;height:660px;" version="1.1" viewBox="0 0 377 660" width="377px" zoomAndPan="magnify"><defs/><g><!--cluster solverpy--><g class="cluster" data-entity="solverpy" data-source-line="4" data-uid="ent0003" id="cluster_solverpy"><path d="M8.5,6.602 L68.3278,6.602 A3.75,3.75 0 0 1 70.8278,9.102 L77.8278,31.6699 L367.5,31.6699 A2.5,2.5 0 0 1 370,34.1699 L370,650.642 A2.5,2.5 0 0 1 367.5,653.142 L8.5,653.142 A2.5,2.5 0 0 1 6,650.642 L6,9.102 A2.5,2.5 0 0 1 8.5,6.602" fill="none" style="stroke:#000000;stroke-width:1.5;"/><line style="stroke:#000000;stroke-width:1.5;" x1="6" x2="77.8278" y1="31.6699" y2="31.6699"/><text fill="#000000" font-family="sans-serif" font-size="14" font-weight="bold" lengthAdjust="spacing" textLength="58.8278" x="10" y="23.5679">solverpy</text></g><!--cluster solver--><g class="cluster" data-entity="solver" data-source-line="4" data-uid="ent0004" id="cluster_solver"><path d="M32.5,52.602 L75.7029,52.602 A3.75,3.75 0 0 1 78.2029,55.102 L85.2029,77.6699 L343.5,77.6699 A2.5,2.5 0 0 1 346,80.1699 L346,626.642 A2.5,2.5 0 0 1 343.5,629.142 L32.5,629.142 A2.5,2.5 0 0 1 30,626.642 L30,55.102 A2.5,2.5 0 0 1 32.5,52.602" fill="none" style="stroke:#000000;stroke-width:1.5;"/><line style="stroke:#000000;stroke-width:1.5;" x1="30" x2="85.2029" y1="77.6699" y2="77.6699"/><text fill="#000000" font-family="sans-serif" font-size="14" font-weight="bold" lengthAdjust="spacing" textLength="42.2029" x="34" y="69.5679">solver</text></g><!--cluster solver--><g class="cluster" data-entity="solver" data-source-line="4" data-uid="ent0005" id="cluster_solver"><path d="M56.5,224.602 L99.7029,224.602 A3.75,3.75 0 0 1 102.2029,227.102 L109.2029,249.6699 L319.5,249.6699 A2.5,2.5 0 0 1 322,252.1699 L322,476.642 A2.5,2.5 0 0 1 319.5,479.142 L56.5,479.142 A2.5,2.5 0 0 1 54,476.642 L54,227.102 A2.5,2.5 0 0 1 56.5,224.602" fill="none" style="stroke:#000000;stroke-width:1.5;"/><line style="stroke:#000000;stroke-width:1.5;" x1="54" x2="109.2029" y1="249.6699" y2="249.6699"/><text fill="#000000" font-family="sans-serif" font-size="14" font-weight="bold" lengthAdjust="spacing" textLength="42.2029" x="58" y="241.5679">solver</text></g><!--cluster object--><g class="cluster" data-entity="object" data-source-line="5" data-uid="ent0007" id="cluster_object"><path d="M118.5,98.602 L162.4868,98.602 A3.75,3.75 0 0 1 164.9868,101.102 L171.9868,123.6699 L257.5,123.6699 A2.5,2.5 0 0 1 260,126.1699 L260,198.102 A2.5,2.5 0 0 1 257.5,200.602 L118.5,200.602 A2.5,2.5 0 0 1 116,198.102 L116,101.102 A2.5,2.5 0 0 1 118.5,98.602" fill="none" style="stroke:#000000;stroke-width:1.5;"/><line style="stroke:#000000;stroke-width:1.5;" x1="116" x2="171.9868" y1="123.6699" y2="123.6699"/><text fill="#000000" font-family="sans-serif" font-size="14" font-weight="bold" lengthAdjust="spacing" textLength="42.9868" x="120" y="115.5679">object</text></g><!--cluster pluginsolver--><g class="cluster" data-entity="pluginsolver" data-source-line="14" data-uid="ent0010" id="cluster_pluginsolver"><path d="M119.5,503.142 L207.0757,503.142 A3.75,3.75 0 0 1 209.5757,505.642 L216.5757,528.2099 L256.5,528.2099 A2.5,2.5 0 0 1 259,530.7099 L259,602.642 A2.5,2.5 0 0 1 256.5,605.142 L119.5,605.142 A2.5,2.5 0 0 1 117,602.642 L117,505.642 A2.5,2.5 0 0 1 119.5,503.142" fill="none" style="stroke:#000000;stroke-width:1.5;"/><line style="stroke:#000000;stroke-width:1.5;" x1="117" x2="216.5757" y1="528.2099" y2="528.2099"/><text fill="#000000" font-family="sans-serif" font-size="14" font-weight="bold" lengthAdjust="spacing" textLength="86.5757" x="121" y="520.1079">pluginsolver</text></g><!--class Solver--><g class="entity" data-entity="Solver" data-source-line="4" data-uid="ent0002" id="entity_Solver"><rect fill="#F1F1F1" height="200.5433" rx="2.5" ry="2.5" style="stroke:#181818;stroke-width:0.5;" width="236.4892" x="69.76" y="262.602"/><ellipse cx="164.9247" cy="278.602" fill="#A9DCDF" rx="11" ry="11" style="stroke:#181818;stroke-width:1;"/><path d="M168.2684,283.852 L166.7997,280.102 L162.3622,280.102 L160.9247,283.852 L158.7997,283.852 L163.7528,271.1332 L165.5028,271.1332 L170.4247,283.852 L168.2684,283.852 Z M164.9247,274.8989 Q164.8778,274.7426 164.7528,274.3832 Q164.6278,274.0239 164.5184,273.6489 Q164.409,273.2582 164.6122,273.1957 Q164.7684,273.3832 164.6747,273.7426 Q164.5809,274.0864 164.4872,274.3832 Q164.3934,274.6645 164.3153,274.8989 L163.0809,278.2114 L166.159,278.2114 L164.9247,274.8989 Z " fill="#000000"/><text fill="#000000" font-family="sans-serif" font-size="14" font-style="italic" lengthAdjust="spacing" textLength="37.6599" x="185.4247" y="284.034">Solver</text><line style="stroke:#181818;stroke-width:0.5;" x1="70.76" x2="305.2492" y1="294.602" y2="294.602"/><polygon fill="none" points="80.76,304.6359,84.76,308.6359,80.76,312.6359,76.76,308.6359" style="stroke:#B38D22;stroke-width:1;"/><text fill="#000000" font-family="sans-serif" font-size="14" font-style="italic" lengthAdjust="spacing" textLength="160.2854" x="89.76" y="313.5679">success : frozenset[Status]</text><polygon fill="none" points="80.76,323.7039,84.76,327.7039,80.76,331.7039,76.76,327.7039" style="stroke:#B38D22;stroke-width:1;"/><text fill="#000000" font-family="sans-serif" font-size="14" font-style="italic" lengthAdjust="spacing" textLength="168.5453" x="89.76" y="332.6358">timeouts : frozenset[Status]</text><polygon fill="none" points="80.76,342.7718,84.76,346.7718,80.76,350.7718,76.76,346.7718" style="stroke:#B38D22;stroke-width:1;"/><text fill="#000000" font-family="sans-serif" font-size="14" font-style="italic" lengthAdjust="spacing" textLength="164.8493" x="89.76" y="351.7038">statuses : frozenset[Status]</text><line style="stroke:#181818;stroke-width:0.5;" x1="70.76" x2="305.2492" y1="359.8057" y2="359.8057"/><polygon fill="#FFFF44" points="80.76,369.8397,84.76,373.8397,80.76,377.8397,76.76,373.8397" style="stroke:#B38D22;stroke-width:1;"/><text fill="#000000" font-family="sans-serif" font-size="14" font-style="italic" lengthAdjust="spacing" textLength="166.5573" x="89.76" y="378.7717">run(instance, strategy) : str</text><polygon fill="#FFFF44" points="80.76,388.9076,84.76,392.9076,80.76,396.9076,76.76,392.9076" style="stroke:#B38D22;stroke-width:1;"/><text fill="#000000" font-family="sans-serif" font-size="14" font-style="italic" lengthAdjust="spacing" textLength="144.8855" x="89.76" y="397.8396">process(output) : Result</text><ellipse cx="80.76" cy="412.9755" fill="#84BE84" rx="3" ry="3" style="stroke:#038048;stroke-width:1;"/><text fill="#000000" font-family="sans-serif" font-size="14" lengthAdjust="spacing" textLength="210.4892" x="89.76" y="416.9075">solve(instance, strategy) : Result</text><ellipse cx="80.76" cy="432.0434" fill="#84BE84" rx="3" ry="3" style="stroke:#038048;stroke-width:1;"/><text fill="#000000" font-family="sans-serif" font-size="14" lengthAdjust="spacing" textLength="117.0956" x="89.76" y="435.9754">valid(result) : bool</text><ellipse cx="80.76" cy="451.1114" fill="#84BE84" rx="3" ry="3" style="stroke:#038048;stroke-width:1;"/><text fill="#000000" font-family="sans-serif" font-size="14" lengthAdjust="spacing" textLength="128.7015" x="89.76" y="455.0433">solved(result) : bool</text></g><!--class SolverPyObj--><g class="entity" data-entity="SolverPyObj" data-source-line="5" data-uid="ent0006" id="entity_SolverPyObj"><rect fill="#F1F1F1" height="48" rx="2.5" ry="2.5" style="stroke:#181818;stroke-width:0.5;" width="111.3237" x="132.34" y="136.602"/><ellipse cx="147.34" cy="152.602" fill="#ADD1B2" rx="11" ry="11" style="stroke:#181818;stroke-width:1;"/><path d="M147.4494,148.1332 Q146.5275,148.1332 145.7931,148.4457 Q145.0744,148.7582 144.5744,149.352 Q144.0744,149.9301 143.7931,150.8051 Q143.5275,151.6801 143.5275,152.7739 Q143.5275,154.2114 143.965,155.2582 Q144.4181,156.3051 145.2619,156.852 Q146.1213,157.3989 147.4338,157.3989 Q148.215,157.3989 148.9025,157.2739 Q149.6056,157.1332 150.6056,156.8207 L150.6056,158.6957 Q149.7463,159.0239 148.9806,159.1489 Q148.2306,159.2739 147.215,159.2739 Q145.2931,159.2739 143.9806,158.477 Q142.6838,157.6645 142.0275,156.1957 Q141.3713,154.7114 141.3713,152.7426 Q141.3713,151.3207 141.7619,150.1489 Q142.1681,148.9614 142.9494,148.0864 Q143.7306,147.2114 144.8713,146.7426 Q146.0119,146.2582 147.4806,146.2582 Q148.4338,146.2582 149.3244,146.4614 Q150.2306,146.6489 151.1681,147.1176 L150.34,148.8989 Q149.5588,148.5239 148.9025,148.3364 Q148.2463,148.1332 147.4494,148.1332 Z " fill="#000000"/><text fill="#000000" font-family="sans-serif" font-size="14" lengthAdjust="spacing" textLength="79.3237" x="161.34" y="158.034">SolverPyObj</text><line style="stroke:#181818;stroke-width:0.5;" x1="133.34" x2="242.6637" y1="168.602" y2="168.602"/><line style="stroke:#181818;stroke-width:0.5;" x1="133.34" x2="242.6637" y1="176.602" y2="176.602"/></g><!--class PluginSolver--><g class="entity" data-entity="PluginSolver" data-source-line="14" data-uid="ent0009" id="entity_PluginSolver"><rect fill="#F1F1F1" height="48" rx="2.5" ry="2.5" style="stroke:#181818;stroke-width:0.5;" width="109.1397" x="133.43" y="541.142"/><ellipse cx="148.43" cy="557.142" fill="#A9DCDF" rx="11" ry="11" style="stroke:#181818;stroke-width:1;"/><path d="M151.7738,562.392 L150.305,558.642 L145.8675,558.642 L144.43,562.392 L142.305,562.392 L147.2581,549.6732 L149.0081,549.6732 L153.93,562.392 L151.7738,562.392 Z M148.43,553.4389 Q148.3831,553.2826 148.2581,552.9232 Q148.1331,552.5639 148.0238,552.1889 Q147.9144,551.7982 148.1175,551.7357 Q148.2738,551.9232 148.18,552.2826 Q148.0863,552.6264 147.9925,552.9232 Q147.8988,553.2045 147.8206,553.4389 L146.5863,556.7514 L149.6644,556.7514 L148.43,553.4389 Z " fill="#000000"/><text fill="#000000" font-family="sans-serif" font-size="14" font-style="italic" lengthAdjust="spacing" textLength="77.1397" x="162.43" y="562.574">PluginSolver</text><line style="stroke:#181818;stroke-width:0.5;" x1="134.43" x2="241.5697" y1="573.142" y2="573.142"/><line style="stroke:#181818;stroke-width:0.5;" x1="134.43" x2="241.5697" y1="581.142" y2="581.142"/></g><!--reverse link SolverPyObj to Solver--><g class="link" data-entity-1="SolverPyObj" data-entity-2="Solver" data-source-line="5" data-uid="lnk8" id="link_SolverPyObj_Solver"><path d="M188,202.962 C188,222.362 188,233.362 188,262.312" fill="none" id="SolverPyObj-backto-Solver" style="stroke:#181818;stroke-width:1;"/><polygon fill="none" points="188,184.962,182,202.962,194,202.962,188,184.962" style="stroke:#181818;stroke-width:1;"/></g><!--reverse link Solver to PluginSolver--><g class="link" data-entity-1="Solver" data-entity-2="PluginSolver" data-source-line="14" data-uid="lnk11" id="link_Solver_PluginSolver"><path d="M188,481.422 C188,510.482 188,521.602 188,541.002" fill="none" id="Solver-backto-PluginSolver" style="stroke:#181818;stroke-width:1;"/><polygon fill="none" points="188,463.422,182,481.422,194,481.422,188,463.422" style="stroke:#181818;stroke-width:1;"/></g><!--SRC=[ZP7DJiCm3CVlVGfBN8f0FC2kF00JEo8EIMggRfaTsSv4cVRkIrec3LLeE_dhvxyjMtS39ITk3zw5NI-SgNlbo08cZhIKaAnfdDSI1uCGdIeenmDA6bzcvs8sam7yDgHkIR7VOh1VQZs- -IqS6m0uNjHFy02QGy0oOWLVmZz8YlQnCMTPFnUi3NlaRFV1EkNnFbWojGEL5Whu33Lls8-FfRVu2pe9rvtRialALgbtr1ojWa_p6VvHk-OEBWvTArEcrZnpl59Ob4wtlf9YxilOELXFmOqF_VtZ6G00]--></g></svg>