<svg xmlns="http://www.w3.org/2000/svg" xmlns:xlink="http://www.w3.org/1999/xlink" contentStyleType="text/css" data-diagram-type="CLASS" height="641px" preserveAspectRatio="none" style="width:435px;height:641px;" version="1.1" viewBox="0 0 435 641" width="435px" zoomAndPan="magnify"><defs/><g><!--cluster solverpy--><g class="cluster" data-entity="solverpy" data-source-line="4" data-uid="ent0003" id="cluster_solverpy"><path d="M8.5,6.602 L68.3278,6.602 A3.75,3.75 0 0 1 70.8278,9.102 L77.8278,31.6699 L425.5,31.6699 A2.5,2.5 0 0 1 428,34.1699 L428,631.582 A2.5,2.5 0 0 1 425.5,634.082 L8.5,634.082 A2.5,2.5 0 0 1 6,631.582 L6,9.102 A2.5,2.5 0 0 1 8.5,6.602" fill="none" style="stroke:#000000;stroke-width:1.5;"/><line style="stroke:#000000;stroke-width:1.5;" x1="6" x2="77.8278" y1="31.6699" y2="31.6699"/><text fill="#000000" font-family="sans-serif" font-size="14" font-weight="bold" lengthAdjust="spacing" textLength="58.8278" x="10" y="23.5679">solverpy</text></g><!--cluster solver--><g class="cluster" data-entity="solver" data-source-line="4" data-uid="ent0004" id="cluster_solver"><path d="M32.5,52.602 L75.7029,52.602 A3.75,3.75 0 0 1 78.2029,55.102 L85.2029,77.6699 L401.5,77.6699 A2.5,2.5 0 0 1 404,80.1699 L404,607.582 A2.5,2.5 0 0 1 401.5,610.082 L32.5,610.082 A2.5,2.5 0 0 1 30,607.582 L30,55.102 A2.5,2.5 0 0 1 32.5,52.602" fill="none" style="stroke:#000000;stroke-width:1.5;"/><line style="stroke:#000000;stroke-width:1.5;" x1="30" x2="85.2029" y1="77.6699" y2="77.6699"/><text fill="#000000" font-family="sans-serif" font-size="14" font-weight="bold" lengthAdjust="spacing" textLength="42.2029" x="34" y="69.5679">solver</text></g><!--cluster solver--><g class="cluster" data-entity="solver" data-source-line="4" data-uid="ent0005" id="cluster_solver"><path d="M168.5,98.602 L211.7029,98.602 A3.75,3.75 0 0 1 214.2029,101.102 L221.2029,123.6699 L265.5,123.6699 A2.5,2.5 0 0 1 268,126.1699 L268,198.102 A2.5,2.5 0 0 1 265.5,200.602 L168.5,200.602 A2.5,2.5 0 0 1 166,198.102 L166,101.102 A2.5,2.5 0 0 1 168.5,98.602" fill="none" style="stroke:#000000;stroke-width:1.5;"/><line style="stroke:#000000;stroke-width:1.5;" x1="166" x2="221.2029" y1="123.6699" y2="123.6699"/><text fill="#000000" font-family="sans-serif" font-size="14" font-weight="bold" lengthAdjust="spacing" textLength="42.2029" x="170" y="115.5679">solver</text></g><!--cluster pluginsolver--><g class="cluster" data-entity="pluginsolver" data-source-line="5" data-uid="ent0007" id="cluster_pluginsolver"><path d="M56.5,224.602 L144.0757,224.602 A3.75,3.75 0 0 1 146.5757,227.102 L153.5757,249.6699 L377.5,249.6699 A2.5,2.5 0 0 1 380,252.1699 L380,457.582 A2.5,2.5 0 0 1 377.5,460.082 L56.5,460.082 A2.5,2.5 0 0 1 54,457.582 L54,227.102 A2.5,2.5 0 0 1 56.5,224.602" fill="none" style="stroke:#000000;stroke-width:1.5;"/><line style="stroke:#000000;stroke-width:1.5;" x1="54" x2="153.5757" y1="249.6699" y2="249.6699"/><text fill="#000000" font-family="sans-serif" font-size="14" font-weight="bold" lengthAdjust="spacing" textLength="86.5757" x="58" y="241.5679">pluginsolver</text></g><!--cluster solverpy--><g class="cluster" data-entity="solverpy" data-source-line="14" data-uid="ent0010" id="cluster_solverpy"><path d="M161.5,484.082 L221.3278,484.082 A3.75,3.75 0 0 1 223.8278,486.582 L230.8278,509.1499 L272.5,509.1499 A2.5,2.5 0 0 1 275,511.6499 L275,583.582 A2.5,2.5 0 0 1 272.5,586.082 L161.5,586.082 A2.5,2.5 0 0 1 159,583.582 L159,486.582 A2.5,2.5 0 0 1 161.5,484.082" fill="none" style="stroke:#000000;stroke-width:1.5;"/><line style="stroke:#000000;stroke-width:1.5;" x1="159" x2="230.8278" y1="509.1499" y2="509.1499"/><text fill="#000000" font-family="sans-serif" font-size="14" font-weight="bold" lengthAdjust="spacing" textLength="58.8278" x="163" y="501.0479">solverpy</text></g><!--class Solver--><g class="entity" data-entity="Solver" data-source-line="4" data-uid="ent0002" id="entity_Solver"><rect fill="#F1F1F1" height="48" rx="2.5" ry="2.5" style="stroke:#181818;stroke-width:0.5;" width="69.6599" x="182.17" y="136.602"/><ellipse cx="197.17" cy="152.602" fill="#A9DCDF" rx="11" ry="11" style="stroke:#181818;stroke-width:1;"/><path d="M200.5138,157.852 L199.045,154.102 L194.6075,154.102 L193.17,157.852 L191.045,157.852 L195.9981,145.1332 L197.7481,145.1332 L202.67,157.852 L200.5138,157.852 Z M197.17,148.8989 Q197.1231,148.7426 196.9981,148.3832 Q196.8731,148.0239 196.7638,147.6489 Q196.6544,147.2582 196.8575,147.1957 Q197.0138,147.3832 196.92,147.7426 Q196.8263,148.0864 196.7325,148.3832 Q196.6388,148.6645 196.5606,148.8989 L195.3263,152.2114 L198.4044,152.2114 L197.17,148.8989 Z " fill="#000000"/><text fill="#000000" font-family="sans-serif" font-size="14" font-style="italic" lengthAdjust="spacing" textLength="37.6599" x="211.17" y="158.034">Solver</text><line style="stroke:#181818;stroke-width:0.5;" x1="183.17" x2="250.8299" y1="168.602" y2="168.602"/><line style="stroke:#181818;stroke-width:0.5;" x1="183.17" x2="250.8299" y1="176.602" y2="176.602"/></g><!--class PluginSolver--><g class="entity" data-entity="PluginSolver" data-source-line="5" data-uid="ent0006" id="entity_PluginSolver"><rect fill="#F1F1F1" height="181.4754" rx="2.5" ry="2.5" style="stroke:#181818;stroke-width:0.5;" width="294.687" x="69.66" y="262.602"/><ellipse cx="174.1836" cy="278.602" fill="#A9DCDF" rx="11" ry="11" style="stroke:#181818;stroke-width:1;"/><path d="M177.5274,283.852 L176.0586,280.102 L171.6211,280.102 L170.1836,283.852 L168.0586,283.852 L173.0118,271.1332 L174.7618,271.1332 L179.6836,283.852 L177.5274,283.852 Z M174.1836,274.8989 Q174.1368,274.7426 174.0118,274.3832 Q173.8868,274.0239 173.7774,273.6489 Q173.668,273.2582 173.8711,273.1957 Q174.0274,273.3832 173.9336,273.7426 Q173.8399,274.0864 173.7461,274.3832 Q173.6524,274.6645 173.5743,274.8989 L172.3399,278.2114 L175.418,278.2114 L174.1836,274.8989 Z " fill="#000000"/><text fill="#000000" font-family="sans-serif" font-size="14" font-style="italic" lengthAdjust="spacing" textLength="77.1397" x="194.6836" y="284.034">PluginSolver</text><line style="stroke:#181818;stroke-width:0.5;" x1="70.66" x2="363.347" y1="294.602" y2="294.602"/><polygon fill="none" points="80.66,304.6359,84.66,308.6359,80.66,312.6359,76.66,308.6359" style="stroke:#B38D22;stroke-width:1;"/><text fill="#000000" font-family="sans-serif" font-size="14" lengthAdjust="spacing" textLength="176.8194" x="89.66" y="313.5679">decorators : list[Decorator]</text><polygon fill="none" points="80.66,323.7039,84.66,327.7039,80.66,331.7039,76.66,327.7039" style="stroke:#B38D22;stroke-width:1;"/><text fill="#000000" font-family="sans-serif" font-size="14" lengthAdjust="spacing" textLength="178.3034" x="89.66" y="332.6358">translators : list[Translator]</text><line style="stroke:#181818;stroke-width:0.5;" x1="70.66" x2="363.347" y1="340.7378" y2="340.7378"/><ellipse cx="80.66" cy="355.7718" fill="#84BE84" rx="3" ry="3" style="stroke:#038048;stroke-width:1;"/><text fill="#000000" font-family="sans-serif" font-size="14" lengthAdjust="spacing" textLength="77.7837" x="89.66" y="359.7038">init(plugins)</text><ellipse cx="80.66" cy="374.8397" fill="#84BE84" rx="3" ry="3" style="stroke:#038048;stroke-width:1;"/><text fill="#000000" font-family="sans-serif" font-size="14" lengthAdjust="spacing" textLength="247.7011" x="89.66" y="378.7717">decorate(cmd, instance, strategy) : str</text><ellipse cx="80.66" cy="393.9076" fill="#84BE84" rx="3" ry="3" style="stroke:#038048;stroke-width:1;"/><text fill="#000000" font-family="sans-serif" font-size="14" lengthAdjust="spacing" textLength="228.3531" x="89.66" y="397.8396">translate(instance, strategy) : tuple</text><ellipse cx="80.66" cy="412.9755" fill="#84BE84" rx="3" ry="3" style="stroke:#038048;stroke-width:1;"/><text fill="#000000" font-family="sans-serif" font-size="14" lengthAdjust="spacing" textLength="268.687" x="89.66" y="416.9075">update(instance, strategy, output, result)</text><ellipse cx="80.66" cy="432.0434" fill="#84BE84" rx="3" ry="3" style="stroke:#038048;stroke-width:1;"/><text fill="#000000" font-family="sans-serif" font-size="14" lengthAdjust="spacing" textLength="189.8813" x="89.66" y="435.9754">call(pid, method, arguments)</text></g><!--class SolverPy--><g class="entity" data-entity="SolverPy" data-source-line="14" data-uid="ent0009" id="entity_SolverPy"><rect fill="#F1F1F1" height="48" rx="2.5" ry="2.5" style="stroke:#181818;stroke-width:0.5;" width="84.1358" x="174.93" y="522.082"/><ellipse cx="189.93" cy="538.082" fill="#A9DCDF" rx="11" ry="11" style="stroke:#181818;stroke-width:1;"/><path d="M193.2738,543.332 L191.805,539.582 L187.3675,539.582 L185.93,543.332 L183.805,543.332 L188.7581,530.6132 L190.5081,530.6132 L195.43,543.332 L193.2738,543.332 Z M189.93,534.3789 Q189.8831,534.2226 189.7581,533.8632 Q189.6331,533.5039 189.5238,533.1289 Q189.4144,532.7382 189.6175,532.6757 Q189.7738,532.8632 189.68,533.2226 Q189.5863,533.5664 189.4925,533.8632 Q189.3988,534.1445 189.3206,534.3789 L188.0863,537.6914 L191.1644,537.6914 L189.93,534.3789 Z " fill="#000000"/><text fill="#000000" font-family="sans-serif" font-size="14" font-style="italic" lengthAdjust="spacing" textLength="52.1358" x="203.93" y="543.514">SolverPy</text><line style="stroke:#181818;stroke-width:0.5;" x1="175.93" x2="258.0658" y1="554.082" y2="554.082"/><line style="stroke:#181818;stroke-width:0.5;" x1="175.93" x2="258.0658" y1="562.082" y2="562.082"/></g><!--reverse link Solver to PluginSolver--><g class="link" data-entity-1="Solver" data-entity-2="PluginSolver" data-source-line="6" data-uid="lnk8" id="link_Solver_PluginSolver"><path d="M217,202.992 C217,222.592 217,233.882 217,262.512" fill="none" id="Solver-backto-PluginSolver" style="stroke:#181818;stroke-width:1;"/><polygon fill="none" points="217,184.992,211,202.992,223,202.992,217,184.992" style="stroke:#181818;stroke-width:1;"/></g><!--reverse link PluginSolver to SolverPy--><g class="link" data-entity-1="PluginSolver" data-entity-2="SolverPy" data-source-line="14" data-uid="lnk11" id="link_PluginSolver_SolverPy"><path d="M217,462.402 C217,490.962 217,502.142 217,521.692" fill="none" id="PluginSolver-backto-SolverPy" style="stroke:#181818;stroke-width:1;"/><polygon fill="none" points="217,444.402,211,462.402,223,462.402,217,444.402" style="stroke:#181818;stroke-width:1;"/></g><!--SRC=[ZP7DIWGn3CVlynG1BpCu-01UzG4Mz2OUicqOosRQqgJY8BwxSJeZ2Bkif-IV_ffFEOMOiU0CHtIdgQGQ_KFYL40BHh4dYjfrU1JJJi4nYe0aVgUIbxlcxEPfDTVWp7KASHE7LRIFG1zAqLz93vyT0Do09vSAQYe2zy11zELnZxmsOfs0_o3Flw6LkOKGW_PRHmEqs9QPUZVxqGXHZ8v6-9bAQLe6osP-W_SYr9y7jMQcXjRiptCZfAgvwWY5fBBkZJXaxdEm9cRIjsGMorHdkuWCtTV_ZcAwxUsmNDplnOjy0m00]--></g></svg>