<svg xmlns="http://www.w3.org/2000/svg" xmlns:xlink="http://www.w3.org/1999/xlink" contentStyleType="text/css" data-diagram-type="CLASS" height="489px" preserveAspectRatio="none" style="width:727px;height:489px;" version="1.1" viewBox="0 0 727 489" width="727px" zoomAndPan="magnify"><defs/><g><!--cluster solverpy--><g class="cluster" data-entity="solverpy" data-source-line="5" data-uid="ent0003" id="cluster_solverpy"><path d="M8.5,6.602 L68.3278,6.602 A3.75,3.75 0 0 1 70.8278,9.102 L77.8278,31.6699 L717.5,31.6699 A2.5,2.5 0 0 1 720,34.1699 L720,480.242 A2.5,2.5 0 0 1 717.5,482.742 L8.5,482.742 A2.5,2.5 0 0 1 6,480.242 L6,9.102 A2.5,2.5 0 0 1 8.5,6.602" fill="none" style="stroke:#000000;stroke-width:1.5;"/><line style="stroke:#000000;stroke-width:1.5;" x1="6" x2="77.8278" y1="31.6699" y2="31.6699"/><text fill="#000000" font-family="sans-serif" font-size="14" font-weight="bold" lengthAdjust="spacing" textLength="58.8278" x="10" y="23.5679">solverpy</text></g><!--cluster solver--><g class="cluster" data-entity="solver" data-source-line="5" data-uid="ent0004" id="cluster_solver"><path d="M32.5,52.602 L75.7029,52.602 A3.75,3.75 0 0 1 78.2029,55.102 L85.2029,77.6699 L693.5,77.6699 A2.5,2.5 0 0 1 696,80.1699 L696,456.242 A2.5,2.5 0 0 1 693.5,458.742 L32.5,458.742 A2.5,2.5 0 0 1 30,456.242 L30,55.102 A2.5,2.5 0 0 1 32.5,52.602" fill="none" style="stroke:#000000;stroke-width:1.5;"/><line style="stroke:#000000;stroke-width:1.5;" x1="30" x2="85.2029" y1="77.6699" y2="77.6699"/><text fill="#000000" font-family="sans-serif" font-size="14" font-weight="bold" lengthAdjust="spacing" textLength="42.2029" x="34" y="69.5679">solver</text></g><!--cluster pluginsolver--><g class="cluster" data-entity="pluginsolver" data-source-line="5" data-uid="ent0005" id="cluster_pluginsolver"><path d="M56.5,125.542 L144.0757,125.542 A3.75,3.75 0 0 1 146.5757,128.042 L153.5757,150.6099 L319.5,150.6099 A2.5,2.5 0 0 1 322,153.1099 L322,282.242 A2.5,2.5 0 0 1 319.5,284.742 L56.5,284.742 A2.5,2.5 0 0 1 54,282.242 L54,128.042 A2.5,2.5 0 0 1 56.5,125.542" fill="none" style="stroke:#000000;stroke-width:1.5;"/><line style="stroke:#000000;stroke-width:1.5;" x1="54" x2="153.5757" y1="150.6099" y2="150.6099"/><text fill="#000000" font-family="sans-serif" font-size="14" font-weight="bold" lengthAdjust="spacing" textLength="86.5757" x="58" y="142.5079">pluginsolver</text></g><!--cluster plugins--><g class="cluster" data-entity="plugins" data-source-line="12" data-uid="ent0007" id="cluster_plugins"><path d="M348.5,98.602 L401.0163,98.602 A3.75,3.75 0 0 1 403.5163,101.102 L410.5163,123.6699 L669.5,123.6699 A2.5,2.5 0 0 1 672,126.1699 L672,432.242 A2.5,2.5 0 0 1 669.5,434.742 L348.5,434.742 A2.5,2.5 0 0 1 346,432.242 L346,101.102 A2.5,2.5 0 0 1 348.5,98.602" fill="none" style="stroke:#000000;stroke-width:1.5;"/><line style="stroke:#000000;stroke-width:1.5;" x1="346" x2="410.5163" y1="123.6699" y2="123.6699"/><text fill="#000000" font-family="sans-serif" font-size="14" font-weight="bold" lengthAdjust="spacing" textLength="51.5163" x="350" y="115.5679">plugins</text></g><!--cluster plugin--><g class="cluster" data-entity="plugin" data-source-line="12" data-uid="ent0008" id="cluster_plugin"><path d="M372.5,144.602 L417.8728,144.602 A3.75,3.75 0 0 1 420.3728,147.102 L427.3728,169.6699 L525.5,169.6699 A2.5,2.5 0 0 1 528,172.1699 L528,263.172 A2.5,2.5 0 0 1 525.5,265.672 L372.5,265.672 A2.5,2.5 0 0 1 370,263.172 L370,147.102 A2.5,2.5 0 0 1 372.5,144.602" fill="none" style="stroke:#000000;stroke-width:1.5;"/><line style="stroke:#000000;stroke-width:1.5;" x1="370" x2="427.3728" y1="169.6699" y2="169.6699"/><text fill="#000000" font-family="sans-serif" font-size="14" font-weight="bold" lengthAdjust="spacing" textLength="44.3728" x="374" y="161.5679">plugin</text></g><!--cluster decorator--><g class="cluster" data-entity="decorator" data-source-line="16" data-uid="ent0010" id="cluster_decorator"><path d="M372.5,308.742 L442.0753,308.742 A3.75,3.75 0 0 1 444.5753,311.242 L451.5753,333.8099 L493.5,333.8099 A2.5,2.5 0 0 1 496,336.3099 L496,408.242 A2.5,2.5 0 0 1 493.5,410.742 L372.5,410.742 A2.5,2.5 0 0 1 370,408.242 L370,311.242 A2.5,2.5 0 0 1 372.5,308.742" fill="none" style="stroke:#000000;stroke-width:1.5;"/><line style="stroke:#000000;stroke-width:1.5;" x1="370" x2="451.5753" y1="333.8099" y2="333.8099"/><text fill="#000000" font-family="sans-serif" font-size="14" font-weight="bold" lengthAdjust="spacing" textLength="68.5753" x="374" y="325.7079">decorator</text></g><!--cluster translator--><g class="cluster" data-entity="translator" data-source-line="18" data-uid="ent0013" id="cluster_translator"><path d="M522.5,308.742 L592.6948,308.742 A3.75,3.75 0 0 1 595.1948,311.242 L602.1948,333.8099 L645.5,333.8099 A2.5,2.5 0 0 1 648,336.3099 L648,408.242 A2.5,2.5 0 0 1 645.5,410.742 L522.5,410.742 A2.5,2.5 0 0 1 520,408.242 L520,311.242 A2.5,2.5 0 0 1 522.5,308.742" fill="none" style="stroke:#000000;stroke-width:1.5;"/><line style="stroke:#000000;stroke-width:1.5;" x1="520" x2="602.1948" y1="333.8099" y2="333.8099"/><text fill="#000000" font-family="sans-serif" font-size="14" font-weight="bold" lengthAdjust="spacing" textLength="69.1948" x="524" y="325.7079">translator</text></g><!--class PluginSolver--><g class="entity" data-entity="PluginSolver" data-source-line="5" data-uid="ent0002" id="entity_PluginSolver"><rect fill="#F1F1F1" height="105.2038" rx="2.5" ry="2.5" style="stroke:#181818;stroke-width:0.5;" width="236.4892" x="69.76" y="163.542"/><ellipse cx="145.1847" cy="179.542" fill="#A9DCDF" rx="11" ry="11" style="stroke:#181818;stroke-width:1;"/><path d="M148.5285,184.792 L147.0597,181.042 L142.6222,181.042 L141.1847,184.792 L139.0597,184.792 L144.0129,172.0732 L145.7629,172.0732 L150.6847,184.792 L148.5285,184.792 Z M145.1847,175.8389 Q145.1379,175.6826 145.0129,175.3232 Q144.8879,174.9639 144.7785,174.5889 Q144.6691,174.1982 144.8722,174.1357 Q145.0285,174.3232 144.9347,174.6826 Q144.841,175.0264 144.7472,175.3232 Q144.6535,175.6045 144.5754,175.8389 L143.341,179.1514 L146.4191,179.1514 L145.1847,175.8389 Z " fill="#000000"/><text fill="#000000" font-family="sans-serif" font-size="14" font-style="italic" lengthAdjust="spacing" textLength="77.1397" x="165.6847" y="184.974">PluginSolver</text><line style="stroke:#181818;stroke-width:0.5;" x1="70.76" x2="305.2492" y1="195.542" y2="195.542"/><polygon fill="none" points="80.76,205.5759,84.76,209.5759,80.76,213.5759,76.76,209.5759" style="stroke:#B38D22;stroke-width:1;"/><text fill="#000000" font-family="sans-serif" font-size="14" lengthAdjust="spacing" textLength="176.8194" x="89.76" y="214.5079">decorators : list[Decorator]</text><polygon fill="none" points="80.76,224.6439,84.76,228.6439,80.76,232.6439,76.76,228.6439" style="stroke:#B38D22;stroke-width:1;"/><text fill="#000000" font-family="sans-serif" font-size="14" lengthAdjust="spacing" textLength="178.3034" x="89.76" y="233.5758">translators : list[Translator]</text><line style="stroke:#181818;stroke-width:1;" x1="70.76" x2="305.2492" y1="241.6778" y2="241.6778"/><ellipse cx="80.76" cy="256.7118" fill="#84BE84" rx="3" ry="3" style="stroke:#038048;stroke-width:1;"/><text fill="#000000" font-family="sans-serif" font-size="14" lengthAdjust="spacing" textLength="210.4892" x="89.76" y="260.6438">solve(instance, strategy) : Result</text></g><!--class Plugin--><g class="entity" data-entity="Plugin" data-source-line="12" data-uid="ent0006" id="entity_Plugin"><rect fill="#F1F1F1" height="67.0679" rx="2.5" ry="2.5" style="stroke:#181818;stroke-width:0.5;" width="125.3156" x="386.34" y="182.602"/><ellipse cx="425.5661" cy="198.602" fill="#A9DCDF" rx="11" ry="11" style="stroke:#181818;stroke-width:1;"/><path d="M428.9098,203.852 L427.4411,200.102 L423.0036,200.102 L421.5661,203.852 L419.4411,203.852 L424.3942,191.1332 L426.1442,191.1332 L431.0661,203.852 L428.9098,203.852 Z M425.5661,194.8989 Q425.5192,194.7426 425.3942,194.3832 Q425.2692,194.0239 425.1598,193.6489 Q425.0505,193.2582 425.2536,193.1957 Q425.4098,193.3832 425.3161,193.7426 Q425.2223,194.0864 425.1286,194.3832 Q425.0348,194.6645 424.9567,194.8989 L423.7223,198.2114 L426.8005,198.2114 L425.5661,194.8989 Z " fill="#000000"/><text fill="#000000" font-family="sans-serif" font-size="14" font-style="italic" lengthAdjust="spacing" textLength="39.4799" x="444.9497" y="204.034">Plugin</text><line style="stroke:#181818;stroke-width:0.5;" x1="387.34" x2="510.6556" y1="214.602" y2="214.602"/><line style="stroke:#181818;stroke-width:0.5;" x1="387.34" x2="510.6556" y1="222.602" y2="222.602"/><ellipse cx="397.34" cy="237.6359" fill="#84BE84" rx="3" ry="3" style="stroke:#038048;stroke-width:1;"/><text fill="#000000" font-family="sans-serif" font-size="14" lengthAdjust="spacing" textLength="99.3156" x="406.34" y="241.5679">register(solver)</text></g><!--class Decorator--><g class="entity" data-entity="Decorator" data-source-line="16" data-uid="ent0009" id="entity_Decorator"><rect fill="#F1F1F1" height="48" rx="2.5" ry="2.5" style="stroke:#181818;stroke-width:0.5;" width="94.1738" x="385.91" y="346.742"/><ellipse cx="400.91" cy="362.742" fill="#A9DCDF" rx="11" ry="11" style="stroke:#181818;stroke-width:1;"/><path d="M404.2538,367.992 L402.785,364.242 L398.3475,364.242 L396.91,367.992 L394.785,367.992 L399.7381,355.2732 L401.4881,355.2732 L406.41,367.992 L404.2538,367.992 Z M400.91,359.0389 Q400.8631,358.8826 400.7381,358.5232 Q400.6131,358.1639 400.5038,357.7889 Q400.3944,357.3982 400.5975,357.3357 Q400.7538,357.5232 400.66,357.8826 Q400.5663,358.2264 400.4725,358.5232 Q400.3788,358.8045 400.3006,359.0389 L399.0663,362.3514 L402.1444,362.3514 L400.91,359.0389 Z " fill="#000000"/><text fill="#000000" font-family="sans-serif" font-size="14" font-style="italic" lengthAdjust="spacing" textLength="62.1738" x="414.91" y="368.174">Decorator</text><line style="stroke:#181818;stroke-width:0.5;" x1="386.91" x2="479.0838" y1="378.742" y2="378.742"/><line style="stroke:#181818;stroke-width:0.5;" x1="386.91" x2="479.0838" y1="386.742" y2="386.742"/></g><!--class Translator--><g class="entity" data-entity="Translator" data-source-line="18" data-uid="ent0012" id="entity_Translator"><rect fill="#F1F1F1" height="48" rx="2.5" ry="2.5" style="stroke:#181818;stroke-width:0.5;" width="96.3577" x="535.82" y="346.742"/><ellipse cx="550.82" cy="362.742" fill="#A9DCDF" rx="11" ry="11" style="stroke:#181818;stroke-width:1;"/><path d="M554.1638,367.992 L552.695,364.242 L548.2575,364.242 L546.82,367.992 L544.695,367.992 L549.6481,355.2732 L551.3981,355.2732 L556.32,367.992 L554.1638,367.992 Z M550.82,359.0389 Q550.7731,358.8826 550.6481,358.5232 Q550.5231,358.1639 550.4138,357.7889 Q550.3044,357.3982 550.5075,357.3357 Q550.6638,357.5232 550.57,357.8826 Q550.4763,358.2264 550.3825,358.5232 Q550.2888,358.8045 550.2106,359.0389 L548.9763,362.3514 L552.0544,362.3514 L550.82,359.0389 Z " fill="#000000"/><text fill="#000000" font-family="sans-serif" font-size="14" font-style="italic" lengthAdjust="spacing" textLength="64.3577" x="564.82" y="368.174">Translator</text><line style="stroke:#181818;stroke-width:0.5;" x1="536.82" x2="631.1777" y1="378.742" y2="378.742"/><line style="stroke:#181818;stroke-width:0.5;" x1="536.82" x2="631.1777" y1="386.742" y2="386.742"/></g><!--reverse link Plugin to Decorator--><g class="link" data-entity-1="Plugin" data-entity-2="Decorator" data-source-line="16" data-uid="lnk11" id="link_Plugin_Decorator"><path d="M443.6918,267.7837 C440.6418,296.8537 438.14,320.722 435.44,346.492" fill="none" id="Plugin-backto-Decorator" style="stroke:#181818;stroke-width:1;"/><polygon fill="none" points="445.57,249.882,437.7245,267.1576,449.659,268.4098,445.57,249.882" style="stroke:#181818;stroke-width:1;"/></g><!--reverse link Plugin to Translator--><g class="link" data-entity-1="Plugin" data-entity-2="Translator" data-source-line="18" data-uid="lnk14" id="link_Plugin_Translator"><path d="M489.8874,263.3629 C515.6074,292.4329 540.63,320.722 563.43,346.492" fill="none" id="Plugin-backto-Translator" style="stroke:#181818;stroke-width:1;"/><polygon fill="none" points="477.96,249.882,485.3938,267.3388,494.3811,259.3871,477.96,249.882" style="stroke:#181818;stroke-width:1;"/></g><!--reverse link Plugin to PluginSolver--><g class="link" data-entity-1="Plugin" data-entity-2="PluginSolver" data-source-line="20" data-uid="lnk15" id="link_Plugin_PluginSolver"><path codeLine="20" d="M374.11,216.142 C347.58,216.142 333.05,216.142 306.52,216.142" fill="none" id="Plugin-backto-PluginSolver" style="stroke:#181818;stroke-width:1;"/><polygon fill="none" points="386.11,216.142,380.11,212.142,374.11,216.142,380.11,220.142,386.11,216.142" style="stroke:#181818;stroke-width:1;"/><text fill="#000000" font-family="sans-serif" font-size="13" lengthAdjust="spacing" textLength="7.163" x="371.0289" y="212.0468">*</text></g><!--SRC=[bL6x3i8m3Dpp5HOivT5-02jy008sn11Igwe8IMMx28JuTzAc5B659SbTphcpmvVQDPhq5SxQN2hohIlNtde28UquNA4JfPG-So2CWB6Q6TZR6rBpAEAXQ6nRrMu0snxiUm1F1G1JAD5uqkA9OGMsPZbkFimfAde_-oCvZ5IloVDkNKJpBDY9TWQNq2KJh1wpKBT3RgseLshYOHyonxGB8Ao2Fr8MnRC_tXiRBSO60U-2hapDa6prdLZndTJVPccwoNm2FgSy_UVL6m00]--></g></svg>