<svg xmlns="http://www.w3.org/2000/svg" xmlns:xlink="http://www.w3.org/1999/xlink" contentStyleType="text/css" data-diagram-type="CLASS" height="348px" preserveAspectRatio="none" style="width:543px;height:348px;" version="1.1" viewBox="0 0 543 348" width="543px" zoomAndPan="magnify"><defs/><g><!--class Talker--><g class="entity" data-entity="Talker" data-source-line="5" data-uid="ent0002" id="entity_Talker"><rect fill="#F1F1F1" height="334.0188" rx="2.5" ry="2.5" style="stroke:#181818;stroke-width:0.5;" width="286.525" x="7" y="7"/><ellipse cx="125.8106" cy="23" fill="#ADD1B2" rx="11" ry="11" style="stroke:#181818;stroke-width:1;"/><path d="M125.92,18.5313 Q124.9981,18.5313 124.2637,18.8438 Q123.545,19.1563 123.045,19.75 Q122.545,20.3281 122.2637,21.2031 Q121.9981,22.0781 121.9981,23.1719 Q121.9981,24.6094 122.4356,25.6563 Q122.8887,26.7031 123.7325,27.25 Q124.5918,27.7969 125.9043,27.7969 Q126.6856,27.7969 127.3731,27.6719 Q128.0762,27.5313 129.0762,27.2188 L129.0762,29.0938 Q128.2168,29.4219 127.4512,29.5469 Q126.7012,29.6719 125.6856,29.6719 Q123.7637,29.6719 122.4512,28.875 Q121.1543,28.0625 120.4981,26.5938 Q119.8418,25.1094 119.8418,23.1406 Q119.8418,21.7188 120.2325,20.5469 Q120.6387,19.3594 121.42,18.4844 Q122.2012,17.6094 123.3418,17.1406 Q124.4825,16.6563 125.9512,16.6563 Q126.9043,16.6563 127.795,16.8594 Q128.7012,17.0469 129.6387,17.5156 L128.8106,19.2969 Q128.0293,18.9219 127.3731,18.7344 Q126.7168,18.5313 125.92,18.5313 Z " fill="#000000"/><text fill="#000000" font-family="sans-serif" font-size="14" lengthAdjust="spacing" textLength="40.4038" x="146.3106" y="28.432">Talker</text><line style="stroke:#181818;stroke-width:0.5;" x1="8" x2="292.525" y1="39" y2="39"/><rect fill="none" height="6" style="stroke:#C82930;stroke-width:1;" width="6" x="15" y="51.034"/><text fill="#000000" font-family="sans-serif" font-size="14" lengthAdjust="spacing" textLength="210.8531" x="27" y="57.9659">_log_queue: Queue[Any] | None</text><rect fill="none" height="6" style="stroke:#C82930;stroke-width:1;" width="6" x="15" y="70.1019"/><text fill="#000000" font-family="sans-serif" font-size="14" lengthAdjust="spacing" textLength="210.4332" x="27" y="77.0339">_listener: QueueListener | None</text><line style="stroke:#181818;stroke-width:0.5;" x1="8" x2="292.525" y1="85.1358" y2="85.1358"/><ellipse cx="18" cy="100.1698" fill="#84BE84" rx="3" ry="3" style="stroke:#038048;stroke-width:1;"/><text fill="#000000" font-family="sans-serif" font-size="14" lengthAdjust="spacing" textLength="54.1938" x="27" y="104.1018">__init__()</text><ellipse cx="18" cy="119.2377" fill="#84BE84" rx="3" ry="3" style="stroke:#038048;stroke-width:1;"/><text fill="#000000" font-family="sans-serif" font-size="14" lengthAdjust="spacing" text-decoration="underline" textLength="117.8935" x="27" y="123.1697">log_config(queue)</text><ellipse cx="18" cy="138.3056" fill="#84BE84" rx="3" ry="3" style="stroke:#038048;stroke-width:1;"/><text fill="#000000" font-family="sans-serif" font-size="14" lengthAdjust="spacing" textLength="65.7578" x="27" y="142.2376">log_start()</text><ellipse cx="18" cy="157.3735" fill="#84BE84" rx="3" ry="3" style="stroke:#038048;stroke-width:1;"/><text fill="#000000" font-family="sans-serif" font-size="14" lengthAdjust="spacing" textLength="64.1478" x="27" y="161.3055">log_stop()</text><ellipse cx="18" cy="176.4415" fill="#84BE84" rx="3" ry="3" style="stroke:#038048;stroke-width:1;"/><text fill="#000000" font-family="sans-serif" font-size="14" lengthAdjust="spacing" textLength="101.4716" x="27" y="180.3734">listening_start()</text><ellipse cx="18" cy="195.5094" fill="#84BE84" rx="3" ry="3" style="stroke:#038048;stroke-width:1;"/><text fill="#000000" font-family="sans-serif" font-size="14" lengthAdjust="spacing" textLength="99.8616" x="27" y="199.4414">listening_stop()</text><ellipse cx="18" cy="214.5773" fill="#84BE84" rx="3" ry="3" style="stroke:#038048;stroke-width:1;"/><text fill="#000000" font-family="sans-serif" font-size="14" lengthAdjust="spacing" textLength="260.525" x="27" y="218.5093">begin(jobs, refjob, sidnames, **kwargs)</text><ellipse cx="18" cy="233.6452" fill="#84BE84" rx="3" ry="3" style="stroke:#038048;stroke-width:1;"/><text fill="#000000" font-family="sans-serif" font-size="14" lengthAdjust="spacing" textLength="124.5435" x="27" y="237.5772">end(results, refjob)</text><ellipse cx="18" cy="252.7131" fill="#84BE84" rx="3" ry="3" style="stroke:#038048;stroke-width:1;"/><text fill="#000000" font-family="sans-serif" font-size="14" lengthAdjust="spacing" textLength="58.0998" x="27" y="256.6451">next(job)</text><ellipse cx="18" cy="271.781" fill="#84BE84" rx="3" ry="3" style="stroke:#038048;stroke-width:1;"/><text fill="#000000" font-family="sans-serif" font-size="14" lengthAdjust="spacing" textLength="73.2897" x="27" y="275.713">terminate()</text><ellipse cx="18" cy="290.849" fill="#84BE84" rx="3" ry="3" style="stroke:#038048;stroke-width:1;"/><text fill="#000000" font-family="sans-serif" font-size="14" lengthAdjust="spacing" textLength="107.2116" x="27" y="294.7809">launching(tasks)</text><ellipse cx="18" cy="309.9169" fill="#84BE84" rx="3" ry="3" style="stroke:#038048;stroke-width:1;"/><text fill="#000000" font-family="sans-serif" font-size="14" lengthAdjust="spacing" textLength="133.1395" x="27" y="313.8489">finished(task, result)</text><ellipse cx="18" cy="328.9848" fill="#84BE84" rx="3" ry="3" style="stroke:#038048;stroke-width:1;"/><text fill="#000000" font-family="sans-serif" font-size="14" lengthAdjust="spacing" textLength="42.0278" x="27" y="332.9168">done()</text></g><path d="M328.29,63.19 L328.29,81.896 L144.8935,117.7377 L328.29,89.896 L328.29,108.602 A0,0 0 0 0 328.29,108.602 L536.2432,108.602 A0,0 0 0 0 536.2432,108.602 L536.2432,73.19 L526.2432,63.19 L328.29,63.19 A0,0 0 0 0 328.29,63.19" fill="#FEFFDD" style="stroke:#181818;stroke-width:0.5;"/><path d="M526.2432,63.19 L526.2432,73.19 L536.2432,73.19 L526.2432,63.19" fill="#FEFFDD" style="stroke:#181818;stroke-width:0.5;"/><text fill="#000000" font-family="sans-serif" font-size="13" lengthAdjust="spacing" textLength="186.9532" x="334.29" y="82.087">Configure child process logger</text><text fill="#000000" font-family="sans-serif" font-size="13" lengthAdjust="spacing" textLength="103.0771" x="334.29" y="99.793">to use the queue</text><path d="M328.29,118.602 L328.29,137.308 L92.7578,136.8056 L328.29,145.308 L328.29,164.0141 A0,0 0 0 0 328.29,164.0141 L475.9231,164.0141 A0,0 0 0 0 475.9231,164.0141 L475.9231,128.602 L465.9231,118.602 L328.29,118.602 A0,0 0 0 0 328.29,118.602" fill="#FEFFDD" style="stroke:#181818;stroke-width:0.5;"/><path d="M465.9231,118.602 L465.9231,128.602 L475.9231,128.602 L465.9231,118.602" fill="#FEFFDD" style="stroke:#181818;stroke-width:0.5;"/><text fill="#000000" font-family="sans-serif" font-size="13" lengthAdjust="spacing" textLength="123.2531" x="334.29" y="137.499">Start parent logging</text><text fill="#000000" font-family="sans-serif" font-size="13" lengthAdjust="spacing" textLength="95.4071" x="334.29" y="155.2051">from the queue</text><path d="M328.29,174.0141 L328.29,192.7201 L91.1478,155.8735 L328.29,200.7201 L328.29,219.4261 A0,0 0 0 0 328.29,219.4261 L471.0481,219.4261 A0,0 0 0 0 471.0481,219.4261 L471.0481,184.0141 L461.0481,174.0141 L328.29,174.0141 A0,0 0 0 0 328.29,174.0141" fill="#FEFFDD" style="stroke:#181818;stroke-width:0.5;"/><path d="M461.0481,174.0141 L461.0481,184.0141 L471.0481,184.0141 L461.0481,174.0141" fill="#FEFFDD" style="stroke:#181818;stroke-width:0.5;"/><text fill="#000000" font-family="sans-serif" font-size="13" lengthAdjust="spacing" textLength="121.7581" x="334.29" y="192.9111">Stop parent logging</text><text fill="#000000" font-family="sans-serif" font-size="13" lengthAdjust="spacing" textLength="95.4071" x="334.29" y="210.6171">from the queue</text><path d="M328.29,229.4261 L328.29,248.1321 L287.525,213.0773 L328.29,256.1321 L328.29,274.8381 A0,0 0 0 0 328.29,274.8381 L527.6112,274.8381 A0,0 0 0 0 527.6112,274.8381 L527.6112,239.4261 L517.6112,229.4261 L328.29,229.4261 A0,0 0 0 0 328.29,229.4261" fill="#FEFFDD" style="stroke:#181818;stroke-width:0.5;"/><path d="M517.6112,229.4261 L517.6112,239.4261 L527.6112,239.4261 L517.6112,229.4261" fill="#FEFFDD" style="stroke:#181818;stroke-width:0.5;"/><text fill="#000000" font-family="sans-serif" font-size="13" lengthAdjust="spacing" textLength="102.2711" x="334.29" y="248.3231">Abstract method</text><text fill="#000000" font-family="sans-serif" font-size="13" lengthAdjust="spacing" textLength="178.3212" x="334.29" y="266.0291">Raises NotImplementedError</text><!--SRC=[bPBBJiD034Nt-GelGoa_q5rLiK12I3ns24NJn4c697RmE09K-kyua_IXBf1OpVZwph5iJsWyzKvS1rkNDvNmGCM6MnPGSHGiXQH9akIj2m5UNDkWm2u1k86ivIhx67305JoEn-kQlj_W1nwOS7Rue4Wei-5-3WyUCrr3bddoccNfLGntGPtwV0yZFMSgVPN68bDwLCqXcfx7t1_2MC7JXUbCFLgtM7bAttaRbY1OscK9mHVaEZHbiMW-dLHXyY8LgM0OMZsQfmJXbwR7I54wJqxnKDSDbDTMDrKNcfbLMhkXnY9g8st4Jgd2Xc9Fzqb2h0ZYgrg1otdigzLf96RVnCiW25QYBQ0Npj5sPAOAnGpAC0G4hH7Y01Fh0aRmN_WuDdlyF9umhJyYhGimlHJk_etaFXAvlm3-dnUNPi_Mss3_CrVeK6ikJ7boFc2mVwLtNTzYPsMmk1LXEK5_0G00]--></g></svg>