<svg xmlns="http://www.w3.org/2000/svg" xmlns:xlink="http://www.w3.org/1999/xlink" contentStyleType="text/css" data-diagram-type="CLASS" height="477px" preserveAspectRatio="none" style="width:900px;height:477px;background:#FFFFFF;" version="1.1" viewBox="0 0 900 477" width="900px" zoomAndPan="magnify"><defs/><g><!--cluster solverpy--><g class="cluster" data-entity="solverpy" data-source-line="1" data-uid="ent0003" id="cluster_solverpy"><path d="M8.5,6.602 L68.3278,6.602 A3.75,3.75 0 0 1 70.8278,9.102 L77.8278,31.6699 L890.5,31.6699 A2.5,2.5 0 0 1 893,34.1699 L893,468.442 A2.5,2.5 0 0 1 890.5,470.942 L8.5,470.942 A2.5,2.5 0 0 1 6,468.442 L6,9.102 A2.5,2.5 0 0 1 8.5,6.602" fill="none" style="stroke:#000000;stroke-width:1.5;"/><line style="stroke:#000000;stroke-width:1.5;" x1="6" x2="77.8278" y1="31.6699" y2="31.6699"/><text fill="#000000" font-family="sans-serif" font-size="14" font-weight="bold" lengthAdjust="spacing" textLength="58.8278" x="10" y="23.5679">solverpy</text></g><!--cluster setups--><g class="cluster" data-entity="setups" data-source-line="1" data-uid="ent0004" id="cluster_setups"><path d="M32.5,98.602 L79.7488,98.602 A3.75,3.75 0 0 1 82.2488,101.102 L89.2488,123.6699 L333.5,123.6699 A2.5,2.5 0 0 1 336,126.1699 L336,444.442 A2.5,2.5 0 0 1 333.5,446.942 L32.5,446.942 A2.5,2.5 0 0 1 30,444.442 L30,101.102 A2.5,2.5 0 0 1 32.5,98.602" fill="none" style="stroke:#000000;stroke-width:1.5;"/><line style="stroke:#000000;stroke-width:1.5;" x1="30" x2="89.2488" y1="123.6699" y2="123.6699"/><text fill="#000000" font-family="sans-serif" font-size="14" font-weight="bold" lengthAdjust="spacing" textLength="46.2488" x="34" y="115.5679">setups</text></g><!--cluster benchmark--><g class="cluster" data-entity="benchmark" data-source-line="13" data-uid="ent0009" id="cluster_benchmark"><path d="M362.5,52.602 L442.1692,52.602 A3.75,3.75 0 0 1 444.6692,55.102 L451.6692,77.6699 L659.5,77.6699 A2.5,2.5 0 0 1 662,80.1699 L662,317.442 A2.5,2.5 0 0 1 659.5,319.942 L362.5,319.942 A2.5,2.5 0 0 1 360,317.442 L360,55.102 A2.5,2.5 0 0 1 362.5,52.602" fill="none" style="stroke:#000000;stroke-width:1.5;"/><line style="stroke:#000000;stroke-width:1.5;" x1="360" x2="451.6692" y1="77.6699" y2="77.6699"/><text fill="#000000" font-family="sans-serif" font-size="14" font-weight="bold" lengthAdjust="spacing" textLength="78.6692" x="364" y="69.5679">benchmark</text></g><!--cluster db--><g class="cluster" data-entity="db" data-source-line="13" data-uid="ent0010" id="cluster_db"><path d="M386.5,98.602 L405.5949,98.602 A3.75,3.75 0 0 1 408.0949,101.102 L415.0949,123.6699 L635.5,123.6699 A2.5,2.5 0 0 1 638,126.1699 L638,293.442 A2.5,2.5 0 0 1 635.5,295.942 L386.5,295.942 A2.5,2.5 0 0 1 384,293.442 L384,101.102 A2.5,2.5 0 0 1 386.5,98.602" fill="none" style="stroke:#000000;stroke-width:1.5;"/><line style="stroke:#000000;stroke-width:1.5;" x1="384" x2="415.0949" y1="123.6699" y2="123.6699"/><text fill="#000000" font-family="sans-serif" font-size="14" font-weight="bold" lengthAdjust="spacing" textLength="18.0949" x="388" y="115.5679">db</text></g><!--cluster tasks--><g class="cluster" data-entity="tasks" data-source-line="23" data-uid="ent0012" id="cluster_tasks"><path d="M705.5,98.602 L742.4834,98.602 A3.75,3.75 0 0 1 744.9834,101.102 L751.9834,123.6699 L866.5,123.6699 A2.5,2.5 0 0 1 869,126.1699 L869,293.442 A2.5,2.5 0 0 1 866.5,295.942 L705.5,295.942 A2.5,2.5 0 0 1 703,293.442 L703,101.102 A2.5,2.5 0 0 1 705.5,98.602" fill="none" style="stroke:#000000;stroke-width:1.5;"/><line style="stroke:#000000;stroke-width:1.5;" x1="703" x2="751.9834" y1="123.6699" y2="123.6699"/><text fill="#000000" font-family="sans-serif" font-size="14" font-weight="bold" lengthAdjust="spacing" textLength="35.9834" x="707" y="115.5679">tasks</text></g><!--class Setup--><g class="entity" data-entity="Setup" data-source-line="1" data-uid="ent0002" id="entity_Setup"><rect fill="#F1F1F1" height="143.3396" rx="2.5" ry="2.5" style="stroke:#181818;stroke-width:0.5;" width="167.9875" x="138.01" y="136.602"/><ellipse cx="198.8048" cy="152.602" fill="#7E57C2" rx="11" ry="11" style="stroke:#181818;stroke-width:1;"/><path d="M205.461,152.6489 Q205.461,154.7582 204.6642,156.2114 Q203.8673,157.6489 202.3829,158.3832 Q200.9142,159.102 198.8517,159.102 L195.211,159.102 L195.211,146.4301 L199.211,146.4301 Q201.1017,146.4301 202.5079,147.1489 Q203.9142,147.852 204.6798,149.2426 Q205.461,150.6332 205.461,152.6489 Z M203.3204,152.6957 Q203.3204,151.1489 202.8204,150.1801 Q202.3204,149.2114 201.3517,148.7426 Q200.3829,148.2739 198.9923,148.2739 L197.2579,148.2739 L197.2579,157.2582 L198.6485,157.2582 Q201.0079,157.2582 202.1642,156.1332 Q203.3204,154.9926 203.3204,152.6957 Z " fill="#000000"/><text fill="#000000" font-family="sans-serif" font-size="14" lengthAdjust="spacing" textLength="37.8979" x="219.3048" y="158.034">Setup</text><line style="stroke:#181818;stroke-width:0.5;" x1="139.01" x2="304.9975" y1="168.602" y2="168.602"/><ellipse cx="149.01" cy="183.6359" fill="none" rx="3" ry="3" style="stroke:#038048;stroke-width:1;"/><text fill="#000000" font-family="sans-serif" font-size="14" lengthAdjust="spacing" textLength="124.3056" x="158.01" y="187.5679">strategies : list[Sid]</text><ellipse cx="149.01" cy="202.7039" fill="none" rx="3" ry="3" style="stroke:#038048;stroke-width:1;"/><text fill="#000000" font-family="sans-serif" font-size="14" lengthAdjust="spacing" textLength="141.9875" x="158.01" y="206.6358">benchmarks : list[Bid]</text><ellipse cx="149.01" cy="221.7718" fill="none" rx="3" ry="3" style="stroke:#038048;stroke-width:1;"/><text fill="#000000" font-family="sans-serif" font-size="14" lengthAdjust="spacing" textLength="106.7776" x="158.01" y="225.7038">solver : SolverPy</text><ellipse cx="149.01" cy="240.8397" fill="none" rx="3" ry="3" style="stroke:#038048;stroke-width:1;"/><text fill="#000000" font-family="sans-serif" font-size="14" lengthAdjust="spacing" textLength="47.5718" x="158.01" y="244.7717">db : DB</text><line style="stroke:#181818;stroke-width:1;" x1="139.01" x2="304.9975" y1="252.8736" y2="252.8736"/><ellipse cx="149.01" cy="267.9076" fill="#84BE84" rx="3" ry="3" style="stroke:#038048;stroke-width:1;"/><text fill="#000000" font-family="sans-serif" font-size="14" lengthAdjust="spacing" textLength="52.5418" x="158.01" y="271.8396">launch()</text></g><!--entity evaluation--><g class="entity" data-entity="evaluation" data-source-line="9" data-uid="ent0005" id="entity_evaluation"><ellipse cx="88" cy="398.942" fill="#F1F1F1" rx="8" ry="8" style="stroke:#181818;stroke-width:0.5;"/><text fill="#000000" font-family="sans-serif" font-size="14" lengthAdjust="spacing" textLength="68.7677" x="53.6161" y="430.9079">evaluation</text></g><!--entity eprover--><g class="entity" data-entity="eprover" data-source-line="10" data-uid="ent0006" id="entity_eprover"><ellipse cx="198" cy="398.942" fill="#F1F1F1" rx="8" ry="8" style="stroke:#181818;stroke-width:0.5;"/><text fill="#000000" font-family="sans-serif" font-size="14" lengthAdjust="spacing" textLength="51.5478" x="172.2261" y="430.9079">eprover</text></g><!--entity cvc5--><g class="entity" data-entity="cvc5" data-source-line="11" data-uid="ent0007" id="entity_cvc5"><ellipse cx="293" cy="398.942" fill="#F1F1F1" rx="8" ry="8" style="stroke:#181818;stroke-width:0.5;"/><text fill="#000000" font-family="sans-serif" font-size="14" lengthAdjust="spacing" textLength="28.5599" x="278.7201" y="430.9079">cvc5</text></g><!--class DB--><g class="entity" data-entity="DB" data-source-line="13" data-uid="ent0008" id="entity_DB"><rect fill="#F1F1F1" height="143.3396" rx="2.5" ry="2.5" style="stroke:#181818;stroke-width:0.5;" width="222.7832" x="399.61" y="136.602"/><ellipse cx="497.0917" cy="152.602" fill="#ADD1B2" rx="11" ry="11" style="stroke:#181818;stroke-width:1;"/><path d="M497.201,148.1332 Q496.2792,148.1332 495.5448,148.4457 Q494.826,148.7582 494.326,149.352 Q493.826,149.9301 493.5448,150.8051 Q493.2792,151.6801 493.2792,152.7739 Q493.2792,154.2114 493.7167,155.2582 Q494.1698,156.3051 495.0135,156.852 Q495.8729,157.3989 497.1854,157.3989 Q497.9667,157.3989 498.6542,157.2739 Q499.3573,157.1332 500.3573,156.8207 L500.3573,158.6957 Q499.4979,159.0239 498.7323,159.1489 Q497.9823,159.2739 496.9667,159.2739 Q495.0448,159.2739 493.7323,158.477 Q492.4354,157.6645 491.7792,156.1957 Q491.1229,154.7114 491.1229,152.7426 Q491.1229,151.3207 491.5135,150.1489 Q491.9198,148.9614 492.701,148.0864 Q493.4823,147.2114 494.6229,146.7426 Q495.7635,146.2582 497.2323,146.2582 Q498.1854,146.2582 499.076,146.4614 Q499.9823,146.6489 500.9198,147.1176 L500.0917,148.8989 Q499.3104,148.5239 498.6542,148.3364 Q497.9979,148.1332 497.201,148.1332 Z " fill="#000000"/><text fill="#000000" font-family="sans-serif" font-size="14" lengthAdjust="spacing" textLength="19.3199" x="517.5917" y="158.034">DB</text><line style="stroke:#181818;stroke-width:0.5;" x1="400.61" x2="621.3932" y1="168.602" y2="168.602"/><polygon fill="none" points="410.61,178.6359,414.61,182.6359,410.61,186.6359,406.61,182.6359" style="stroke:#B38D22;stroke-width:1;"/><text fill="#000000" font-family="sans-serif" font-size="14" lengthAdjust="spacing" textLength="136.0515" x="419.61" y="187.5679">providers : Providers</text><line style="stroke:#181818;stroke-width:1;" x1="400.61" x2="621.3932" y1="195.6699" y2="195.6699"/><ellipse cx="410.61" cy="210.7039" fill="#84BE84" rx="3" ry="3" style="stroke:#038048;stroke-width:1;"/><text fill="#000000" font-family="sans-serif" font-size="14" lengthAdjust="spacing" textLength="58.4358" x="419.61" y="214.6358">commit()</text><ellipse cx="410.61" cy="229.7718" fill="#84BE84" rx="3" ry="3" style="stroke:#038048;stroke-width:1;"/><text fill="#000000" font-family="sans-serif" font-size="14" lengthAdjust="spacing" textLength="196.7832" x="419.61" y="233.7038">connect(benchmark, strategy)</text><ellipse cx="410.61" cy="248.8397" fill="#84BE84" rx="3" ry="3" style="stroke:#038048;stroke-width:1;"/><text fill="#000000" font-family="sans-serif" font-size="14" lengthAdjust="spacing" textLength="138.6415" x="419.61" y="252.7717">query(tasks) : Results</text><ellipse cx="410.61" cy="267.9076" fill="#84BE84" rx="3" ry="3" style="stroke:#038048;stroke-width:1;"/><text fill="#000000" font-family="sans-serif" font-size="14" lengthAdjust="spacing" textLength="127.9035" x="419.61" y="271.8396">store(tasks, results)</text></g><!--class SolverTask--><g class="entity" data-entity="SolverTask" data-source-line="23" data-uid="ent0011" id="entity_SolverTask"><rect fill="#F1F1F1" height="143.3396" rx="2.5" ry="2.5" style="stroke:#181818;stroke-width:0.5;" width="133.0856" x="719.46" y="136.602"/><ellipse cx="748.2785" cy="152.602" fill="#ADD1B2" rx="11" ry="11" style="stroke:#181818;stroke-width:1;"/><path d="M748.3879,148.1332 Q747.466,148.1332 746.7317,148.4457 Q746.0129,148.7582 745.5129,149.352 Q745.0129,149.9301 744.7317,150.8051 Q744.466,151.6801 744.466,152.7739 Q744.466,154.2114 744.9035,155.2582 Q745.3567,156.3051 746.2004,156.852 Q747.0598,157.3989 748.3723,157.3989 Q749.1535,157.3989 749.841,157.2739 Q750.5442,157.1332 751.5442,156.8207 L751.5442,158.6957 Q750.6848,159.0239 749.9192,159.1489 Q749.1692,159.2739 748.1535,159.2739 Q746.2317,159.2739 744.9192,158.477 Q743.6223,157.6645 742.966,156.1957 Q742.3098,154.7114 742.3098,152.7426 Q742.3098,151.3207 742.7004,150.1489 Q743.1067,148.9614 743.8879,148.0864 Q744.6692,147.2114 745.8098,146.7426 Q746.9504,146.2582 748.4192,146.2582 Q749.3723,146.2582 750.2629,146.4614 Q751.1692,146.6489 752.1067,147.1176 L751.2785,148.8989 Q750.4973,148.5239 749.841,148.3364 Q749.1848,148.1332 748.3879,148.1332 Z " fill="#000000"/><text fill="#000000" font-family="sans-serif" font-size="14" lengthAdjust="spacing" textLength="70.3777" x="765.3493" y="158.034">SolverTask</text><line style="stroke:#181818;stroke-width:0.5;" x1="720.46" x2="851.5456" y1="168.602" y2="168.602"/><ellipse cx="730.46" cy="183.6359" fill="none" rx="3" ry="3" style="stroke:#038048;stroke-width:1;"/><text fill="#000000" font-family="sans-serif" font-size="14" lengthAdjust="spacing" textLength="106.7776" x="739.46" y="187.5679">solver : SolverPy</text><ellipse cx="730.46" cy="202.7039" fill="none" rx="3" ry="3" style="stroke:#038048;stroke-width:1;"/><text fill="#000000" font-family="sans-serif" font-size="14" lengthAdjust="spacing" textLength="107.0856" x="739.46" y="206.6358">benchmark : Bid</text><ellipse cx="730.46" cy="221.7718" fill="none" rx="3" ry="3" style="stroke:#038048;stroke-width:1;"/><text fill="#000000" font-family="sans-serif" font-size="14" lengthAdjust="spacing" textLength="84.6437" x="739.46" y="225.7038">problem : str</text><ellipse cx="730.46" cy="240.8397" fill="none" rx="3" ry="3" style="stroke:#038048;stroke-width:1;"/><text fill="#000000" font-family="sans-serif" font-size="14" lengthAdjust="spacing" textLength="85.0357" x="739.46" y="244.7717">strategy : Sid</text><line style="stroke:#181818;stroke-width:1;" x1="720.46" x2="851.5456" y1="252.8736" y2="252.8736"/><ellipse cx="730.46" cy="267.9076" fill="#84BE84" rx="3" ry="3" style="stroke:#038048;stroke-width:1;"/><text fill="#000000" font-family="sans-serif" font-size="14" lengthAdjust="spacing" textLength="83.1457" x="739.46" y="271.8396">run() : Result</text></g><!--reverse link Setup to evaluation--><g class="link" data-entity-1="Setup" data-entity-2="evaluation" data-source-line="32" data-uid="lnk13" id="link_Setup_evaluation"><path codeLine="32" d="M168.0559,285.2238 C138.0859,327.4238 106.88,371.362 93.58,390.082" fill="none" id="Setup-backto-evaluation" style="stroke:#181818;stroke-width:1;"/><polygon fill="#181818" points="171.53,280.332,163.0575,285.3537,168.6349,284.4085,169.58,289.9859,171.53,280.332" style="stroke:#181818;stroke-width:1;"/></g><!--reverse link Setup to eprover--><g class="link" data-entity-1="Setup" data-entity-2="eprover" data-source-line="33" data-uid="lnk14" id="link_Setup_eprover"><path codeLine="33" d="M212.2026,286.284 C206.8326,328.484 201.38,371.362 199,390.082" fill="none" id="Setup-backto-eprover" style="stroke:#181818;stroke-width:1;"/><polygon fill="#181818" points="212.96,280.332,207.8559,288.7551,212.3288,285.292,215.7919,289.7649,212.96,280.332" style="stroke:#181818;stroke-width:1;"/></g><!--reverse link Setup to cvc5--><g class="link" data-entity-1="Setup" data-entity-2="cvc5" data-source-line="34" data-uid="lnk15" id="link_Setup_cvc5"><path codeLine="34" d="M250.8532,285.9475 C266.7332,328.1475 283,371.362 290.04,390.082" fill="none" id="Setup-backto-cvc5" style="stroke:#181818;stroke-width:1;"/><polygon fill="#181818" points="248.74,280.332,248.166,290.1641,250.501,285.0116,255.6534,287.3466,248.74,280.332" style="stroke:#181818;stroke-width:1;"/></g><!--link Setup to DB--><g class="link" data-entity-1="Setup" data-entity-2="DB" data-source-line="36" data-uid="lnk16" id="link_Setup_DB"><path codeLine="36" d="M306.39,208.272 C337.42,208.272 356.46,208.272 387.5,208.272" fill="none" id="Setup-to-DB" style="stroke:#181818;stroke-width:1;"/><polygon fill="none" points="399.5,208.272,393.5,204.272,387.5,208.272,393.5,212.272,399.5,208.272" style="stroke:#181818;stroke-width:1;"/><text fill="#000000" font-family="sans-serif" font-size="13" lengthAdjust="spacing" textLength="7.436" x="384.0706" y="204.5707">1</text></g><!--reverse link SolverTask to DB--><g class="link" data-entity-1="SolverTask" data-entity-2="DB" data-source-line="38" data-uid="lnk18" id="link_SolverTask_DB"><path codeLine="38" d="M707.25,208.272 C678.29,208.272 655.57,208.272 622.85,208.272" fill="none" id="SolverTask-backto-DB" style="stroke:#181818;stroke-width:1;stroke-dasharray:7,7;"/><polygon fill="none" points="719.25,208.272,713.25,204.272,707.25,208.272,713.25,212.272,719.25,208.272" style="stroke:#181818;stroke-width:1;"/><text fill="#000000" font-family="sans-serif" font-size="13" lengthAdjust="spacing" textLength="37.713" x="653.94" y="201.169">stores</text><text fill="#000000" font-family="sans-serif" font-size="13" lengthAdjust="spacing" textLength="7.163" x="704.1364" y="204.227">*</text></g><!--SRC=[bLB1Ri8m3BtdAwpkKWQDjCCkQ2V41w2nsxH3cdeGaROiJf6gYN-VcnJe6B2jXzRnSrxz_0m0K2Ylj5L4GBNTeTksaj0tMvBBxWEVWejW3EITyhWoI305QyY_Batn1ZsQOwNNfNAR8peRe96PaMK85csVBtBEpMVXb6Lzqgg6kT9HEEx3MnkdBVve47VADigRkhfPjNKr9swLw9r-5B7W-oIEicIHo_ci7mO_Tz2ncW9T9tXnY0zmBoReqNLP6j_hwJDLXTgdH_R9ORhjeEgZGTUcNj66HloFPwJ6UZhXv6k74P-0Y-X8xCL58Q5Cnl6_S1oLN75cO2SZR6HCikBSOiafxbOCbwBj269PL3u6rrJfgMqHh0oDNTwofopxpTv_N1mu_lTRfoMuV2TpPhNsMGt9Gt9rGyu8plT7MdptaYdkanlUJ249B9t1n44YlW00]--></g></svg>