<svg xmlns="http://www.w3.org/2000/svg" xmlns:xlink="http://www.w3.org/1999/xlink" contentStyleType="text/css" data-diagram-type="CLASS" height="427px" preserveAspectRatio="none" style="width:507px;height:427px;background:#FFFFFF;" version="1.1" viewBox="0 0 507 427" width="507px" zoomAndPan="magnify"><defs/><g><!--cluster solverpy--><g class="cluster" data-entity="solverpy" data-source-line="1" data-uid="ent0003" id="cluster_solverpy"><path d="M8.5,6.602 L68.3278,6.602 A3.75,3.75 0 0 1 70.8278,9.102 L77.8278,31.6699 L497.5,31.6699 A2.5,2.5 0 0 1 500,34.1699 L500,417.582 A2.5,2.5 0 0 1 497.5,420.082 L8.5,420.082 A2.5,2.5 0 0 1 6,417.582 L6,9.102 A2.5,2.5 0 0 1 8.5,6.602" fill="none" style="stroke:#000000;stroke-width:1.5;"/><line style="stroke:#000000;stroke-width:1.5;" x1="6" x2="77.8278" y1="31.6699" y2="31.6699"/><text fill="#000000" font-family="sans-serif" font-size="14" font-weight="bold" lengthAdjust="spacing" textLength="58.8278" x="10" y="23.5679">solverpy</text></g><!--cluster setups--><g class="cluster" data-entity="setups" data-source-line="1" data-uid="ent0004" id="cluster_setups"><path d="M32.5,52.602 L79.7488,52.602 A3.75,3.75 0 0 1 82.2488,55.102 L89.2488,77.6699 L218.5,77.6699 A2.5,2.5 0 0 1 221,80.1699 L221,382.512 A2.5,2.5 0 0 1 218.5,385.012 L32.5,385.012 A2.5,2.5 0 0 1 30,382.512 L30,55.102 A2.5,2.5 0 0 1 32.5,52.602" fill="none" style="stroke:#000000;stroke-width:1.5;"/><line style="stroke:#000000;stroke-width:1.5;" x1="30" x2="89.2488" y1="77.6699" y2="77.6699"/><text fill="#000000" font-family="sans-serif" font-size="14" font-weight="bold" lengthAdjust="spacing" textLength="46.2488" x="34" y="69.5679">setups</text></g><!--cluster builder--><g class="cluster" data-entity="builder" data-source-line="12" data-uid="ent0008" id="cluster_builder"><path d="M247.5,71.672 L298.3363,71.672 A3.75,3.75 0 0 1 300.8363,74.172 L307.8363,96.7399 L473.5,96.7399 A2.5,2.5 0 0 1 476,99.2399 L476,393.582 A2.5,2.5 0 0 1 473.5,396.082 L247.5,396.082 A2.5,2.5 0 0 1 245,393.582 L245,74.172 A2.5,2.5 0 0 1 247.5,71.672" fill="none" style="stroke:#000000;stroke-width:1.5;"/><line style="stroke:#000000;stroke-width:1.5;" x1="245" x2="307.8363" y1="96.7399" y2="96.7399"/><text fill="#000000" font-family="sans-serif" font-size="14" font-weight="bold" lengthAdjust="spacing" textLength="49.8363" x="249" y="88.6379">builder</text></g><!--class Setup--><g class="entity" data-entity="Setup" data-source-line="1" data-uid="ent0002" id="entity_Setup"><rect fill="#F1F1F1" height="143.3396" rx="2.5" ry="2.5" style="stroke:#181818;stroke-width:0.5;" width="123.0477" x="81.48" y="90.602"/><ellipse cx="120.3974" cy="106.602" fill="#7E57C2" rx="11" ry="11" style="stroke:#181818;stroke-width:1;"/><path d="M127.0537,106.6489 Q127.0537,108.7582 126.2568,110.2114 Q125.4599,111.6489 123.9755,112.3832 Q122.5068,113.102 120.4443,113.102 L116.8037,113.102 L116.8037,100.4301 L120.8037,100.4301 Q122.6943,100.4301 124.1005,101.1489 Q125.5068,101.852 126.2724,103.2426 Q127.0537,104.6332 127.0537,106.6489 Z M124.913,106.6957 Q124.913,105.1489 124.413,104.1801 Q123.913,103.2114 122.9443,102.7426 Q121.9755,102.2739 120.5849,102.2739 L118.8505,102.2739 L118.8505,111.2582 L120.2412,111.2582 Q122.6005,111.2582 123.7568,110.1332 Q124.913,108.9926 124.913,106.6957 Z " fill="#000000"/><text fill="#000000" font-family="sans-serif" font-size="14" lengthAdjust="spacing" textLength="37.8979" x="139.7124" y="112.034">Setup</text><line style="stroke:#181818;stroke-width:0.5;" x1="82.48" x2="203.5277" y1="122.602" y2="122.602"/><ellipse cx="92.48" cy="137.6359" fill="none" rx="3" ry="3" style="stroke:#038048;stroke-width:1;"/><text fill="#000000" font-family="sans-serif" font-size="14" lengthAdjust="spacing" textLength="97.0477" x="101.48" y="141.5679">sidlist : list[Sid]</text><ellipse cx="92.48" cy="156.7039" fill="none" rx="3" ry="3" style="stroke:#038048;stroke-width:1;"/><text fill="#000000" font-family="sans-serif" font-size="14" lengthAdjust="spacing" textLength="95.4377" x="101.48" y="160.6358">dataname : str</text><ellipse cx="92.48" cy="175.7718" fill="none" rx="3" ry="3" style="stroke:#038048;stroke-width:1;"/><text fill="#000000" font-family="sans-serif" font-size="14" lengthAdjust="spacing" textLength="64.2178" x="101.48" y="179.7038">loops : int</text><text fill="#000000" font-family="sans-serif" font-size="14" lengthAdjust="spacing" textLength="11.256" x="101.48" y="198.7717">...</text><line style="stroke:#181818;stroke-width:1;" x1="82.48" x2="203.5277" y1="206.8736" y2="206.8736"/><ellipse cx="92.48" cy="221.9076" fill="#84BE84" rx="3" ry="3" style="stroke:#038048;stroke-width:1;"/><text fill="#000000" font-family="sans-serif" font-size="14" lengthAdjust="spacing" textLength="52.5418" x="101.48" y="225.8396">launch()</text></g><!--entity enigma--><g class="entity" data-entity="enigma" data-source-line="9" data-uid="ent0005" id="entity_enigma"><ellipse cx="78" cy="337.012" fill="#F1F1F1" rx="8" ry="8" style="stroke:#181818;stroke-width:0.5;"/><text fill="#000000" font-family="sans-serif" font-size="14" lengthAdjust="spacing" textLength="49.7138" x="53.1431" y="368.9779">enigma</text></g><!--entity cvc5ml--><g class="entity" data-entity="cvc5ml" data-source-line="10" data-uid="ent0006" id="entity_cvc5ml"><ellipse cx="175" cy="337.012" fill="#F1F1F1" rx="8" ry="8" style="stroke:#181818;stroke-width:0.5;"/><text fill="#000000" font-family="sans-serif" font-size="14" lengthAdjust="spacing" textLength="45.2618" x="152.3691" y="368.9779">cvc5ml</text></g><!--class Builder--><g class="entity" data-entity="Builder" data-source-line="12" data-uid="ent0007" id="entity_Builder"><rect fill="#F1F1F1" height="105.2038" rx="2.5" ry="2.5" style="stroke:#181818;stroke-width:0.5;" width="187.9514" x="261.02" y="109.672"/><ellipse cx="328.5488" cy="125.672" fill="#A9DCDF" rx="11" ry="11" style="stroke:#181818;stroke-width:1;"/><path d="M331.8925,130.922 L330.4238,127.172 L325.9863,127.172 L324.5488,130.922 L322.4238,130.922 L327.3769,118.2032 L329.1269,118.2032 L334.0488,130.922 L331.8925,130.922 Z M328.5488,121.9689 Q328.5019,121.8126 328.3769,121.4532 Q328.2519,121.0939 328.1425,120.7189 Q328.0331,120.3282 328.2363,120.2657 Q328.3925,120.4532 328.2988,120.8126 Q328.205,121.1564 328.1113,121.4532 Q328.0175,121.7345 327.9394,121.9689 L326.705,125.2814 L329.7831,125.2814 L328.5488,121.9689 Z " fill="#000000"/><text fill="#000000" font-family="sans-serif" font-size="14" font-style="italic" lengthAdjust="spacing" textLength="44.3938" x="349.0488" y="131.104">Builder</text><line style="stroke:#181818;stroke-width:0.5;" x1="262.02" x2="447.9714" y1="141.672" y2="141.672"/><line style="stroke:#181818;stroke-width:0.5;" x1="262.02" x2="447.9714" y1="149.672" y2="149.672"/><ellipse cx="272.02" cy="164.7059" fill="#84BE84" rx="3" ry="3" style="stroke:#038048;stroke-width:1;"/><text fill="#000000" font-family="sans-serif" font-size="14" font-style="italic" lengthAdjust="spacing" textLength="39.6618" x="281.02" y="168.6379">build()</text><ellipse cx="272.02" cy="183.7739" fill="#84BE84" rx="3" ry="3" style="stroke:#038048;stroke-width:1;"/><text fill="#000000" font-family="sans-serif" font-size="14" font-style="italic" lengthAdjust="spacing" textLength="161.9514" x="281.02" y="187.7058">apply(sid, model) : list[Sid]</text><ellipse cx="272.02" cy="202.8418" fill="#84BE84" rx="3" ry="3" style="stroke:#038048;stroke-width:1;"/><text fill="#000000" font-family="sans-serif" font-size="14" lengthAdjust="spacing" textLength="67.1438" x="281.02" y="206.7738">path() : str</text></g><!--class Enigma--><g class="entity" data-entity="Enigma" data-source-line="18" data-uid="ent0009" id="entity_Enigma"><rect fill="#F1F1F1" height="86.1358" rx="2.5" ry="2.5" style="stroke:#181818;stroke-width:0.5;" width="81.6018" x="261.2" y="293.942"/><ellipse cx="276.2" cy="309.942" fill="#ADD1B2" rx="11" ry="11" style="stroke:#181818;stroke-width:1;"/><path d="M276.3094,305.4732 Q275.3875,305.4732 274.6531,305.7857 Q273.9344,306.0982 273.4344,306.692 Q272.9344,307.2701 272.6531,308.1451 Q272.3875,309.0201 272.3875,310.1139 Q272.3875,311.5514 272.825,312.5982 Q273.2781,313.6451 274.1219,314.192 Q274.9813,314.7389 276.2938,314.7389 Q277.075,314.7389 277.7625,314.6139 Q278.4656,314.4732 279.4656,314.1607 L279.4656,316.0357 Q278.6063,316.3639 277.8406,316.4889 Q277.0906,316.6139 276.075,316.6139 Q274.1531,316.6139 272.8406,315.817 Q271.5438,315.0045 270.8875,313.5357 Q270.2313,312.0514 270.2313,310.0826 Q270.2313,308.6607 270.6219,307.4889 Q271.0281,306.3014 271.8094,305.4264 Q272.5906,304.5514 273.7313,304.0826 Q274.8719,303.5982 276.3406,303.5982 Q277.2938,303.5982 278.1844,303.8014 Q279.0906,303.9889 280.0281,304.4576 L279.2,306.2389 Q278.4188,305.8639 277.7625,305.6764 Q277.1063,305.4732 276.3094,305.4732 Z " fill="#000000"/><text fill="#000000" font-family="sans-serif" font-size="14" lengthAdjust="spacing" textLength="49.6018" x="290.2" y="315.374">Enigma</text><line style="stroke:#181818;stroke-width:0.5;" x1="262.2" x2="341.8018" y1="325.942" y2="325.942"/><line style="stroke:#181818;stroke-width:0.5;" x1="262.2" x2="341.8018" y1="333.942" y2="333.942"/><ellipse cx="272.2" cy="348.9759" fill="#84BE84" rx="3" ry="3" style="stroke:#038048;stroke-width:1;"/><text fill="#000000" font-family="sans-serif" font-size="14" lengthAdjust="spacing" textLength="41.4958" x="281.2" y="352.9079">build()</text><ellipse cx="272.2" cy="368.0439" fill="#84BE84" rx="3" ry="3" style="stroke:#038048;stroke-width:1;"/><text fill="#000000" font-family="sans-serif" font-size="14" lengthAdjust="spacing" textLength="51.7298" x="281.2" y="371.9758">apply(..)</text></g><!--class Cvc5ML--><g class="entity" data-entity="Cvc5ML" data-source-line="23" data-uid="ent0011" id="entity_Cvc5ML"><rect fill="#F1F1F1" height="86.1358" rx="2.5" ry="2.5" style="stroke:#181818;stroke-width:0.5;" width="82.7218" x="377.64" y="293.942"/><ellipse cx="392.64" cy="309.942" fill="#ADD1B2" rx="11" ry="11" style="stroke:#181818;stroke-width:1;"/><path d="M392.7494,305.4732 Q391.8275,305.4732 391.0931,305.7857 Q390.3744,306.0982 389.8744,306.692 Q389.3744,307.2701 389.0931,308.1451 Q388.8275,309.0201 388.8275,310.1139 Q388.8275,311.5514 389.265,312.5982 Q389.7181,313.6451 390.5619,314.192 Q391.4213,314.7389 392.7338,314.7389 Q393.515,314.7389 394.2025,314.6139 Q394.9056,314.4732 395.9056,314.1607 L395.9056,316.0357 Q395.0463,316.3639 394.2806,316.4889 Q393.5306,316.6139 392.515,316.6139 Q390.5931,316.6139 389.2806,315.817 Q387.9838,315.0045 387.3275,313.5357 Q386.6713,312.0514 386.6713,310.0826 Q386.6713,308.6607 387.0619,307.4889 Q387.4681,306.3014 388.2494,305.4264 Q389.0306,304.5514 390.1713,304.0826 Q391.3119,303.5982 392.7806,303.5982 Q393.7338,303.5982 394.6244,303.8014 Q395.5306,303.9889 396.4681,304.4576 L395.64,306.2389 Q394.8588,305.8639 394.2025,305.6764 Q393.5463,305.4732 392.7494,305.4732 Z " fill="#000000"/><text fill="#000000" font-family="sans-serif" font-size="14" lengthAdjust="spacing" textLength="50.7218" x="406.64" y="315.374">Cvc5ML</text><line style="stroke:#181818;stroke-width:0.5;" x1="378.64" x2="459.3618" y1="325.942" y2="325.942"/><line style="stroke:#181818;stroke-width:0.5;" x1="378.64" x2="459.3618" y1="333.942" y2="333.942"/><ellipse cx="388.64" cy="348.9759" fill="#84BE84" rx="3" ry="3" style="stroke:#038048;stroke-width:1;"/><text fill="#000000" font-family="sans-serif" font-size="14" lengthAdjust="spacing" textLength="41.4958" x="397.64" y="352.9079">build()</text><ellipse cx="388.64" cy="368.0439" fill="#84BE84" rx="3" ry="3" style="stroke:#038048;stroke-width:1;"/><text fill="#000000" font-family="sans-serif" font-size="14" lengthAdjust="spacing" textLength="51.7298" x="397.64" y="371.9758">apply(..)</text></g><!--reverse link Builder to Enigma--><g class="link" data-entity-1="Builder" data-entity-2="Enigma" data-source-line="19" data-uid="lnk10" id="link_Builder_Enigma"><path d="M333.8156,232.3088 C326.1256,257.3488 322.31,269.832 315.04,293.512" fill="none" id="Builder-backto-Enigma" style="stroke:#181818;stroke-width:1;"/><polygon fill="none" points="339.1,215.102,328.08,230.5474,339.5512,234.0703,339.1,215.102" style="stroke:#181818;stroke-width:1;"/></g><!--reverse link Builder to Cvc5ML--><g class="link" data-entity-1="Builder" data-entity-2="Cvc5ML" data-source-line="24" data-uid="lnk12" id="link_Builder_Cvc5ML"><path d="M380.4552,231.9802 C389.7352,257.0202 394.48,269.832 403.25,293.512" fill="none" id="Builder-backto-Cvc5ML" style="stroke:#181818;stroke-width:1;"/><polygon fill="none" points="374.2,215.102,374.8291,234.0652,386.0812,229.8951,374.2,215.102" style="stroke:#181818;stroke-width:1;"/></g><!--reverse link Setup to enigma--><g class="link" data-entity-1="Setup" data-entity-2="enigma" data-source-line="28" data-uid="lnk13" id="link_Setup_enigma"><path codeLine="28" d="M114.2574,239.6478 C100.4474,276.3578 87.28,311.342 80.97,328.112" fill="none" id="Setup-backto-enigma" style="stroke:#181818;stroke-width:1;"/><polygon fill="#181818" points="116.37,234.032,109.4572,241.0472,114.6095,238.7118,116.9449,243.864,116.37,234.032" style="stroke:#181818;stroke-width:1;"/></g><!--reverse link Setup to cvc5ml--><g class="link" data-entity-1="Setup" data-entity-2="cvc5ml" data-source-line="29" data-uid="lnk14" id="link_Setup_cvc5ml"><path codeLine="29" d="M157.2028,239.9316 C164.0028,276.6416 170.43,311.342 173.54,328.112" fill="none" id="Setup-backto-cvc5ml" style="stroke:#181818;stroke-width:1;"/><polygon fill="#181818" points="156.11,234.032,153.8161,243.61,157.0207,238.9483,161.6823,242.1529,156.11,234.032" style="stroke:#181818;stroke-width:1;"/></g><!--link Setup to Builder--><g class="link" data-entity-1="Setup" data-entity-2="Builder" data-source-line="31" data-uid="lnk16" id="link_Setup_Builder"><path codeLine="31" d="M204.7,162.272 C223.39,162.272 230.08,162.272 248.77,162.272" fill="none" id="Setup-to-Builder" style="stroke:#181818;stroke-width:1;"/><polygon fill="none" points="260.77,162.272,254.77,158.272,248.77,162.272,254.77,166.272,260.77,162.272" style="stroke:#181818;stroke-width:1;"/><text fill="#000000" font-family="sans-serif" font-size="13" lengthAdjust="spacing" textLength="7.436" x="245.6951" y="158.4942">1</text></g><!--SRC=[hPAnJiCm48RtFCMfKoEm9GOMn0Jg1bF7Yk5g7s3fObknKxMg-kxORgAYb4GT69nJxdxxllzi002D4HLZ210SxwZr1naeTZx8TGvmh988xY0OpIP4U88SDckZF_fAFi5YGwaKOjidsJaVKiROM39IoXA560JOMVMzhCllgNoLQHNJ5GTPyzNWd4Bjr6F3LPRWDZ6WYZ3ojEqCQshbopdsjW2EmuPJOYgY7cbKGk_vi4n3k8V6QUBwQX3PbCUOB5q6KNpbDK6pAjQ0zf6ile5sZ3XmILd3kTzCizSqfVUtVsbswJNnQfw5cBl7spVzkjffuiN30fnW-en_drnLFm00]--></g></svg>