<svg xmlns="http://www.w3.org/2000/svg" xmlns:xlink="http://www.w3.org/1999/xlink" contentStyleType="text/css" data-diagram-type="CLASS" height="438px" preserveAspectRatio="none" style="width:1045px;height:438px;background:#FFFFFF;" version="1.1" viewBox="0 0 1045 438" width="1045px" zoomAndPan="magnify"><defs/><g><!--cluster solverpy--><g class="cluster" data-entity="solverpy" data-source-line="2" data-uid="ent0003" id="cluster_solverpy"><path d="M8.5,6.602 L68.3278,6.602 A3.75,3.75 0 0 1 70.8278,9.102 L77.8278,31.6699 L1035.5,31.6699 A2.5,2.5 0 0 1 1038,34.1699 L1038,429.302 A2.5,2.5 0 0 1 1035.5,431.802 L8.5,431.802 A2.5,2.5 0 0 1 6,429.302 L6,9.102 A2.5,2.5 0 0 1 8.5,6.602" fill="none" style="stroke:#000000;stroke-width:1.5;"/><line style="stroke:#000000;stroke-width:1.5;" x1="6" x2="77.8278" y1="31.6699" y2="31.6699"/><text fill="#000000" font-family="sans-serif" font-size="14" font-weight="bold" lengthAdjust="spacing" textLength="58.8278" x="10" y="23.5679">solverpy</text></g><!--cluster solver--><g class="cluster" data-entity="solver" data-source-line="2" data-uid="ent0004" id="cluster_solver"><path d="M32.5,52.602 L75.7029,52.602 A3.75,3.75 0 0 1 78.2029,55.102 L85.2029,77.6699 L1011.5,77.6699 A2.5,2.5 0 0 1 1014,80.1699 L1014,405.302 A2.5,2.5 0 0 1 1011.5,407.802 L32.5,407.802 A2.5,2.5 0 0 1 30,405.302 L30,55.102 A2.5,2.5 0 0 1 32.5,52.602" fill="none" style="stroke:#000000;stroke-width:1.5;"/><line style="stroke:#000000;stroke-width:1.5;" x1="30" x2="85.2029" y1="77.6699" y2="77.6699"/><text fill="#000000" font-family="sans-serif" font-size="14" font-weight="bold" lengthAdjust="spacing" textLength="42.2029" x="34" y="69.5679">solver</text></g><!--cluster atp--><g class="cluster" data-entity="atp" data-source-line="9" data-uid="ent0006" id="cluster_atp"><path d="M56.5,211.802 L80.3304,211.802 A3.75,3.75 0 0 1 82.8304,214.302 L89.8304,236.8699 L573.5,236.8699 A2.5,2.5 0 0 1 576,239.3699 L576,381.302 A2.5,2.5 0 0 1 573.5,383.802 L56.5,383.802 A2.5,2.5 0 0 1 54,381.302 L54,214.302 A2.5,2.5 0 0 1 56.5,211.802" fill="none" style="stroke:#000000;stroke-width:1.5;"/><line style="stroke:#000000;stroke-width:1.5;" x1="54" x2="89.8304" y1="236.8699" y2="236.8699"/><text fill="#000000" font-family="sans-serif" font-size="14" font-weight="bold" lengthAdjust="spacing" textLength="22.8304" x="58" y="228.7679">atp</text></g><!--cluster eprover--><g class="cluster" data-entity="eprover" data-source-line="9" data-uid="ent0007" id="cluster_eprover"><path d="M80.5,257.802 L136.1103,257.802 A3.75,3.75 0 0 1 138.6103,260.302 L145.6103,282.8699 L147.5,282.8699 A2.5,2.5 0 0 1 150,285.3699 L150,357.302 A2.5,2.5 0 0 1 147.5,359.802 L80.5,359.802 A2.5,2.5 0 0 1 78,357.302 L78,260.302 A2.5,2.5 0 0 1 80.5,257.802" fill="none" style="stroke:#000000;stroke-width:1.5;"/><line style="stroke:#000000;stroke-width:1.5;" x1="78" x2="145.6103" y1="282.8699" y2="282.8699"/><text fill="#000000" font-family="sans-serif" font-size="14" font-weight="bold" lengthAdjust="spacing" textLength="54.6103" x="82" y="274.7679">eprover</text></g><!--cluster vampire--><g class="cluster" data-entity="vampire" data-source-line="10" data-uid="ent0010" id="cluster_vampire"><path d="M176.5,257.802 L234.5183,257.802 A3.75,3.75 0 0 1 237.0183,260.302 L244.0183,282.8699 L291.5,282.8699 A2.5,2.5 0 0 1 294,285.3699 L294,357.302 A2.5,2.5 0 0 1 291.5,359.802 L176.5,359.802 A2.5,2.5 0 0 1 174,357.302 L174,260.302 A2.5,2.5 0 0 1 176.5,257.802" fill="none" style="stroke:#000000;stroke-width:1.5;"/><line style="stroke:#000000;stroke-width:1.5;" x1="174" x2="244.0183" y1="282.8699" y2="282.8699"/><text fill="#000000" font-family="sans-serif" font-size="14" font-weight="bold" lengthAdjust="spacing" textLength="57.0183" x="178" y="274.7679">vampire</text></g><!--cluster lash--><g class="cluster" data-entity="lash" data-source-line="11" data-uid="ent0013" id="cluster_lash"><path d="M320.5,257.802 L350.0739,257.802 A3.75,3.75 0 0 1 352.5739,260.302 L359.5739,282.8699 L409.5,282.8699 A2.5,2.5 0 0 1 412,285.3699 L412,357.302 A2.5,2.5 0 0 1 409.5,359.802 L320.5,359.802 A2.5,2.5 0 0 1 318,357.302 L318,260.302 A2.5,2.5 0 0 1 320.5,257.802" fill="none" style="stroke:#000000;stroke-width:1.5;"/><line style="stroke:#000000;stroke-width:1.5;" x1="318" x2="359.5739" y1="282.8699" y2="282.8699"/><text fill="#000000" font-family="sans-serif" font-size="14" font-weight="bold" lengthAdjust="spacing" textLength="28.5739" x="322" y="274.7679">lash</text></g><!--cluster prover9--><g class="cluster" data-entity="prover9" data-source-line="12" data-uid="ent0016" id="cluster_prover9"><path d="M438.5,257.802 L494.2223,257.802 A3.75,3.75 0 0 1 496.7223,260.302 L503.7223,282.8699 L549.5,282.8699 A2.5,2.5 0 0 1 552,285.3699 L552,357.302 A2.5,2.5 0 0 1 549.5,359.802 L438.5,359.802 A2.5,2.5 0 0 1 436,357.302 L436,260.302 A2.5,2.5 0 0 1 438.5,257.802" fill="none" style="stroke:#000000;stroke-width:1.5;"/><line style="stroke:#000000;stroke-width:1.5;" x1="436" x2="503.7223" y1="282.8699" y2="282.8699"/><text fill="#000000" font-family="sans-serif" font-size="14" font-weight="bold" lengthAdjust="spacing" textLength="54.7223" x="440" y="274.7679">prover9</text></g><!--cluster smt--><g class="cluster" data-entity="smt" data-source-line="14" data-uid="ent0019" id="cluster_smt"><path d="M602.5,211.802 L629.6624,211.802 A3.75,3.75 0 0 1 632.1624,214.302 L639.1624,236.8699 L987.5,236.8699 A2.5,2.5 0 0 1 990,239.3699 L990,381.302 A2.5,2.5 0 0 1 987.5,383.802 L602.5,383.802 A2.5,2.5 0 0 1 600,381.302 L600,214.302 A2.5,2.5 0 0 1 602.5,211.802" fill="none" style="stroke:#000000;stroke-width:1.5;"/><line style="stroke:#000000;stroke-width:1.5;" x1="600" x2="639.1624" y1="236.8699" y2="236.8699"/><text fill="#000000" font-family="sans-serif" font-size="14" font-weight="bold" lengthAdjust="spacing" textLength="26.1624" x="604" y="228.7679">smt</text></g><!--cluster cvc5--><g class="cluster" data-entity="cvc5" data-source-line="14" data-uid="ent0020" id="cluster_cvc5"><path d="M626.5,257.802 L657.8099,257.802 A3.75,3.75 0 0 1 660.3099,260.302 L667.3099,282.8699 L715.5,282.8699 A2.5,2.5 0 0 1 718,285.3699 L718,357.302 A2.5,2.5 0 0 1 715.5,359.802 L626.5,359.802 A2.5,2.5 0 0 1 624,357.302 L624,260.302 A2.5,2.5 0 0 1 626.5,257.802" fill="none" style="stroke:#000000;stroke-width:1.5;"/><line style="stroke:#000000;stroke-width:1.5;" x1="624" x2="667.3099" y1="282.8699" y2="282.8699"/><text fill="#000000" font-family="sans-serif" font-size="14" font-weight="bold" lengthAdjust="spacing" textLength="30.3099" x="628" y="274.7679">cvc5</text></g><!--cluster z3--><g class="cluster" data-entity="z3" data-source-line="15" data-uid="ent0023" id="cluster_z3"><path d="M744.5,257.802 L760.9629,257.802 A3.75,3.75 0 0 1 763.4629,260.302 L770.4629,282.8699 L819.5,282.8699 A2.5,2.5 0 0 1 822,285.3699 L822,357.302 A2.5,2.5 0 0 1 819.5,359.802 L744.5,359.802 A2.5,2.5 0 0 1 742,357.302 L742,260.302 A2.5,2.5 0 0 1 744.5,257.802" fill="none" style="stroke:#000000;stroke-width:1.5;"/><line style="stroke:#000000;stroke-width:1.5;" x1="742" x2="770.4629" y1="282.8699" y2="282.8699"/><text fill="#000000" font-family="sans-serif" font-size="14" font-weight="bold" lengthAdjust="spacing" textLength="15.4629" x="746" y="274.7679">z3</text></g><!--cluster bitwuzla--><g class="cluster" data-entity="bitwuzla" data-source-line="16" data-uid="ent0026" id="cluster_bitwuzla"><path d="M848.5,257.802 L907.9778,257.802 A3.75,3.75 0 0 1 910.4778,260.302 L917.4778,282.8699 L963.5,282.8699 A2.5,2.5 0 0 1 966,285.3699 L966,357.302 A2.5,2.5 0 0 1 963.5,359.802 L848.5,359.802 A2.5,2.5 0 0 1 846,357.302 L846,260.302 A2.5,2.5 0 0 1 848.5,257.802" fill="none" style="stroke:#000000;stroke-width:1.5;"/><line style="stroke:#000000;stroke-width:1.5;" x1="846" x2="917.4778" y1="282.8699" y2="282.8699"/><text fill="#000000" font-family="sans-serif" font-size="14" font-weight="bold" lengthAdjust="spacing" textLength="58.4778" x="850" y="274.7679">bitwuzla</text></g><!--class SolverPy--><g class="entity" data-entity="SolverPy" data-source-line="2" data-uid="ent0002" id="entity_SolverPy"><rect fill="#F1F1F1" height="105.2038" rx="2.5" ry="2.5" style="stroke:#181818;stroke-width:0.5;" width="222.9932" x="382.5" y="90.602"/><ellipse cx="463.6787" cy="106.602" fill="#A9DCDF" rx="11" ry="11" style="stroke:#181818;stroke-width:1;"/><path d="M467.0225,111.852 L465.5537,108.102 L461.1162,108.102 L459.6787,111.852 L457.5537,111.852 L462.5068,99.1332 L464.2568,99.1332 L469.1787,111.852 L467.0225,111.852 Z M463.6787,102.8989 Q463.6318,102.7426 463.5068,102.3832 Q463.3818,102.0239 463.2725,101.6489 Q463.1631,101.2582 463.3662,101.1957 Q463.5225,101.3832 463.4287,101.7426 Q463.335,102.0864 463.2412,102.3832 Q463.1475,102.6645 463.0693,102.8989 L461.835,106.2114 L464.9131,106.2114 L463.6787,102.8989 Z " fill="#000000"/><text fill="#000000" font-family="sans-serif" font-size="14" font-style="italic" lengthAdjust="spacing" textLength="52.1358" x="484.1787" y="112.034">SolverPy</text><line style="stroke:#181818;stroke-width:0.5;" x1="383.5" x2="604.4932" y1="122.602" y2="122.602"/><polygon fill="none" points="393.5,132.6359,397.5,136.6359,393.5,140.6359,389.5,136.6359" style="stroke:#B38D22;stroke-width:1;"/><text fill="#000000" font-family="sans-serif" font-size="14" font-style="italic" lengthAdjust="spacing" textLength="125.6215" x="402.5" y="141.5679">statuses : set[Status]</text><line style="stroke:#181818;stroke-width:1;" x1="383.5" x2="604.4932" y1="149.6699" y2="149.6699"/><ellipse cx="393.5" cy="164.7039" fill="#84BE84" rx="3" ry="3" style="stroke:#038048;stroke-width:1;"/><text fill="#000000" font-family="sans-serif" font-size="14" font-style="italic" lengthAdjust="spacing" textLength="196.9932" x="402.5" y="168.6358">solve(instance, strategy) : Result</text><ellipse cx="393.5" cy="183.7718" fill="#84BE84" rx="3" ry="3" style="stroke:#038048;stroke-width:1;"/><text fill="#000000" font-family="sans-serif" font-size="14" lengthAdjust="spacing" textLength="128.7015" x="402.5" y="187.7038">solved(result) : bool</text></g><!--class E--><g class="entity" data-entity="E" data-source-line="9" data-uid="ent0005" id="entity_E"><rect fill="#F1F1F1" height="48" rx="2.5" ry="2.5" style="stroke:#181818;stroke-width:0.5;" width="39.784" x="94.11" y="295.802"/><ellipse cx="109.11" cy="311.802" fill="#ADD1B2" rx="11" ry="11" style="stroke:#181818;stroke-width:1;"/><path d="M109.2194,307.3332 Q108.2975,307.3332 107.5631,307.6457 Q106.8444,307.9582 106.3444,308.552 Q105.8444,309.1301 105.5631,310.0051 Q105.2975,310.8801 105.2975,311.9739 Q105.2975,313.4114 105.735,314.4582 Q106.1881,315.5051 107.0319,316.052 Q107.8913,316.5989 109.2038,316.5989 Q109.985,316.5989 110.6725,316.4739 Q111.3756,316.3332 112.3756,316.0207 L112.3756,317.8957 Q111.5163,318.2239 110.7506,318.3489 Q110.0006,318.4739 108.985,318.4739 Q107.0631,318.4739 105.7506,317.677 Q104.4538,316.8645 103.7975,315.3957 Q103.1413,313.9114 103.1413,311.9426 Q103.1413,310.5207 103.5319,309.3489 Q103.9381,308.1614 104.7194,307.2864 Q105.5006,306.4114 106.6413,305.9426 Q107.7819,305.4582 109.2506,305.4582 Q110.2038,305.4582 111.0944,305.6614 Q112.0006,305.8489 112.9381,306.3176 L112.11,308.0989 Q111.3288,307.7239 110.6725,307.5364 Q110.0163,307.3332 109.2194,307.3332 Z " fill="#000000"/><text fill="#000000" font-family="sans-serif" font-size="14" lengthAdjust="spacing" textLength="7.784" x="123.11" y="317.234">E</text><line style="stroke:#181818;stroke-width:0.5;" x1="95.11" x2="132.894" y1="327.802" y2="327.802"/><line style="stroke:#181818;stroke-width:0.5;" x1="95.11" x2="132.894" y1="335.802" y2="335.802"/></g><!--class Vampire--><g class="entity" data-entity="Vampire" data-source-line="10" data-uid="ent0009" id="entity_Vampire"><rect fill="#F1F1F1" height="48" rx="2.5" ry="2.5" style="stroke:#181818;stroke-width:0.5;" width="87.2438" x="190.38" y="295.802"/><ellipse cx="205.38" cy="311.802" fill="#ADD1B2" rx="11" ry="11" style="stroke:#181818;stroke-width:1;"/><path d="M205.4894,307.3332 Q204.5675,307.3332 203.8331,307.6457 Q203.1144,307.9582 202.6144,308.552 Q202.1144,309.1301 201.8331,310.0051 Q201.5675,310.8801 201.5675,311.9739 Q201.5675,313.4114 202.005,314.4582 Q202.4581,315.5051 203.3019,316.052 Q204.1613,316.5989 205.4738,316.5989 Q206.255,316.5989 206.9425,316.4739 Q207.6456,316.3332 208.6456,316.0207 L208.6456,317.8957 Q207.7863,318.2239 207.0206,318.3489 Q206.2706,318.4739 205.255,318.4739 Q203.3331,318.4739 202.0206,317.677 Q200.7238,316.8645 200.0675,315.3957 Q199.4113,313.9114 199.4113,311.9426 Q199.4113,310.5207 199.8019,309.3489 Q200.2081,308.1614 200.9894,307.2864 Q201.7706,306.4114 202.9113,305.9426 Q204.0519,305.4582 205.5206,305.4582 Q206.4738,305.4582 207.3644,305.6614 Q208.2706,305.8489 209.2081,306.3176 L208.38,308.0989 Q207.5988,307.7239 206.9425,307.5364 Q206.2863,307.3332 205.4894,307.3332 Z " fill="#000000"/><text fill="#000000" font-family="sans-serif" font-size="14" lengthAdjust="spacing" textLength="55.2438" x="219.38" y="317.234">Vampire</text><line style="stroke:#181818;stroke-width:0.5;" x1="191.38" x2="276.6238" y1="327.802" y2="327.802"/><line style="stroke:#181818;stroke-width:0.5;" x1="191.38" x2="276.6238" y1="335.802" y2="335.802"/></g><!--class Lash--><g class="entity" data-entity="Lash" data-source-line="11" data-uid="ent0012" id="entity_Lash"><rect fill="#F1F1F1" height="48" rx="2.5" ry="2.5" style="stroke:#181818;stroke-width:0.5;" width="62.5479" x="333.73" y="295.802"/><ellipse cx="348.73" cy="311.802" fill="#ADD1B2" rx="11" ry="11" style="stroke:#181818;stroke-width:1;"/><path d="M348.8394,307.3332 Q347.9175,307.3332 347.1831,307.6457 Q346.4644,307.9582 345.9644,308.552 Q345.4644,309.1301 345.1831,310.0051 Q344.9175,310.8801 344.9175,311.9739 Q344.9175,313.4114 345.355,314.4582 Q345.8081,315.5051 346.6519,316.052 Q347.5113,316.5989 348.8238,316.5989 Q349.605,316.5989 350.2925,316.4739 Q350.9956,316.3332 351.9956,316.0207 L351.9956,317.8957 Q351.1363,318.2239 350.3706,318.3489 Q349.6206,318.4739 348.605,318.4739 Q346.6831,318.4739 345.3706,317.677 Q344.0738,316.8645 343.4175,315.3957 Q342.7613,313.9114 342.7613,311.9426 Q342.7613,310.5207 343.1519,309.3489 Q343.5581,308.1614 344.3394,307.2864 Q345.1206,306.4114 346.2613,305.9426 Q347.4019,305.4582 348.8706,305.4582 Q349.8238,305.4582 350.7144,305.6614 Q351.6206,305.8489 352.5581,306.3176 L351.73,308.0989 Q350.9488,307.7239 350.2925,307.5364 Q349.6363,307.3332 348.8394,307.3332 Z " fill="#000000"/><text fill="#000000" font-family="sans-serif" font-size="14" lengthAdjust="spacing" textLength="30.5479" x="362.73" y="317.234">Lash</text><line style="stroke:#181818;stroke-width:0.5;" x1="334.73" x2="395.2779" y1="327.802" y2="327.802"/><line style="stroke:#181818;stroke-width:0.5;" x1="334.73" x2="395.2779" y1="335.802" y2="335.802"/></g><!--class Prover9--><g class="entity" data-entity="Prover9" data-source-line="12" data-uid="ent0015" id="entity_Prover9"><rect fill="#F1F1F1" height="48" rx="2.5" ry="2.5" style="stroke:#181818;stroke-width:0.5;" width="83.5198" x="452.24" y="295.802"/><ellipse cx="467.24" cy="311.802" fill="#ADD1B2" rx="11" ry="11" style="stroke:#181818;stroke-width:1;"/><path d="M467.3494,307.3332 Q466.4275,307.3332 465.6931,307.6457 Q464.9744,307.9582 464.4744,308.552 Q463.9744,309.1301 463.6931,310.0051 Q463.4275,310.8801 463.4275,311.9739 Q463.4275,313.4114 463.865,314.4582 Q464.3181,315.5051 465.1619,316.052 Q466.0213,316.5989 467.3338,316.5989 Q468.115,316.5989 468.8025,316.4739 Q469.5056,316.3332 470.5056,316.0207 L470.5056,317.8957 Q469.6463,318.2239 468.8806,318.3489 Q468.1306,318.4739 467.115,318.4739 Q465.1931,318.4739 463.8806,317.677 Q462.5838,316.8645 461.9275,315.3957 Q461.2713,313.9114 461.2713,311.9426 Q461.2713,310.5207 461.6619,309.3489 Q462.0681,308.1614 462.8494,307.2864 Q463.6306,306.4114 464.7713,305.9426 Q465.9119,305.4582 467.3806,305.4582 Q468.3338,305.4582 469.2244,305.6614 Q470.1306,305.8489 471.0681,306.3176 L470.24,308.0989 Q469.4588,307.7239 468.8025,307.5364 Q468.1463,307.3332 467.3494,307.3332 Z " fill="#000000"/><text fill="#000000" font-family="sans-serif" font-size="14" lengthAdjust="spacing" textLength="51.5198" x="481.24" y="317.234">Prover9</text><line style="stroke:#181818;stroke-width:0.5;" x1="453.24" x2="534.7598" y1="327.802" y2="327.802"/><line style="stroke:#181818;stroke-width:0.5;" x1="453.24" x2="534.7598" y1="335.802" y2="335.802"/></g><!--class Cvc5--><g class="entity" data-entity="Cvc5" data-source-line="14" data-uid="ent0018" id="entity_Cvc5"><rect fill="#F1F1F1" height="48" rx="2.5" ry="2.5" style="stroke:#181818;stroke-width:0.5;" width="62.6879" x="639.66" y="295.802"/><ellipse cx="654.66" cy="311.802" fill="#ADD1B2" rx="11" ry="11" style="stroke:#181818;stroke-width:1;"/><path d="M654.7694,307.3332 Q653.8475,307.3332 653.1131,307.6457 Q652.3944,307.9582 651.8944,308.552 Q651.3944,309.1301 651.1131,310.0051 Q650.8475,310.8801 650.8475,311.9739 Q650.8475,313.4114 651.285,314.4582 Q651.7381,315.5051 652.5819,316.052 Q653.4413,316.5989 654.7538,316.5989 Q655.535,316.5989 656.2225,316.4739 Q656.9256,316.3332 657.9256,316.0207 L657.9256,317.8957 Q657.0663,318.2239 656.3006,318.3489 Q655.5506,318.4739 654.535,318.4739 Q652.6131,318.4739 651.3006,317.677 Q650.0038,316.8645 649.3475,315.3957 Q648.6913,313.9114 648.6913,311.9426 Q648.6913,310.5207 649.0819,309.3489 Q649.4881,308.1614 650.2694,307.2864 Q651.0506,306.4114 652.1913,305.9426 Q653.3319,305.4582 654.8006,305.4582 Q655.7538,305.4582 656.6444,305.6614 Q657.5506,305.8489 658.4881,306.3176 L657.66,308.0989 Q656.8788,307.7239 656.2225,307.5364 Q655.5663,307.3332 654.7694,307.3332 Z " fill="#000000"/><text fill="#000000" font-family="sans-serif" font-size="14" lengthAdjust="spacing" textLength="30.6879" x="668.66" y="317.234">Cvc5</text><line style="stroke:#181818;stroke-width:0.5;" x1="640.66" x2="701.3479" y1="327.802" y2="327.802"/><line style="stroke:#181818;stroke-width:0.5;" x1="640.66" x2="701.3479" y1="335.802" y2="335.802"/></g><!--class Z3--><g class="entity" data-entity="Z3" data-source-line="15" data-uid="ent0022" id="entity_Z3"><rect fill="#F1F1F1" height="48" rx="2.5" ry="2.5" style="stroke:#181818;stroke-width:0.5;" width="48.0159" x="757.99" y="295.802"/><ellipse cx="772.99" cy="311.802" fill="#ADD1B2" rx="11" ry="11" style="stroke:#181818;stroke-width:1;"/><path d="M773.0994,307.3332 Q772.1775,307.3332 771.4431,307.6457 Q770.7244,307.9582 770.2244,308.552 Q769.7244,309.1301 769.4431,310.0051 Q769.1775,310.8801 769.1775,311.9739 Q769.1775,313.4114 769.615,314.4582 Q770.0681,315.5051 770.9119,316.052 Q771.7713,316.5989 773.0838,316.5989 Q773.865,316.5989 774.5525,316.4739 Q775.2556,316.3332 776.2556,316.0207 L776.2556,317.8957 Q775.3963,318.2239 774.6306,318.3489 Q773.8806,318.4739 772.865,318.4739 Q770.9431,318.4739 769.6306,317.677 Q768.3338,316.8645 767.6775,315.3957 Q767.0213,313.9114 767.0213,311.9426 Q767.0213,310.5207 767.4119,309.3489 Q767.8181,308.1614 768.5994,307.2864 Q769.3806,306.4114 770.5213,305.9426 Q771.6619,305.4582 773.1306,305.4582 Q774.0838,305.4582 774.9744,305.6614 Q775.8806,305.8489 776.8181,306.3176 L775.99,308.0989 Q775.2088,307.7239 774.5525,307.5364 Q773.8963,307.3332 773.0994,307.3332 Z " fill="#000000"/><text fill="#000000" font-family="sans-serif" font-size="14" lengthAdjust="spacing" textLength="16.0159" x="786.99" y="317.234">Z3</text><line style="stroke:#181818;stroke-width:0.5;" x1="758.99" x2="805.0059" y1="327.802" y2="327.802"/><line style="stroke:#181818;stroke-width:0.5;" x1="758.99" x2="805.0059" y1="335.802" y2="335.802"/></g><!--class Bitwuzla--><g class="entity" data-entity="Bitwuzla" data-source-line="16" data-uid="ent0025" id="entity_Bitwuzla"><rect fill="#F1F1F1" height="48" rx="2.5" ry="2.5" style="stroke:#181818;stroke-width:0.5;" width="87.4678" x="862.27" y="295.802"/><ellipse cx="877.27" cy="311.802" fill="#ADD1B2" rx="11" ry="11" style="stroke:#181818;stroke-width:1;"/><path d="M877.3794,307.3332 Q876.4575,307.3332 875.7231,307.6457 Q875.0044,307.9582 874.5044,308.552 Q874.0044,309.1301 873.7231,310.0051 Q873.4575,310.8801 873.4575,311.9739 Q873.4575,313.4114 873.895,314.4582 Q874.3481,315.5051 875.1919,316.052 Q876.0513,316.5989 877.3638,316.5989 Q878.145,316.5989 878.8325,316.4739 Q879.5356,316.3332 880.5356,316.0207 L880.5356,317.8957 Q879.6763,318.2239 878.9106,318.3489 Q878.1606,318.4739 877.145,318.4739 Q875.2231,318.4739 873.9106,317.677 Q872.6138,316.8645 871.9575,315.3957 Q871.3013,313.9114 871.3013,311.9426 Q871.3013,310.5207 871.6919,309.3489 Q872.0981,308.1614 872.8794,307.2864 Q873.6606,306.4114 874.8013,305.9426 Q875.9419,305.4582 877.4106,305.4582 Q878.3638,305.4582 879.2544,305.6614 Q880.1606,305.8489 881.0981,306.3176 L880.27,308.0989 Q879.4888,307.7239 878.8325,307.5364 Q878.1763,307.3332 877.3794,307.3332 Z " fill="#000000"/><text fill="#000000" font-family="sans-serif" font-size="14" lengthAdjust="spacing" textLength="55.4678" x="891.27" y="317.234">Bitwuzla</text><line style="stroke:#181818;stroke-width:0.5;" x1="863.27" x2="948.7378" y1="327.802" y2="327.802"/><line style="stroke:#181818;stroke-width:0.5;" x1="863.27" x2="948.7378" y1="335.802" y2="335.802"/></g><!--reverse link SolverPy to E--><g class="link" data-entity-1="SolverPy" data-entity-2="E" data-source-line="9" data-uid="lnk8" id="link_SolverPy_E"><path d="M364.3326,156.6892 C285.6526,165.9192 206.65,179.642 174,203.802 C143.59,226.302 127.25,268.802 119.61,295.352" fill="none" id="SolverPy-backto-E" style="stroke:#181818;stroke-width:1;"/><polygon fill="none" points="382.21,154.592,363.6335,150.7301,365.0317,162.6483,382.21,154.592" style="stroke:#181818;stroke-width:1;"/></g><!--reverse link SolverPy to Vampire--><g class="link" data-entity-1="SolverPy" data-entity-2="Vampire" data-source-line="10" data-uid="lnk11" id="link_SolverPy_Vampire"><path d="M365.4671,176.7614 C342.8871,185.1514 337.11,189.772 318,203.802 C284.72,228.232 259.11,269.732 245.33,295.632" fill="none" id="SolverPy-backto-Vampire" style="stroke:#181818;stroke-width:1;"/><polygon fill="none" points="382.34,170.492,363.3773,171.1371,367.5569,182.3857,382.34,170.492" style="stroke:#181818;stroke-width:1;"/></g><!--reverse link SolverPy to Lash--><g class="link" data-entity-1="SolverPy" data-entity-2="Lash" data-source-line="11" data-uid="lnk14" id="link_SolverPy_Lash"><path d="M430.5003,210.0375 C407.2703,239.8275 390.67,271.392 377.48,295.352" fill="none" id="SolverPy-backto-Lash" style="stroke:#181818;stroke-width:1;"/><polygon fill="none" points="442.11,196.282,425.9151,206.1676,435.0855,213.9074,442.11,196.282" style="stroke:#181818;stroke-width:1;"/></g><!--reverse link SolverPy to Prover9--><g class="link" data-entity-1="SolverPy" data-entity-2="Prover9" data-source-line="12" data-uid="lnk17" id="link_SolverPy_Prover9"><path d="M494,214.112 C494,247.082 494,270.162 494,295.432" fill="none" id="SolverPy-backto-Prover9" style="stroke:#181818;stroke-width:1;"/><polygon fill="none" points="494,196.112,488,214.112,500,214.112,494,196.112" style="stroke:#181818;stroke-width:1;"/></g><!--reverse link SolverPy to Cvc5--><g class="link" data-entity-1="SolverPy" data-entity-2="Cvc5" data-source-line="14" data-uid="lnk21" id="link_SolverPy_Cvc5"><path d="M559.4439,208.7533 C592.8639,241.7233 621.69,270.162 647.31,295.432" fill="none" id="SolverPy-backto-Cvc5" style="stroke:#181818;stroke-width:1;"/><polygon fill="none" points="546.63,196.112,555.2301,213.0246,563.6577,204.482,546.63,196.112" style="stroke:#181818;stroke-width:1;"/></g><!--reverse link SolverPy to Z3--><g class="link" data-entity-1="SolverPy" data-entity-2="Z3" data-source-line="15" data-uid="lnk24" id="link_SolverPy_Z3"><path d="M623.5111,159.7528 C662.0811,168.2228 686.01,178.892 718,203.802 C748.29,227.382 766.39,269.542 775.25,295.732" fill="none" id="SolverPy-backto-Z3" style="stroke:#181818;stroke-width:1;"/><polygon fill="none" points="605.93,155.892,622.2241,165.6132,624.798,153.8924,605.93,155.892" style="stroke:#181818;stroke-width:1;"/></g><!--reverse link SolverPy to Bitwuzla--><g class="link" data-entity-1="SolverPy" data-entity-2="Bitwuzla" data-source-line="16" data-uid="lnk27" id="link_SolverPy_Bitwuzla"><path d="M623.747,157.7662 C704.157,167.5962 786.51,181.552 822,203.802 C857.41,225.992 882.67,269.002 895.76,295.672" fill="none" id="SolverPy-backto-Bitwuzla" style="stroke:#181818;stroke-width:1;"/><polygon fill="none" points="605.88,155.582,623.0189,163.7219,624.4751,151.8105,605.88,155.582" style="stroke:#181818;stroke-width:1;"/></g><!--SRC=[fO-zhi8m38LtdiBINK1Sl206645i30Wa1X136YoebFueTWi5yUwaIPdWtWxDuEF4Fbzi000LiLYb1RHHpC2PASdc5OO4jrxM5JnwuC_ZRNZ23x0eAPWOPi0aXws_7flEqUZJCWmVzEFKMLDDlr1NXCxLm34sn8MHnjMqdlhMlzRrACkChpvxNhwFh2H7ocrMvqkWcr1w-dkn5b2faZosXBkWNN6kSC6L2rr1ORyfheEsu_xXSIAeIpt1XGjT1gj1zp7knrqXKIpNucuKpfka7VW2]--></g></svg>