<?xml version="1.0" encoding="UTF-8" standalone="no"?>
<!DOCTYPE svg PUBLIC "-//W3C//DTD SVG 1.1//EN"
 "http://www.w3.org/Graphics/SVG/1.1/DTD/svg11.dtd">
<!-- Generated by graphviz version 8.1.0 (20230707.0739)
 -->
<!-- Pages: 1 -->
<svg width="1254pt" height="647pt"
 viewBox="0.00 0.00 1254.00 646.50" xmlns="http://www.w3.org/2000/svg" xmlns:xlink="http://www.w3.org/1999/xlink">
<g id="graph0" class="graph" transform="scale(1 1) rotate(0) translate(4 642.5)">
<polygon fill="white" stroke="none" points="-4,4 -4,-642.5 1250,-642.5 1250,4 -4,4"/>
<g id="clust1" class="cluster">
<title>cluster_base</title>
<polygon fill="none" stroke="black" points="440,-444 440,-630.5 670,-630.5 670,-444 440,-444"/>
<text text-anchor="middle" x="555" y="-613.2" font-family="Times,serif" font-size="14.00">base</text>
</g>
<g id="clust2" class="cluster">
<title>cluster_db</title>
<polygon fill="none" stroke="black" points="8,-226 8,-412.5 334,-412.5 334,-226 8,-226"/>
<text text-anchor="middle" x="171" y="-395.2" font-family="Times,serif" font-size="14.00">DB</text>
</g>
<g id="clust3" class="cluster">
<title>cluster_shell</title>
<polygon fill="none" stroke="black" points="390,-335 390,-412.5 856,-412.5 856,-335 390,-335"/>
<text text-anchor="middle" x="623" y="-395.2" font-family="Times,serif" font-size="14.00">Shell</text>
</g>
<g id="clust4" class="cluster">
<title>cluster_status</title>
<polygon fill="none" stroke="black" points="912,-335 912,-412.5 1238,-412.5 1238,-335 912,-335"/>
<text text-anchor="middle" x="1075" y="-395.2" font-family="Times,serif" font-size="14.00">Status</text>
</g>
<g id="clust5" class="cluster">
<title>cluster_train</title>
<polygon fill="none" stroke="black" points="684,-8 684,-303.5 942,-303.5 942,-8 684,-8"/>
<text text-anchor="middle" x="813" y="-286.2" font-family="Times,serif" font-size="14.00">Train</text>
</g>
<!-- Translator -->
<g id="node1" class="node">
<title>Translator</title>
<path fill="none" stroke="black" d="M460.25,-452.5C460.25,-452.5 507.75,-452.5 507.75,-452.5 513.75,-452.5 519.75,-458.5 519.75,-464.5 519.75,-464.5 519.75,-476.5 519.75,-476.5 519.75,-482.5 513.75,-488.5 507.75,-488.5 507.75,-488.5 460.25,-488.5 460.25,-488.5 454.25,-488.5 448.25,-482.5 448.25,-476.5 448.25,-476.5 448.25,-464.5 448.25,-464.5 448.25,-458.5 454.25,-452.5 460.25,-452.5"/>
<text text-anchor="middle" x="484" y="-465.45" font-family="Times,serif" font-size="14.00">Translator</text>
</g>
<!-- Bid -->
<g id="node2" class="node">
<title>Bid</title>
<path fill="none" stroke="black" d="M154,-343.5C154,-343.5 184,-343.5 184,-343.5 190,-343.5 196,-349.5 196,-355.5 196,-355.5 196,-367.5 196,-367.5 196,-373.5 190,-379.5 184,-379.5 184,-379.5 154,-379.5 154,-379.5 148,-379.5 142,-373.5 142,-367.5 142,-367.5 142,-355.5 142,-355.5 142,-349.5 148,-343.5 154,-343.5"/>
<text text-anchor="middle" x="168.75" y="-356.45" font-family="Times,serif" font-size="14.00">Bid</text>
</g>
<!-- Translator&#45;&gt;Bid -->
<g id="edge1" class="edge">
<title>Translator&#45;&gt;Bid</title>
<path fill="none" stroke="black" stroke-dasharray="5,2" d="M448.48,-470C366.1,-470 169,-470 169,-470 169,-470 169,-390.42 169,-390.42"/>
<polygon fill="black" stroke="black" points="172.5,-390.42 169,-380.42 165.5,-390.42 172.5,-390.42"/>
</g>
<!-- Sid -->
<g id="node3" class="node">
<title>Sid</title>
<path fill="none" stroke="black" d="M28,-343.5C28,-343.5 58,-343.5 58,-343.5 64,-343.5 70,-349.5 70,-355.5 70,-355.5 70,-367.5 70,-367.5 70,-373.5 64,-379.5 58,-379.5 58,-379.5 28,-379.5 28,-379.5 22,-379.5 16,-373.5 16,-367.5 16,-367.5 16,-355.5 16,-355.5 16,-349.5 22,-343.5 28,-343.5"/>
<text text-anchor="middle" x="43" y="-356.45" font-family="Times,serif" font-size="14.00">Sid</text>
</g>
<!-- Translator&#45;&gt;Sid -->
<g id="edge2" class="edge">
<title>Translator&#45;&gt;Sid</title>
<path fill="none" stroke="black" stroke-dasharray="5,2" d="M448.28,-479C343.3,-479 43,-479 43,-479 43,-479 43,-390.35 43,-390.35"/>
<polygon fill="black" stroke="black" points="46.5,-390.35 43,-380.35 39.5,-390.35 46.5,-390.35"/>
</g>
<!-- Limits -->
<g id="node10" class="node">
<title>Limits</title>
<path fill="none" stroke="black" d="M410,-343.5C410,-343.5 440,-343.5 440,-343.5 446,-343.5 452,-349.5 452,-355.5 452,-355.5 452,-367.5 452,-367.5 452,-373.5 446,-379.5 440,-379.5 440,-379.5 410,-379.5 410,-379.5 404,-379.5 398,-373.5 398,-367.5 398,-367.5 398,-355.5 398,-355.5 398,-349.5 404,-343.5 410,-343.5"/>
<text text-anchor="middle" x="425" y="-356.45" font-family="Times,serif" font-size="14.00">Limits</text>
</g>
<!-- Translator&#45;&gt;Limits -->
<g id="edge9" class="edge">
<title>Translator&#45;&gt;Limits</title>
<path fill="none" stroke="black" stroke-dasharray="5,2" d="M448.56,-461C431.53,-461 414.75,-461 414.75,-461 414.75,-461 414.75,-390.29 414.75,-390.29"/>
<polygon fill="black" stroke="black" points="418.25,-390.29 414.75,-380.29 411.25,-390.29 418.25,-390.29"/>
</g>
<!-- Outputs -->
<g id="node4" class="node">
<title>Outputs</title>
<path fill="none" stroke="black" d="M279.62,-343.5C279.62,-343.5 314.38,-343.5 314.38,-343.5 320.38,-343.5 326.38,-349.5 326.38,-355.5 326.38,-355.5 326.38,-367.5 326.38,-367.5 326.38,-373.5 320.38,-379.5 314.38,-379.5 314.38,-379.5 279.62,-379.5 279.62,-379.5 273.62,-379.5 267.62,-373.5 267.62,-367.5 267.62,-367.5 267.62,-355.5 267.62,-355.5 267.62,-349.5 273.62,-343.5 279.62,-343.5"/>
<text text-anchor="middle" x="297" y="-356.45" font-family="Times,serif" font-size="14.00">Outputs</text>
</g>
<!-- Errors -->
<g id="node5" class="node">
<title>Errors</title>
<path fill="none" stroke="black" d="M282,-234.5C282,-234.5 312,-234.5 312,-234.5 318,-234.5 324,-240.5 324,-246.5 324,-246.5 324,-258.5 324,-258.5 324,-264.5 318,-270.5 312,-270.5 312,-270.5 282,-270.5 282,-270.5 276,-270.5 270,-264.5 270,-258.5 270,-258.5 270,-246.5 270,-246.5 270,-240.5 276,-234.5 282,-234.5"/>
<text text-anchor="middle" x="296.88" y="-247.45" font-family="Times,serif" font-size="14.00">Errors</text>
</g>
<!-- Outputs&#45;&gt;Errors -->
<g id="edge3" class="edge">
<title>Outputs&#45;&gt;Errors</title>
<path fill="none" stroke="black" stroke-dasharray="5,2" d="M297,-343.5C297,-343.5 297,-281.16 297,-281.16"/>
<polygon fill="black" stroke="black" points="300.5,-281.16 297,-271.16 293.5,-281.16 300.5,-281.16"/>
</g>
<!-- Cvc5TrainsDebug -->
<g id="node17" class="node">
<title>Cvc5TrainsDebug</title>
<path fill="none" stroke="black" d="M704.5,-234.5C704.5,-234.5 795.5,-234.5 795.5,-234.5 801.5,-234.5 807.5,-240.5 807.5,-246.5 807.5,-246.5 807.5,-258.5 807.5,-258.5 807.5,-264.5 801.5,-270.5 795.5,-270.5 795.5,-270.5 704.5,-270.5 704.5,-270.5 698.5,-270.5 692.5,-264.5 692.5,-258.5 692.5,-258.5 692.5,-246.5 692.5,-246.5 692.5,-240.5 698.5,-234.5 704.5,-234.5"/>
<text text-anchor="middle" x="750" y="-247.45" font-family="Times,serif" font-size="14.00">Cvc5TrainsDebug</text>
</g>
<!-- Outputs&#45;&gt;Cvc5TrainsDebug -->
<g id="edge15" class="edge">
<title>Outputs&#45;&gt;Cvc5TrainsDebug</title>
<path fill="none" stroke="black" stroke-dasharray="5,2" d="M326.16,-361C343.52,-361 362.19,-361 362.19,-361 362.19,-361 362.19,-252 362.19,-252 362.19,-252 681.78,-252 681.78,-252"/>
<polygon fill="black" stroke="black" points="681.78,-255.5 691.78,-252 681.78,-248.5 681.78,-255.5"/>
</g>
<!-- Decorator -->
<g id="node6" class="node">
<title>Decorator</title>
<path fill="none" stroke="black" d="M604,-452.5C604,-452.5 650,-452.5 650,-452.5 656,-452.5 662,-458.5 662,-464.5 662,-464.5 662,-476.5 662,-476.5 662,-482.5 656,-488.5 650,-488.5 650,-488.5 604,-488.5 604,-488.5 598,-488.5 592,-482.5 592,-476.5 592,-476.5 592,-464.5 592,-464.5 592,-458.5 598,-452.5 604,-452.5"/>
<text text-anchor="middle" x="627" y="-465.45" font-family="Times,serif" font-size="14.00">Decorator</text>
</g>
<!-- Decorator&#45;&gt;Outputs -->
<g id="edge4" class="edge">
<title>Decorator&#45;&gt;Outputs</title>
<path fill="none" stroke="black" stroke-dasharray="5,2" d="M614.67,-452.72C614.67,-441.08 614.67,-428 614.67,-428 614.67,-428 297,-428 297,-428 297,-428 297,-390.32 297,-390.32"/>
<polygon fill="black" stroke="black" points="300.5,-390.32 297,-380.32 293.5,-390.32 300.5,-390.32"/>
</g>
<!-- Time -->
<g id="node8" class="node">
<title>Time</title>
<path fill="none" stroke="black" d="M672,-343.5C672,-343.5 702,-343.5 702,-343.5 708,-343.5 714,-349.5 714,-355.5 714,-355.5 714,-367.5 714,-367.5 714,-373.5 708,-379.5 702,-379.5 702,-379.5 672,-379.5 672,-379.5 666,-379.5 660,-373.5 660,-367.5 660,-367.5 660,-355.5 660,-355.5 660,-349.5 666,-343.5 672,-343.5"/>
<text text-anchor="middle" x="686.62" y="-356.45" font-family="Times,serif" font-size="14.00">Time</text>
</g>
<!-- Decorator&#45;&gt;Time -->
<g id="edge6" class="edge">
<title>Decorator&#45;&gt;Time</title>
<path fill="none" stroke="black" stroke-dasharray="5,2" d="M661.78,-457C675.48,-457 688,-457 688,-457 688,-457 688,-390.46 688,-390.46"/>
<polygon fill="black" stroke="black" points="691.5,-390.46 688,-380.46 684.5,-390.46 691.5,-390.46"/>
</g>
<!-- Memory -->
<g id="node9" class="node">
<title>Memory</title>
<path fill="none" stroke="black" d="M536,-343.5C536,-343.5 576,-343.5 576,-343.5 582,-343.5 588,-349.5 588,-355.5 588,-355.5 588,-367.5 588,-367.5 588,-373.5 582,-379.5 576,-379.5 576,-379.5 536,-379.5 536,-379.5 530,-379.5 524,-373.5 524,-367.5 524,-367.5 524,-355.5 524,-355.5 524,-349.5 530,-343.5 536,-343.5"/>
<text text-anchor="middle" x="556" y="-356.45" font-family="Times,serif" font-size="14.00">Memory</text>
</g>
<!-- Decorator&#45;&gt;Memory -->
<g id="edge7" class="edge">
<title>Decorator&#45;&gt;Memory</title>
<path fill="none" stroke="black" stroke-dasharray="5,2" d="M592.29,-461C579.7,-461 568.5,-461 568.5,-461 568.5,-461 568.5,-390.29 568.5,-390.29"/>
<polygon fill="black" stroke="black" points="572,-390.29 568.5,-380.29 565,-390.29 572,-390.29"/>
</g>
<!-- Decorator&#45;&gt;Limits -->
<g id="edge8" class="edge">
<title>Decorator&#45;&gt;Limits</title>
<path fill="none" stroke="black" stroke-dasharray="5,2" d="M637.33,-452.68C637.33,-432.98 637.33,-404 637.33,-404 637.33,-404 431.5,-404 431.5,-404 431.5,-404 431.5,-390.28 431.5,-390.28"/>
<polygon fill="black" stroke="black" points="435,-390.28 431.5,-380.28 428,-390.28 435,-390.28"/>
</g>
<!-- Timeout -->
<g id="node11" class="node">
<title>Timeout</title>
<path fill="none" stroke="black" d="M797.75,-343.5C797.75,-343.5 836.25,-343.5 836.25,-343.5 842.25,-343.5 848.25,-349.5 848.25,-355.5 848.25,-355.5 848.25,-367.5 848.25,-367.5 848.25,-373.5 842.25,-379.5 836.25,-379.5 836.25,-379.5 797.75,-379.5 797.75,-379.5 791.75,-379.5 785.75,-373.5 785.75,-367.5 785.75,-367.5 785.75,-355.5 785.75,-355.5 785.75,-349.5 791.75,-343.5 797.75,-343.5"/>
<text text-anchor="middle" x="817" y="-356.45" font-family="Times,serif" font-size="14.00">Timeout</text>
</g>
<!-- Decorator&#45;&gt;Timeout -->
<g id="edge10" class="edge">
<title>Decorator&#45;&gt;Timeout</title>
<path fill="none" stroke="black" stroke-dasharray="5,2" d="M661.85,-462C716.7,-462 817,-462 817,-462 817,-462 817,-390.47 817,-390.47"/>
<polygon fill="black" stroke="black" points="820.5,-390.47 817,-380.47 813.5,-390.47 820.5,-390.47"/>
</g>
<!-- Smt -->
<g id="node12" class="node">
<title>Smt</title>
<path fill="none" stroke="black" d="M1058,-343.5C1058,-343.5 1088,-343.5 1088,-343.5 1094,-343.5 1100,-349.5 1100,-355.5 1100,-355.5 1100,-367.5 1100,-367.5 1100,-373.5 1094,-379.5 1088,-379.5 1088,-379.5 1058,-379.5 1058,-379.5 1052,-379.5 1046,-373.5 1046,-367.5 1046,-367.5 1046,-355.5 1046,-355.5 1046,-349.5 1052,-343.5 1058,-343.5"/>
<text text-anchor="middle" x="1072.75" y="-356.45" font-family="Times,serif" font-size="14.00">Smt</text>
</g>
<!-- Decorator&#45;&gt;Smt -->
<g id="edge11" class="edge">
<title>Decorator&#45;&gt;Smt</title>
<path fill="none" stroke="black" stroke-dasharray="5,2" d="M662,-478C767.14,-478 1073,-478 1073,-478 1073,-478 1073,-390.45 1073,-390.45"/>
<polygon fill="black" stroke="black" points="1076.5,-390.45 1073,-380.45 1069.5,-390.45 1076.5,-390.45"/>
</g>
<!-- Tptp -->
<g id="node13" class="node">
<title>Tptp</title>
<path fill="none" stroke="black" d="M932,-343.5C932,-343.5 962,-343.5 962,-343.5 968,-343.5 974,-349.5 974,-355.5 974,-355.5 974,-367.5 974,-367.5 974,-373.5 968,-379.5 962,-379.5 962,-379.5 932,-379.5 932,-379.5 926,-379.5 920,-373.5 920,-367.5 920,-367.5 920,-355.5 920,-355.5 920,-349.5 926,-343.5 932,-343.5"/>
<text text-anchor="middle" x="946.75" y="-356.45" font-family="Times,serif" font-size="14.00">Tptp</text>
</g>
<!-- Decorator&#45;&gt;Tptp -->
<g id="edge12" class="edge">
<title>Decorator&#45;&gt;Tptp</title>
<path fill="none" stroke="black" stroke-dasharray="5,2" d="M661.85,-473C744.79,-473 947,-473 947,-473 947,-473 947,-390.41 947,-390.41"/>
<polygon fill="black" stroke="black" points="950.5,-390.41 947,-380.41 943.5,-390.41 950.5,-390.41"/>
</g>
<!-- Limiter -->
<g id="node14" class="node">
<title>Limiter</title>
<path fill="none" stroke="black" d="M1184.38,-343.5C1184.38,-343.5 1217.62,-343.5 1217.62,-343.5 1223.62,-343.5 1229.62,-349.5 1229.62,-355.5 1229.62,-355.5 1229.62,-367.5 1229.62,-367.5 1229.62,-373.5 1223.62,-379.5 1217.62,-379.5 1217.62,-379.5 1184.38,-379.5 1184.38,-379.5 1178.38,-379.5 1172.38,-373.5 1172.38,-367.5 1172.38,-367.5 1172.38,-355.5 1172.38,-355.5 1172.38,-349.5 1178.38,-343.5 1184.38,-343.5"/>
<text text-anchor="middle" x="1201" y="-356.45" font-family="Times,serif" font-size="14.00">Limiter</text>
</g>
<!-- Decorator&#45;&gt;Limiter -->
<g id="edge13" class="edge">
<title>Decorator&#45;&gt;Limiter</title>
<path fill="none" stroke="black" stroke-dasharray="5,2" d="M661.61,-483C785.71,-483 1201,-483 1201,-483 1201,-483 1201,-390.43 1201,-390.43"/>
<polygon fill="black" stroke="black" points="1204.5,-390.43 1201,-380.43 1197.5,-390.43 1204.5,-390.43"/>
</g>
<!-- Trains -->
<g id="node18" class="node">
<title>Trains</title>
<path fill="none" stroke="black" d="M892,-234.5C892,-234.5 922,-234.5 922,-234.5 928,-234.5 934,-240.5 934,-246.5 934,-246.5 934,-258.5 934,-258.5 934,-264.5 928,-270.5 922,-270.5 922,-270.5 892,-270.5 892,-270.5 886,-270.5 880,-264.5 880,-258.5 880,-258.5 880,-246.5 880,-246.5 880,-240.5 886,-234.5 892,-234.5"/>
<text text-anchor="middle" x="906.75" y="-247.45" font-family="Times,serif" font-size="14.00">Trains</text>
</g>
<!-- Decorator&#45;&gt;Trains -->
<g id="edge17" class="edge">
<title>Decorator&#45;&gt;Trains</title>
<path fill="none" stroke="black" stroke-dasharray="5,2" d="M661.85,-467C735.45,-467 900,-467 900,-467 900,-467 900,-281.42 900,-281.42"/>
<polygon fill="black" stroke="black" points="903.5,-281.42 900,-271.42 896.5,-281.42 903.5,-281.42"/>
</g>
<!-- Plugin -->
<g id="node7" class="node">
<title>Plugin</title>
<path fill="none" stroke="black" d="M540,-561.5C540,-561.5 570,-561.5 570,-561.5 576,-561.5 582,-567.5 582,-573.5 582,-573.5 582,-585.5 582,-585.5 582,-591.5 576,-597.5 570,-597.5 570,-597.5 540,-597.5 540,-597.5 534,-597.5 528,-591.5 528,-585.5 528,-585.5 528,-573.5 528,-573.5 528,-567.5 534,-561.5 540,-561.5"/>
<text text-anchor="middle" x="554.62" y="-574.45" font-family="Times,serif" font-size="14.00">Plugin</text>
</g>
<!-- Plugin&#45;&gt;Translator -->
<g id="edge18" class="edge">
<title>Plugin&#45;&gt;Translator</title>
<path fill="none" stroke="black" stroke-dasharray="5,2" d="M541.5,-561.91C541.5,-530.95 541.5,-470 541.5,-470 541.5,-470 530.43,-470 530.43,-470"/>
<polygon fill="black" stroke="black" points="530.43,-466.5 520.43,-470 530.43,-473.5 530.43,-466.5"/>
</g>
<!-- Plugin&#45;&gt;Decorator -->
<g id="edge5" class="edge">
<title>Plugin&#45;&gt;Decorator</title>
<path fill="none" stroke="black" stroke-dasharray="5,2" d="M555,-561.53C555,-532.63 555,-479 555,-479 555,-479 581.27,-479 581.27,-479"/>
<polygon fill="black" stroke="black" points="581.27,-482.5 591.27,-479 581.27,-475.5 581.27,-482.5"/>
</g>
<!-- SvmTrains -->
<g id="node15" class="node">
<title>SvmTrains</title>
<path fill="none" stroke="black" d="M869,-125.5C869,-125.5 921,-125.5 921,-125.5 927,-125.5 933,-131.5 933,-137.5 933,-137.5 933,-149.5 933,-149.5 933,-155.5 927,-161.5 921,-161.5 921,-161.5 869,-161.5 869,-161.5 863,-161.5 857,-155.5 857,-149.5 857,-149.5 857,-137.5 857,-137.5 857,-131.5 863,-125.5 869,-125.5"/>
<text text-anchor="middle" x="895" y="-138.45" font-family="Times,serif" font-size="14.00">SvmTrains</text>
</g>
<!-- Cvc5Trains -->
<g id="node16" class="node">
<title>Cvc5Trains</title>
<path fill="none" stroke="black" d="M866.5,-16.5C866.5,-16.5 921.5,-16.5 921.5,-16.5 927.5,-16.5 933.5,-22.5 933.5,-28.5 933.5,-28.5 933.5,-40.5 933.5,-40.5 933.5,-46.5 927.5,-52.5 921.5,-52.5 921.5,-52.5 866.5,-52.5 866.5,-52.5 860.5,-52.5 854.5,-46.5 854.5,-40.5 854.5,-40.5 854.5,-28.5 854.5,-28.5 854.5,-22.5 860.5,-16.5 866.5,-16.5"/>
<text text-anchor="middle" x="894" y="-29.45" font-family="Times,serif" font-size="14.00">Cvc5Trains</text>
</g>
<!-- SvmTrains&#45;&gt;Cvc5Trains -->
<g id="edge14" class="edge">
<title>SvmTrains&#45;&gt;Cvc5Trains</title>
<path fill="none" stroke="black" stroke-dasharray="5,2" d="M895,-125.5C895,-125.5 895,-63.16 895,-63.16"/>
<polygon fill="black" stroke="black" points="898.5,-63.16 895,-53.16 891.5,-63.16 898.5,-63.16"/>
</g>
<!-- Trains&#45;&gt;SvmTrains -->
<g id="edge16" class="edge">
<title>Trains&#45;&gt;SvmTrains</title>
<path fill="none" stroke="black" stroke-dasharray="5,2" d="M906.5,-234.5C906.5,-234.5 906.5,-172.16 906.5,-172.16"/>
<polygon fill="black" stroke="black" points="910,-172.16 906.5,-162.16 903,-172.16 910,-172.16"/>
</g>
</g>
</svg>
